<svg width="24" height="24" fill="none" viewBox="0 0 24 24" xmlns="http://www.w3.org/2000/svg"><path d="M3.143 5.75A2.75 2.75 0 0 1 5.893 3h12.5a2.75 2.75 0 0 1 2.75 2.75v6.365a6.477 6.477 0 0 0-1.5-.754V5.75c0-.69-.56-1.25-1.25-1.25h-12.5c-.69 0-1.25.56-1.25 1.25v12.5c0 .69.56 1.25 1.25 1.25h5.421c.173.534.412 1.037.709 1.5h-6.13a2.75 2.75 0 0 1-2.75-2.75V5.75Z" fill="#212121"/><path d="M23 17.5a5.5 5.5 0 1 1-11 0 5.5 5.5 0 0 1 11 0Zm-5.646-2.146a.5.5 0 0 0-.707-.708l-2.5 2.5a.5.5 0 0 0 0 .708l2.5 2.5a.5.5 0 0 0 .707-.708L15.708 18H20.5a.5.5 0 1 0 0-1h-4.793l1.646-1.646Z" fill="#212121"/></svg>