<svg width="24" height="24" fill="none" viewBox="0 0 24 24" xmlns="http://www.w3.org/2000/svg"><path d="M12 1.998a2.5 2.5 0 1 0 0 5 2.5 2.5 0 0 0 0-5Zm8.344 4.518a2.01 2.01 0 0 0-2.612-1.255l-1.607.6a.75.75 0 0 0-.415.381 4.086 4.086 0 0 1-7.386.01.75.75 0 0 0-.415-.38l-1.63-.608A2.007 2.007 0 0 0 4.816 9L8 10.31v3.148l-1.971 5.713a1.956 1.956 0 0 0 3.682 1.321l1.31-3.519a6.505 6.505 0 0 1 4.979-5.8v-.861l3.195-1.307a2.01 2.01 0 0 0 1.149-2.489ZM23 17.5a5.5 5.5 0 1 1-11 0 5.5 5.5 0 0 1 11 0Zm-2.146-2.354a.5.5 0 0 0-.708 0L16.5 18.793l-1.646-1.647a.5.5 0 0 0-.708.708l2 2a.5.5 0 0 0 .708 0l4-4a.5.5 0 0 0 0-.708Z" fill="#212121"/></svg>