<svg width="24" height="24" fill="none" viewBox="0 0 24 24" xmlns="http://www.w3.org/2000/svg"><path d="M15.648 2.007 15.75 2a.75.75 0 0 1 .743.648l.007.102v8.326a6.452 6.452 0 0 0-1.5.422V5.5H9.25a.75.75 0 0 0-.75.75v11.496c0 .414.336.75.75.75h1.826c.08.523.223 1.026.42 1.5H9.25A2.25 2.25 0 0 1 7 17.746V6.25A2.25 2.25 0 0 1 9.25 4L15 3.999v-1.25a.75.75 0 0 1 .648-.742ZM23 17.5a5.5 5.5 0 1 1-11 0 5.5 5.5 0 0 1 11 0Zm-8.5-.5a.5.5 0 0 0 0 1h4.793l-1.647 1.646a.5.5 0 0 0 .708.708l2.5-2.5a.5.5 0 0 0 0-.708l-2.5-2.5a.5.5 0 0 0-.708.708L19.293 17H14.5Z" fill="#212121"/></svg>