<svg width="24" height="24" fill="none" viewBox="0 0 24 24" xmlns="http://www.w3.org/2000/svg"><path d="M10.125 13.995a2.737 2.737 0 0 0-.617 1.5h-5.26a.749.749 0 0 0-.748.75v.577c0 .536.191 1.054.539 1.461 1.177 1.379 2.984 2.12 5.469 2.205.049.57.273 1.09.617 1.508h-.129c-3.145 0-5.531-.905-7.098-2.739A3.75 3.75 0 0 1 2 16.822v-.578c0-1.19.925-2.164 2.095-2.243l.154-.006h5.876Zm4.621-2.5h3c.648 0 1.18.492 1.244 1.123l.007.127-.001 1.25h1.25c.967 0 1.75.784 1.75 1.75v4.5a1.75 1.75 0 0 1-1.75 1.75h-8a1.75 1.75 0 0 1-1.75-1.75v-4.5c0-.966.784-1.75 1.75-1.75h1.25v-1.25c0-.647.492-1.18 1.123-1.243l.127-.007h3-3Zm5.5 4h-8a.25.25 0 0 0-.25.25v4.5c0 .138.112.25.25.25h8a.25.25 0 0 0 .25-.25v-4.5a.25.25 0 0 0-.25-.25Zm-2.75-2.5h-2.5v1h2.5v-1ZM9.997 2a5 5 0 1 1 0 10 5 5 0 0 1 0-10Zm0 1.5a3.5 3.5 0 1 0 0 7 3.5 3.5 0 0 0 0-7Z" fill="#212121"/></svg>