<svg width="24" height="24" fill="none" viewBox="0 0 24 24" xmlns="http://www.w3.org/2000/svg"><path d="M17.498 11.996a5.5 5.5 0 1 1 0 11 5.5 5.5 0 0 1 0-11Zm0 1.999-.09.008a.5.5 0 0 0-.402.402l-.008.09v2.5h-2.503l-.09.009a.5.5 0 0 0-.402.402l-.008.09.008.09a.5.5 0 0 0 .402.402l.09.008 2.503-.001v2.504l.009.09a.5.5 0 0 0 .402.402l.09.008.09-.008a.5.5 0 0 0 .402-.402l.008-.09v-2.504h2.503l.09-.007a.5.5 0 0 0 .402-.402l.008-.09-.008-.09a.5.5 0 0 0-.402-.402l-.09-.008-2.505-.001v-2.5l-.008-.09a.5.5 0 0 0-.402-.402l-.09-.008Zm-5.479 0a6.468 6.468 0 0 0-.708 1.501H9.248a.25.25 0 0 0-.25.25v1c0 .977.612 1.544 2.069 1.709.08.535.225 1.05.426 1.535-2.553-.137-3.995-1.221-3.995-3.244v-1c0-.967.783-1.75 1.75-1.75h2.772Zm-3.895-5a4.007 4.007 0 0 0-.096 1.5h-4.28a.25.25 0 0 0-.25.25v1c0 1.177.886 1.76 3.066 1.76.462 0 .863-.026 1.208-.078a2.743 2.743 0 0 0-1.173 1.577h-.035c-2.909 0-4.566-1.09-4.566-3.258v-1A1.75 1.75 0 0 1 3.604 9l.144-.005h4.376Zm3.874-2a3 3 0 1 1 0 6 3 3 0 0 1 0-6Zm8.25 2c.966 0 1.75.784 1.75 1.75l-.002.963c.02.368-.01.707-.087 1.014a6.514 6.514 0 0 0-1.41-.994l-.001-.982a.25.25 0 0 0-.25-.25l-4.281-.001a4.03 4.03 0 0 0-.095-1.5h4.376Zm-8.25-.5a1.5 1.5 0 1 0 0 3 1.5 1.5 0 0 0 0-3Zm-5.5-6.5a3 3 0 1 1 0 6 3 3 0 0 1 0-6Zm11 0a3 3 0 1 1 0 6 3 3 0 0 1 0-6Zm-11 1.5a1.5 1.5 0 1 0 0 3 1.5 1.5 0 0 0 0-3Zm11 0a1.5 1.5 0 1 0 0 3 1.5 1.5 0 0 0 0-3Z" fill="#212121"/></svg>