<svg width="24" height="24" fill="none" viewBox="0 0 24 24" xmlns="http://www.w3.org/2000/svg"><path d="M3.5 14.5a1.5 1.5 0 1 1 0 3 1.5 1.5 0 0 1 0-3Zm4 .5h3.998a6.464 6.464 0 0 0-.48 2H7.5a1 1 0 0 1-.116-1.993L7.5 15Zm0-4h13.503l.117-.007A1 1 0 0 0 21.003 9H7.5l-.116.007A1 1 0 0 0 7.5 11Zm-4-2.5a1.5 1.5 0 1 1 0 3 1.5 1.5 0 0 1 0-3Zm0-5.992a1.5 1.5 0 1 1 0 2.999 1.5 1.5 0 0 1 0-3ZM7.5 3h13.503a1 1 0 0 1 .117 1.993l-.117.007H7.5a1 1 0 0 1-.116-1.993L7.5 3ZM23 17.5a5.5 5.5 0 1 0-11 0 5.5 5.5 0 0 0 11 0Zm-5 .5.001 2.503a.5.5 0 1 1-1 0V18h-2.505a.5.5 0 0 1 0-1H17v-2.5a.5.5 0 1 1 1 0V17h2.497a.5.5 0 0 1 0 1H18Z" fill="#212121"/></svg>