<svg width="24" height="24" fill="none" viewBox="0 0 24 24" xmlns="http://www.w3.org/2000/svg"><path d="M20.09 4.97c.432.518.79 1.076 1.076 1.661a2.751 2.751 0 0 1-3.661.924l2.585-2.584Zm-1.06-1.06-2.585 2.585a2.751 2.751 0 0 1 .924-3.661 8.207 8.207 0 0 1 1.66 1.076Zm1.493 11.053a8.257 8.257 0 0 0 1.233-6.711 4.252 4.252 0 0 1-5.338.39L15.311 9.75l5.212 5.213Zm-5.166-7.38a4.252 4.252 0 0 1 .391-5.339 8.257 8.257 0 0 0-6.71 1.233l5.212 5.212 1.107-1.107ZM13.19 9.75 7.886 4.447A8.214 8.214 0 0 0 5.908 7.68c1.913.295 4.445 1.023 6.53 2.82l.752-.751Zm-1.462 1.461a9.17 9.17 0 0 1 1.061 1.06c1.63 1.92 2.292 4.276 2.556 6.074.061.412.101.795.127 1.136a2.294 2.294 0 0 1-2.49 2.49c-1.978-.15-5.34-.768-7.762-3.19-2.423-2.423-3.042-5.784-3.192-7.762a2.294 2.294 0 0 1 2.49-2.49c.342.025.725.065 1.137.126 1.798.265 4.153.927 6.073 2.556ZM8.03 13.47a.75.75 0 0 0-1.06 1.06l2.5 2.5a.75.75 0 1 0 1.06-1.06l-2.5-2.5Zm8.289 4.622c-.295-1.912-1.023-4.445-2.82-6.53l.751-.751 5.303 5.303a8.214 8.214 0 0 1-3.234 1.978Z" fill="#212121"/></svg>