<svg width="24" height="24" fill="none" viewBox="0 0 24 24" xmlns="http://www.w3.org/2000/svg"><path d="M13 2.004a2.998 2.998 0 0 1 2.994 2.82l.005.175 2.25.001c.868 0 1.588.63 1.727 1.459l.018.148.006.143-.001 3.751h-1.998a1.5 1.5 0 0 0-1.48 1.24l-.015.132-.005.128a1.5 1.5 0 0 0 1.24 1.48l.132.015.128.005H20v3.752a1.75 1.75 0 0 1-1.606 1.744l-.143.006-2.251-.001-.004.173a3 3 0 0 1-2.638 2.802l-.18.016-.177.005a3 3 0 0 1-2.995-2.82L10 19.002H7.75a1.75 1.75 0 0 1-1.726-1.458l-.018-.148L6 17.253 5.999 15l-.163-.005a3 3 0 0 1-2.803-2.638l-.016-.18L3.012 12a3 3 0 0 1 2.824-2.995l.163-.005V6.75c0-.867.632-1.587 1.46-1.726l.147-.018L7.75 5l2.249-.001.006-.171a3 3 0 0 1 2.638-2.803l.18-.016.177-.005Zm0 1.5a1.5 1.5 0 0 0-1.493 1.356l-.007.145-.002 1.494L7.75 6.5a.25.25 0 0 0-.243.193L7.5 6.75l-.001 3.751H6.012a1.5 1.5 0 0 0-.144 2.993l.144.007H7.5v3.752a.25.25 0 0 0 .194.243l.057.007h3.748l.002 1.495a1.5 1.5 0 0 0 2.993.145L14.5 19l-.002-1.497h3.752a.25.25 0 0 0 .243-.192l.007-.057L18.499 15h-.523l-.18-.006a3.003 3.003 0 0 1-2.79-2.84l-.004-.178.006-.18a3 3 0 0 1 2.819-2.79L18 9.001h.498V6.75a.25.25 0 0 0-.13-.22l-.062-.023-.057-.007-3.752-.001.002-1.495a1.5 1.5 0 0 0-1.5-1.5Z" fill="#212121"/></svg>