<svg width="24" height="24" fill="none" viewBox="0 0 24 24" xmlns="http://www.w3.org/2000/svg"><path d="M2 4.75A.75.75 0 0 1 2.75 4h1.14c1.435 0 2.7.941 3.113 2.316l.864 2.881A3.251 3.251 0 0 1 10 12.25v2.5a2.75 2.75 0 0 1-1.533 2.467A3.25 3.25 0 0 1 2 16.75v-7A.75.75 0 0 1 2.75 9h3.492l-.676-2.253A1.75 1.75 0 0 0 3.89 5.5H2.75A.75.75 0 0 1 2 4.75Zm1.5 12a1.75 1.75 0 1 0 3.5 0 1.75 1.75 0 0 0-3.5 0Zm12.73-7.59 2.149-3.582A3.25 3.25 0 0 1 21.166 4h.084a.75.75 0 0 1 0 1.5h-.084a1.75 1.75 0 0 0-1.5.85L18.075 9h3.194a.75.75 0 0 1 .73.775v6.975a.75.75 0 0 1-.75.75h-.837a3.251 3.251 0 0 1-6.327-.005A2.75 2.75 0 0 1 11.5 14.75v-1.375a3.25 3.25 0 0 1 1.93-2.97l2.8-1.244ZM17.25 15a1.75 1.75 0 1 0 0 3.5 1.75 1.75 0 0 0 0-3.5Zm-7-10a.75.75 0 0 1 .75.75v2a.75.75 0 0 1-1.5 0v-2a.75.75 0 0 1 .75-.75Zm4.1 2.7a.75.75 0 0 0-1.2-.9l-1.5 2a.75.75 0 1 0 1.2.9l1.5-2Z" fill="#212121"/></svg>