<svg width="24" height="24" fill="none" viewBox="0 0 24 24" xmlns="http://www.w3.org/2000/svg"><path d="M12 5a8 8 0 0 0-5.662 13.652 1 1 0 1 1-1.416 1.413A9.972 9.972 0 0 1 2 13C2 7.477 6.477 3 12 3s10 4.477 10 10a9.972 9.972 0 0 1-2.922 7.065 1 1 0 0 1-1.416-1.413A8 8 0 0 0 12 5Z" fill="#212121"/><path d="M12 11a2 2 0 1 0 0 4 2 2 0 0 0 0-4Z" fill="#212121"/><path d="M8 13a4 4 0 1 1 6.828 2.828 1 1 0 0 0 1.415 1.415 6 6 0 1 0-8.485 0 1 1 0 1 0 1.414-1.415A3.984 3.984 0 0 1 8 13Z" fill="#212121"/></svg>