<svg width="24" height="24" fill="none" viewBox="0 0 24 24" xmlns="http://www.w3.org/2000/svg"><path d="M23 6.5a5.5 5.5 0 1 1-11 0 5.5 5.5 0 0 1 11 0Zm-7.146-2.354a.5.5 0 0 0-.708.708L16.793 6.5l-1.647 1.646a.5.5 0 0 0 .708.708L17.5 7.207l1.646 1.647a.5.5 0 0 0 .708-.708L18.207 6.5l1.647-1.646a.5.5 0 0 0-.708-.708L17.5 5.793l-1.646-1.647Zm2.641 15.598v-6.82a6.454 6.454 0 0 0 1.5-.42v7.24a2.25 2.25 0 0 1-2.096 2.245l-.154.005h-11.5A2.25 2.25 0 0 1 4 19.898l-.005-.154V4.246A2.25 2.25 0 0 1 6.091 2l.154-.005h6.569a6.52 6.52 0 0 0-1.08 1.5H6.246a.75.75 0 0 0-.743.648l-.007.102v15.498c0 .38.282.693.648.743l.102.007h11.5a.75.75 0 0 0 .743-.648l.007-.102ZM8.5 16a1.5 1.5 0 0 0 0 3h7a1.5 1.5 0 1 0 0-3h-7Z" fill="#212121"/></svg>