<svg width="24" height="24" fill="none" viewBox="0 0 24 24" xmlns="http://www.w3.org/2000/svg"><path d="M2 6.75A2.75 2.75 0 0 1 4.75 4h14.5A2.75 2.75 0 0 1 22 6.75v7.75c0-1.73-1.383-3.5-3.5-3.5-2.115 0-3.5 1.759-3.5 3.5v1.585a1.5 1.5 0 0 0-2 1.415c0 .92.278 1.77.753 2.5H4.75A2.75 2.75 0 0 1 2 17.25V6.75ZM6.75 8a.75.75 0 0 0 0 1.5h4.5a.75.75 0 0 0 0-1.5h-4.5Zm0 3a.75.75 0 0 0 0 1.5h6.5a.75.75 0 0 0 0-1.5h-6.5ZM6 14.75c0 .414.336.75.75.75h5.5a.75.75 0 0 0 0-1.5h-5.5a.75.75 0 0 0-.75.75Z" fill="#212121"/><path d="M15 17.5c0 1.085.603 1.978 1.521 2.5.563.32 1.245.5 1.979.5 1.933 0 3.5-1.25 3.5-3a.5.5 0 0 1 1 0c0 2-1.75 3.724-4 3.973V22.5a.5.5 0 0 1-1 0v-1.027c-1.199-.133-2.256-.684-2.982-1.473-.636-.692-1.018-1.566-1.018-2.5a.5.5 0 0 1 1 0Z" fill="#212121"/><path d="M16 14.5c0-1.254 1-2.5 2.5-2.5s2.5 1.254 2.5 2.5V17c0 1.246-1 2.5-2.5 2.5S16 18.252 16 17v-2.5Z" fill="#212121"/></svg>