<svg width="24" height="24" fill="none" viewBox="0 0 24 24" xmlns="http://www.w3.org/2000/svg"><path d="M5.5 17H4.25A2.25 2.25 0 0 1 2 14.75v-9A2.75 2.75 0 0 1 4.75 3h12A2.25 2.25 0 0 1 19 5.25V6.5h.75A2.25 2.25 0 0 1 22 8.75v9.5a2.25 2.25 0 0 1-2.25 2.25h-12a2.25 2.25 0 0 1-2.25-2.25V17Zm-2-11.25v9c0 .414.336.75.75.75H5.5V8.75A2.25 2.25 0 0 1 7.75 6.5h9.75V5.25a.75.75 0 0 0-.75-.75h-12c-.69 0-1.25.56-1.25 1.25Zm3.5 3v9.5c0 .414.336.75.75.75h12a.75.75 0 0 0 .75-.75v-9.5a.75.75 0 0 0-.75-.75h-12a.75.75 0 0 0-.75.75Z" fill="#212121"/></svg>