<svg width="24" height="24" fill="none" viewBox="0 0 24 24" xmlns="http://www.w3.org/2000/svg"><path d="M13.848 11.499H19.5a1 1 0 1 1 0 2h-2.387a4.03 4.03 0 0 1 .999 2.683c0 2.929-3.28 4.914-7.033 4.478-2.328-.27-3.965-1.219-4.827-2.832-.26-.487-.207-1.015.248-1.33.455-.316 1.256-.1 1.516.388.533.997 1.604 1.591 3.293 1.788 2.587.3 4.803-.91 4.803-2.492 0-1.098-.548-1.939-2.107-2.684H5a1 1 0 1 1 0-2H13.848ZM6.987 9.694a5.12 5.12 0 0 1-.298-.51c-.3-.59-.468-1.214-.435-1.835.16-2.964 2.934-4.712 6.602-4.285 2.26.262 3.989 1.083 5.147 2.486.351.426.272 1.048-.154 1.4-.425.35-1.048.325-1.4-.1-.812-.985-2.067-1.596-3.824-1.8-2.56-.298-4.371.718-4.371 2.323 0 .713.239 1.22.761 1.81.226.253.647.525 1.266.814H7.192c-.111-.163-.18-.264-.205-.303Z" fill="#212121"/></svg>