<svg width="24" height="24" fill="none" viewBox="0 0 24 24" xmlns="http://www.w3.org/2000/svg"><path d="M15.444 4.952a.5.5 0 0 0-.727-.163l-.386.275a1 1 0 0 1-1.162-1.628l.385-.275a2.5 2.5 0 0 1 3.636.816l.508.91 1.595-1.594a1 1 0 1 1 1.414 1.414l-1.996 1.996.793 1.421a.5.5 0 0 0 .752.145l.364-.296a1 1 0 0 1 1.26 1.554l-.364.295a2.5 2.5 0 0 1-3.759-.723l-.516-.926-1.534 1.534a1 1 0 0 1-1.414-1.414l1.935-1.935-.784-1.406Zm-7.048 9.185c-1.416.277-3.002.346-4.53.36-.273 1.11-.16 1.898.098 2.43.302.623.884 1.064 1.708 1.27 1.698.423 4.174-.25 5.826-2.135a1 1 0 0 1 1.504 1.319c-2.098 2.393-5.32 3.378-7.815 2.756-1.273-.318-2.411-1.076-3.023-2.338-.607-1.253-.612-2.829.011-4.626.84-2.424 2.118-3.941 3.406-4.886A8.161 8.161 0 0 1 8.8 6.87c1.626-.333 3.085.125 3.9 1.195.828 1.087.801 2.567-.092 3.787-.98 1.338-2.58 1.967-4.21 2.285Zm.805-5.307A6.162 6.162 0 0 0 6.764 9.9c-.721.528-1.49 1.333-2.13 2.584 1.207-.03 2.36-.11 3.38-.31 1.455-.284 2.445-.774 2.98-1.503.43-.59.345-1.09.114-1.394-.245-.32-.848-.664-1.907-.447Z" fill="#212121"/></svg>