<svg width="24" height="24" fill="none" viewBox="0 0 24 24" xmlns="http://www.w3.org/2000/svg"><path d="M15 4.249a1.25 1.25 0 0 0-2.057-.955L7.975 7.498H4.25A2.25 2.25 0 0 0 2 9.748v4.5a2.25 2.25 0 0 0 2.25 2.25h3.725l4.967 4.206A1.25 1.25 0 0 0 15 19.75V4.25ZM16.499 8.25a.75.75 0 0 1 .75-.75h3.503a.75.75 0 0 1 .75.75v1.797a.75.75 0 0 1 .498.707v5a.75.75 0 0 1-.75.75h-.236v2.746a.75.75 0 0 1-1.5 0v-2.746h-.982v2.746a.75.75 0 0 1-1.5 0v-2.746h-.282a.75.75 0 0 1-.75-.75v-5a.75.75 0 0 1 .499-.707V8.25Zm4.001 3.254h-3v3.5h3v-3.5ZM17.999 9v1h2.003V9h-2.003Z" fill="#212121"/></svg>