<svg width="24" height="24" fill="none" viewBox="0 0 24 24" xmlns="http://www.w3.org/2000/svg"><path d="M14.534 17.553a.75.75 0 1 1 0 1.5.75.75 0 0 1 0-1.5ZM12 4c3.169 0 4.966 2.098 5.227 4.63h.08A3.687 3.687 0 0 1 21 12.314a3.687 3.687 0 0 1-3.693 3.683H16a.75.75 0 0 1-1.432 0h-5.58l-1.583 2.628a.75.75 0 0 1-1.344-.658l.045-.092 1.15-1.878h-.563A3.687 3.687 0 0 1 3 12.313a3.687 3.687 0 0 1 3.692-3.682h.08C7.036 6.08 8.832 4 12 4Zm-.422 12.704a.75.75 0 0 1 .32.933l-.046.092-.556.896a.75.75 0 0 1-1.344-.659l.045-.091.556-.896a.75.75 0 0 1 1.025-.275Zm5.455.099a.75.75 0 1 1 0 1.5.75.75 0 0 1 0-1.5Z" fill="#212121"/></svg>