<svg width="24" height="24" fill="none" viewBox="0 0 24 24" xmlns="http://www.w3.org/2000/svg"><path d="M13.409 2.512a3.75 3.75 0 0 0-2.818 0l-7.498 3.04A1.75 1.75 0 0 0 2 7.174v9.652a1.75 1.75 0 0 0 1.093 1.622l7.498 3.04c.135.055.273.102.412.14A2.589 2.589 0 0 1 11 21.5v-1.465l-7.344-2.977a.25.25 0 0 1-.156-.232V7.75l7.75 3.014v4.645a2.508 2.508 0 0 1 1.5-1.294v-3.35l7.75-2.992v3.778a2.75 2.75 0 0 1 1.5 2.438V7.174a1.75 1.75 0 0 0-1.093-1.622l-7.498-3.04Zm-2.254 1.39a2.25 2.25 0 0 1 1.69 0l6.593 2.673-2.67 1.03-7.527-2.927 1.914-.776ZM7.215 5.5l7.477 2.908-2.69 1.039L4.59 6.564l2.625-1.065ZM14 15h-.5a1.5 1.5 0 0 0-1.5 1.5V18h2.5v-.25a.75.75 0 0 1 1.5 0V18h3v-.25a.75.75 0 0 1 1.5 0V18H23v-1.5a1.5 1.5 0 0 0-1.5-1.5H21v-1a1.75 1.75 0 0 0-1.75-1.75h-3.5A1.75 1.75 0 0 0 14 14v1Zm1.5-1a.25.25 0 0 1 .25-.25h3.5a.25.25 0 0 1 .25.25v1h-4v-1ZM12 21.5v-2h2.5v.75a.75.75 0 0 0 1.5 0v-.75h3v.75a.75.75 0 0 0 1.5 0v-.75H23v2a1.5 1.5 0 0 1-1.5 1.5h-8a1.5 1.5 0 0 1-1.5-1.5Z" fill="#212121"/></svg>