<svg width="24" height="24" fill="none" viewBox="0 0 24 24" xmlns="http://www.w3.org/2000/svg"><path d="M11.25 13.75a.75.75 0 0 1 .072.976l-.072.084-1.971 1.97a.75.75 0 0 1-.977.073l-.084-.073-1.97-1.97a.75.75 0 0 1 .977-1.133l.085.072.69.691V7.75a.75.75 0 0 1 .647-.743l.102-.007a.75.75 0 0 1 .743.648l.007.102v6.69l.69-.69a.75.75 0 0 1 .976-.072l.085.072ZM1.999 12c0 5.522 4.477 10 10 10s10-4.478 10-10c0-5.524-4.477-10-10-10s-10 4.476-10 10Zm15.666 1.677.085.072a.75.75 0 0 1 .072.977l-.072.084-1.971 1.97a.75.75 0 0 1-.977.073l-.084-.073-1.97-1.97a.75.75 0 0 1 .978-1.133l.084.072.69.691V7.75a.75.75 0 0 1 .647-.743l.102-.007a.75.75 0 0 1 .743.648l.007.102v6.69l.69-.69a.75.75 0 0 1 .976-.072Z" fill="#212121"/></svg>