<svg width="24" height="24" fill="none" viewBox="0 0 24 24" xmlns="http://www.w3.org/2000/svg"><path d="M5 6.25A2.25 2.25 0 0 1 7.25 4h8.5A2.25 2.25 0 0 1 18 6.25V14h3.5v3.25a3.25 3.25 0 0 1-3.25 3.25H13V19h3.5V6.25a.75.75 0 0 0-.75-.75h-8.5a.75.75 0 0 0-.75.75V14H5V6.25ZM18 19h.25A1.75 1.75 0 0 0 20 17.25V15.5h-2V19Zm-3.75-2.5H13a2.49 2.49 0 0 0-.5-1.5h1.75a.75.75 0 0 1 0 1.5ZM8 8.75A.75.75 0 0 1 8.75 8h5.5a.75.75 0 0 1 0 1.5h-5.5A.75.75 0 0 1 8 8.75Zm0 3.5a.75.75 0 0 1 .75-.75h5.5a.75.75 0 0 1 0 1.5h-5.5a.75.75 0 0 1-.75-.75ZM1 16.5A1.5 1.5 0 0 1 2.5 15h8a1.5 1.5 0 0 1 1.5 1.5v4a1.5 1.5 0 0 1-1.5 1.5h-8A1.5 1.5 0 0 1 1 20.5v-4Zm10 .5a1 1 0 0 1-1-1H9a2 2 0 0 0 2 2v-1Zm0 2a2 2 0 0 0-2 2h1a1 1 0 0 1 1-1v-1Zm-8-3a1 1 0 0 1-1 1v1a2 2 0 0 0 2-2H3Zm1 5a2 2 0 0 0-2-2v1a1 1 0 0 1 1 1h1Zm4.25-2.5a1.75 1.75 0 1 0-3.5 0 1.75 1.75 0 0 0 3.5 0Z" fill="#212121"/></svg>