<svg width="24" height="24" fill="none" viewBox="0 0 24 24" xmlns="http://www.w3.org/2000/svg"><path d="M6.162 10.245a.75.75 0 0 0 .836-.668 1.383 1.383 0 0 1 .23-.507c.182-.247.55-.57 1.389-.57.776 0 1.285.239 1.572.558.28.31.451.811.322 1.565-.073.425-.282.675-.638.897-.299.187-.632.317-1.043.477-.167.066-.347.136-.543.217-.62.257-1.34.608-1.891 1.252-.571.667-.896 1.564-.896 2.784a.75.75 0 0 0 .75.75h5a.75.75 0 0 0 0-1.5H7.062c.09-.492.27-.82.473-1.058.312-.364.754-.605 1.326-.842.122-.05.256-.103.397-.158.454-.177.982-.382 1.41-.65.627-.391 1.16-.973 1.321-1.915.189-1.096-.03-2.095-.685-2.822C10.658 7.336 9.691 7 8.617 7c-1.32 0-2.135.552-2.597 1.18a2.883 2.883 0 0 0-.508 1.182 1.525 1.525 0 0 0-.004.03l-.002.01v.008c0 .002-.047.388 0 .001a.75.75 0 0 0 .656.834Zm8.119 1.975a.75.75 0 0 0-1.061 1.06l1.22 1.22-1.22 1.22a.75.75 0 1 0 1.06 1.06l1.22-1.22 1.22 1.22a.75.75 0 1 0 1.06-1.06l-1.22-1.22 1.22-1.22a.75.75 0 0 0-1.06-1.06l-1.22 1.22-1.22-1.22Z" fill="#212121"/></svg>