<svg width="24" height="24" fill="none" viewBox="0 0 24 24" xmlns="http://www.w3.org/2000/svg"><path d="m18.01 12.245.504-1.187c.236-.556.801-.86 1.356-.744l.118.031.63.202c.626.2 1.104.735 1.259 1.407.367 1.598-.074 3.543-1.322 5.836-1.247 2.289-2.614 3.665-4.1 4.129a1.76 1.76 0 0 1-1.663-.342l-.124-.114-.478-.48a1.36 1.36 0 0 1-.223-1.59l.071-.117.722-1.06c.283-.417.77-.614 1.237-.515l.127.035 1.332.444a5.08 5.08 0 0 0 1.33-1.519 4.799 4.799 0 0 0 .596-1.59l.038-.27-1.109-1.052a1.354 1.354 0 0 1-.348-1.373l.047-.131.504-1.187-.503 1.187ZM19.745 4a2.25 2.25 0 0 1 2.25 2.25l.001 3.979a2.821 2.821 0 0 0-.874-.562l-.2-.073-.427-.137V6.25a.75.75 0 0 0-.75-.75H4.25a.75.75 0 0 0-.75.75v11.505c0 .414.336.75.75.75l2.749-.001L7 15.75a1.75 1.75 0 0 1 1.606-1.744L8.75 14h6.495a1.75 1.75 0 0 1 1.744 1.607l.006.143-.001 1.222-.554-.185-.166-.048a2.151 2.151 0 0 0-.78-.047v-.942a.25.25 0 0 0-.192-.243l-.057-.007H8.75a.25.25 0 0 0-.243.193l-.007.057-.001 2.754h4.854l-.142.21-.098.156c-.2.352-.302.744-.307 1.134H4.25A2.25 2.25 0 0 1 2 17.755V6.25A2.25 2.25 0 0 1 4.25 4h15.495ZM12 7a3 3 0 1 1 0 6 3 3 0 0 1 0-6Zm0 1.5a1.5 1.5 0 1 0 0 3 1.5 1.5 0 0 0 0-3Z" fill="#212121"/></svg>