<svg width="24" height="24" fill="none" viewBox="0 0 24 24" xmlns="http://www.w3.org/2000/svg"><path d="M23 6.5a5.5 5.5 0 1 1-11 0 5.5 5.5 0 0 1 11 0ZM18.529 3h-1.433a.5.5 0 0 0-.468.324l-1.125 3a.5.5 0 0 0 .469.676h.778l-.773 2.317a.518.518 0 0 0 .926.447l2.625-4.039A.47.47 0 0 0 19.135 5H18.5l.497-1.325A.5.5 0 0 0 18.529 3ZM17.5 13a6.478 6.478 0 0 0 4.5-1.81v3.56a3.25 3.25 0 0 1-3.25 3.249h-5.785l-5.387 3.817A1 1 0 0 1 6 21V18h-.75A3.25 3.25 0 0 1 2 14.749v-8.5A3.25 3.25 0 0 1 5.25 3h6.772A6.5 6.5 0 0 0 17.5 13Z" fill="#212121"/></svg>