<svg width="24" height="24" fill="none" viewBox="0 0 24 24" xmlns="http://www.w3.org/2000/svg"><path d="M2.5 12a.75.75 0 0 1 .75-.75h1.5a.75.75 0 0 1 0 1.5h-1.5A.75.75 0 0 1 2.5 12ZM6.5 12a.75.75 0 0 1 .75-.75h1.5a.75.75 0 0 1 0 1.5h-1.5A.75.75 0 0 1 6.5 12ZM10.5 12a.75.75 0 0 1 .75-.75h1.5a.75.75 0 0 1 0 1.5h-1.5a.75.75 0 0 1-.75-.75ZM14.5 12a.75.75 0 0 1 .75-.75h1.5a.75.75 0 0 1 0 1.5h-1.5a.75.75 0 0 1-.75-.75ZM18.5 12a.75.75 0 0 1 .75-.75h1.5a.75.75 0 0 1 0 1.5h-1.5a.75.75 0 0 1-.75-.75ZM5 2a1 1 0 0 0-1 1v4a2 2 0 0 0 2 2h12a2 2 0 0 0 2-2V3a1 1 0 0 0-1-1H5ZM19 22a1 1 0 0 0 1-1v-4a2 2 0 0 0-2-2H6a2 2 0 0 0-2 2v4a1 1 0 0 0 1 1h14Z" fill="#212121"/></svg>