<svg width="24" height="24" fill="none" viewBox="0 0 24 24" xmlns="http://www.w3.org/2000/svg"><path d="M20.25 4.5a.75.75 0 0 0 0-1.5H3.75a.75.75 0 0 0 0 1.5h16.5ZM20.78 9.72c.141.14.22.331.22.53v4.25h-5v-5h4.25a.75.75 0 0 1 .53.22ZM14.5 14.5v-4.018c-.25.036-.506.018-.75-.054v.822a1.75 1.75 0 1 1-3.5 0v-.822c-.244.072-.5.09-.75.054V14.5h5ZM9.5 16h5v5h-5v-5ZM8 14.5v-5H3.75a.75.75 0 0 0-.75.75v4.25h5ZM3 16h5v5H6.25A3.25 3.25 0 0 1 3 17.75V16ZM16 16h5v1.75A3.25 3.25 0 0 1 17.75 21H16v-5Z" fill="#212121"/><path d="M14.81 9.248a.75.75 0 0 1-1.058.063l-1.002-.89v2.829a.75.75 0 0 1-1.5 0V8.42l-1.002.89a.75.75 0 0 1-.996-1.12l2.25-2a.75.75 0 0 1 .996 0l2.25 2a.75.75 0 0 1 .063 1.058Z" fill="#212121"/></svg>