<svg width="24" height="24" fill="none" viewBox="0 0 24 24" xmlns="http://www.w3.org/2000/svg"><path d="M13.28 2.975a2 2 0 0 1-1.441 2.497l-.584.144a5.729 5.729 0 0 0 .006 1.807l.54.13a2 2 0 0 1 1.45 2.51l-.186.632c.439.386.94.699 1.484.921l.493-.518a2 2 0 0 1 2.9 0l.499.525a5.282 5.282 0 0 0 1.483-.913l-.198-.686a2 2 0 0 1 1.441-2.496l.584-.144a5.717 5.717 0 0 0-.006-1.808l-.54-.13a2 2 0 0 1-1.45-2.51l.187-.63a5.282 5.282 0 0 0-1.485-.923l-.493.519a2 2 0 0 1-2.9 0l-.499-.526c-.543.22-1.043.53-1.483.913l.198.686ZM16.503 8c-.8 0-1.45-.672-1.45-1.5 0-.829.65-1.5 1.45-1.5.8 0 1.45.671 1.45 1.5 0 .828-.65 1.5-1.45 1.5Zm-6.501-1.5c0-.168.006-.334.018-.499H3.75A1.75 1.75 0 0 0 2 7.751v12.495c0 .967.784 1.75 1.75 1.75h7.499v.003h9a1.75 1.75 0 0 0 1.75-1.75L22 9.972a6.533 6.533 0 0 1-1.5 1.655l-.001 8.621a.25.25 0 0 1-.25.25h-7.5v-8.69a6.536 6.536 0 0 1-1.5-1.48v10.168H3.75a.25.25 0 0 1-.25-.25V7.751a.25.25 0 0 1 .25-.25h6.328a6.54 6.54 0 0 1-.076-1.001Zm6.99 11.75a.75.75 0 0 0-.75-.75h-1.5l-.103.007A.75.75 0 0 0 14.742 19h1.5l.102-.007a.75.75 0 0 0 .649-.743Zm-6.997 0a.75.75 0 0 0-.75-.75H7.741l-.101.007A.75.75 0 0 0 7.742 19h1.502l.102-.007a.75.75 0 0 0 .649-.743Z" fill="#212121"/></svg>