<svg width="24" height="24" fill="none" viewBox="0 0 24 24" xmlns="http://www.w3.org/2000/svg"><path d="M21.998 4.75a2.25 2.25 0 0 0-2.25-2.25H4.252a2.25 2.25 0 0 0-2.25 2.25v9.505a2.25 2.25 0 0 0 2.25 2.25H11V18h.003v.586l-.415-.414-.094-.084a1 1 0 0 0-1.32 1.498l2.121 2.121.094.083a.997.997 0 0 0 .554.208h.118l.118-.014a.996.996 0 0 0 .53-.277l2.122-2.121.083-.094a1 1 0 0 0-.083-1.32l-.095-.084a1 1 0 0 0-1.32.084l-.413.414v-2.081h6.745a2.25 2.25 0 0 0 2.25-2.25V4.75ZM6.752 12h10.5l.102.007a.75.75 0 0 1 0 1.486l-.102.007h-10.5l-.101-.007a.75.75 0 0 1 0-1.486L6.752 12Zm8.75-2.5a1 1 0 1 1 2 0 1 1 0 0 1-2 0Zm-2.995 0a1 1 0 1 1 2 0 1 1 0 0 1-2 0Zm-3 0a1 1 0 1 1 2 0 1 1 0 0 1-2 0Zm-3 0a1 1 0 1 1 2 0 1 1 0 0 1-2 0Zm-1.505-3a1 1 0 1 1 2 0 1 1 0 0 1-2 0Zm2.995 0a1 1 0 1 1 2 0 1 1 0 0 1-2 0Zm3 0a1 1 0 1 1 2 0 1 1 0 0 1-2 0Zm3 0a1 1 0 1 1 2 0 1 1 0 0 1-2 0Zm3 0a1 1 0 1 1 2 0 1 1 0 0 1-2 0Z" fill="#212121"/></svg>