<svg width="24" height="24" fill="none" viewBox="0 0 24 24" xmlns="http://www.w3.org/2000/svg"><path d="M21 11.978a6.5 6.5 0 0 1-8.298-9.864 2.25 2.25 0 0 0-2.153.419L3.8 8.227A2.25 2.25 0 0 0 3 9.947v9.803c0 .966.784 1.75 1.75 1.75h3a1.75 1.75 0 0 0 1.75-1.75v-5a.75.75 0 0 1 .75-.75h3.5a.75.75 0 0 1 .75.75v5c0 .966.784 1.75 1.75 1.75h3A1.75 1.75 0 0 0 21 19.75v-7.772Z" fill="#212121"/><path d="M17.5 1a5.5 5.5 0 1 1 0 11 5.5 5.5 0 0 1 0-11Zm.501 8.504V7h2.502a.5.5 0 1 0 0-1H18V3.5a.5.5 0 0 0-1 0V6h-2.504a.5.5 0 0 0 0 1h2.505v2.504a.5.5 0 0 0 1 0Z" fill="#212121"/></svg>