<svg width="24" height="24" fill="none" viewBox="0 0 24 24" xmlns="http://www.w3.org/2000/svg"><path d="M12 2.25a.75.75 0 0 0-1.5 0V3.5a2.24 2.24 0 0 0-.841.53L2.78 10.91a2.25 2.25 0 0 0 0 3.182L7.66 18.97a2.25 2.25 0 0 0 3.182 0l6.879-6.879a2.25 2.25 0 0 0 0-3.182L12.84 4.03A2.24 2.24 0 0 0 12 3.5V2.25Zm-1.5 3.06v1.44a.75.75 0 0 0 1.5 0V5.31l4.659 4.66a.75.75 0 0 1 0 1.06l-.97.97H3.812l.029-.03L10.5 5.31ZM19.521 13.602a.874.874 0 0 0-1.542 0l-2.008 3.766C14.85 19.466 16.372 22 18.75 22s3.898-2.534 2.78-4.632l-2.009-3.766Z" fill="#212121"/></svg>