<svg width="24" height="24" fill="none" viewBox="0 0 24 24" xmlns="http://www.w3.org/2000/svg"><path d="M15 16H6.5a1 1 0 0 0-.117 1.993L6.5 18H15a1 1 0 0 0 .117-1.993L15 16H6.5 15Zm6.707-4.707-2-2a1 1 0 0 0-1.497 1.32l.083.094L19.586 12l-1.293 1.293a1 1 0 0 0 1.32 1.497l.094-.083 2-2a1 1 0 0 0 .083-1.32l-.083-.094-2-2 2 2ZM15 11l-11.5-.001a1 1 0 0 0-.117 1.993L3.5 13 15 13a1 1 0 0 0 .117-1.993L15 11l-11.5-.001L15 11Zm0-5H6.5a1 1 0 0 0-.117 1.993L6.5 8H15a1 1 0 0 0 .117-1.993L15 6H6.5 15Z" fill="#212121"/></svg>