<svg width="24" height="24" fill="none" viewBox="0 0 24 24" xmlns="http://www.w3.org/2000/svg"><path d="M6.75 22a.75.75 0 0 1-.102-1.493l.102-.007h1.749v-2.498H4.25a2.25 2.25 0 0 1-2.245-2.096L2 15.752V13h1.5v2.752c0 .38.282.693.648.743l.102.007h15.499a.75.75 0 0 0 .743-.648l.007-.102V13h1.5v2.752a2.25 2.25 0 0 1-2.096 2.245l-.154.005h-4.25V20.5h1.751a.75.75 0 0 1 .102 1.493L17.25 22H6.75Zm7.248-3.998h-4l.001 2.498h4l-.001-2.498ZM3.5 9.5H2V5.25a2.25 2.25 0 0 1 2.096-2.245L4.25 3h15.499a2.25 2.25 0 0 1 2.245 2.095l.005.155V9.5h-1.5V5.25a.75.75 0 0 0-.648-.744l-.102-.006H4.25a.75.75 0 0 0-.743.648L3.5 5.25V9.5Zm6.196-3.029a.75.75 0 0 0-1.38-.028L6.494 10.5H2.75a.75.75 0 0 0 0 1.5h4.23a.75.75 0 0 0 .684-.443L8.96 8.67l2.344 5.858a.75.75 0 0 0 1.342.104l2.657-4.498 1.083 1.546c.14.2.37.32.614.32h4.25a.75.75 0 0 0 0-1.5h-3.86l-1.526-2.18a.75.75 0 0 0-1.26.048l-2.474 4.188L9.696 6.47Z" fill="#212121"/></svg>