<svg width="24" height="24" fill="none" viewBox="0 0 24 24" xmlns="http://www.w3.org/2000/svg"><path d="M2.353 12.573c-.684 1.898-.775 3.874.438 5.099l.234.238a627.894 627.894 0 0 0 3.024 3.039c1.28 1.28 3.304 1.3 5.288.66 2.027-.655 4.25-2.061 6.226-4.037s3.382-4.2 4.037-6.226c.64-1.984.62-4.009-.66-5.289a741.203 741.203 0 0 1-2.891-2.912l-.363-.366-.002.002c-1.225-1.214-3.201-1.124-5.1-.44-1.965.709-4.149 2.143-6.119 4.113-1.97 1.97-3.404 4.154-4.112 6.119ZM17.49 6.87v.003l-.001.004-.002.011-.007.037a8.213 8.213 0 0 1-.137.577c-.104.38-.275.913-.544 1.542a14.34 14.34 0 0 1-3.05 4.485 15.613 15.613 0 0 1-6.185 3.771 9.956 9.956 0 0 1-.6.17l-.038.008-.011.003H6.91l-.003.001s-.749.084-.891-.575a.75.75 0 0 1 .573-.89l.001-.001h.003l.022-.006.099-.025c.09-.023.225-.06.398-.116.348-.109.847-.286 1.437-.553a14.112 14.112 0 0 0 4.138-2.847 12.84 12.84 0 0 0 2.732-4.015c.239-.559.388-1.026.477-1.35a6.758 6.758 0 0 0 .11-.457c.073-.404.446-.707.864-.638a.75.75 0 0 1 .62.861Z" fill="#212121"/></svg>