<svg width="24" height="24" fill="none" viewBox="0 0 24 24" xmlns="http://www.w3.org/2000/svg"><path d="M14.75 16.5c1.308 0 1.818.582 2.205 1.874l.068.237c.183.658.292.854.513.946.259.106.431.091.703-.048l.147-.083c.053-.031.11-.068.176-.111l.663-.452c.616-.405 1.17-.672 1.843-.84a.75.75 0 0 1 .364 1.454 4.03 4.03 0 0 0-1.146.49l-.298.19-.48.329a5.45 5.45 0 0 1-.583.357c-.643.33-1.27.385-1.96.1-.746-.306-1.046-.78-1.327-1.721l-.156-.542c-.181-.59-.305-.68-.732-.68-.31 0-.63.155-1.069.523l-.184.16-.921.876c-1.408 1.324-2.609 1.966-4.328 1.966-1.686 0-3.144-.254-4.368-.768l2.947-.805c.447.049.921.073 1.421.073 1.183 0 2.032-.415 3.087-1.362l.258-.239.532-.511c.236-.227.414-.39.592-.54.684-.573 1.305-.873 2.033-.873Zm4.28-13.53a3.579 3.579 0 0 1 0 5.06l-.288.289c1.151 1.401 1.11 2.886.039 3.96l-2.001 2.002a.75.75 0 0 1-1.06-1.062l1.999-1.999c.485-.486.54-1.09-.04-1.838l-8.617 8.617a2.25 2.25 0 0 1-1 .58l-5.115 1.394a.75.75 0 0 1-.92-.92l1.394-5.116a2.25 2.25 0 0 1 .58-1L13.97 2.97a3.578 3.578 0 0 1 5.061 0Z" fill="#212121"/></svg>