<svg width="24" height="24" fill="none" viewBox="0 0 24 24" xmlns="http://www.w3.org/2000/svg"><path d="m11.256 9 .238-1.5h1.481L12.738 9h-1.482Z" fill="#212121"/><path d="M17.75 2.001a2.25 2.25 0 0 1 2.245 2.096L20 4.25v15.498a2.25 2.25 0 0 1-2.096 2.245l-.154.005H6.25a2.25 2.25 0 0 1-2.245-2.096L4 19.75V4.251a2.25 2.25 0 0 1 2.096-2.245l.154-.005h11.5Zm-5.355 9.16a.75.75 0 1 0 1.482.234l.142-.895h.731a.75.75 0 0 0 0-1.5h-.494l.238-1.5h.756a.75.75 0 0 0 0-1.5h-.519l.162-1.025a.75.75 0 1 0-1.481-.234L13.212 6h-1.48l.161-1.025a.75.75 0 1 0-1.481-.234L10.212 6H9.25a.75.75 0 1 0 0 1.5h.725L9.738 9H8.75a.75.75 0 1 0 0 1.5h.75l-.105.66a.75.75 0 0 0 1.482.235l.142-.895H12.5l-.105.66Z" fill="#212121"/></svg>