<svg width="24" height="24" fill="none" viewBox="0 0 24 24" xmlns="http://www.w3.org/2000/svg"><path d="M3 5.75A.75.75 0 0 1 3.75 5h9.5a.75.75 0 0 1 0 1.5h-9.5A.75.75 0 0 1 3 5.75ZM16 5.75a.75.75 0 0 1 .75-.75h3.5a.75.75 0 0 1 0 1.5h-3.5a.75.75 0 0 1-.75-.75ZM3 9.75A.75.75 0 0 1 3.75 9h9.5a.75.75 0 0 1 0 1.5h-9.5A.75.75 0 0 1 3 9.75ZM16 9.75a.75.75 0 0 1 .75-.75h3.5a.75.75 0 0 1 0 1.5h-3.5a.75.75 0 0 1-.75-.75ZM3 13.75a.75.75 0 0 1 .75-.75h9.5a.75.75 0 0 1 0 1.5h-9.5a.75.75 0 0 1-.75-.75ZM16 13.75a.75.75 0 0 1 .75-.75h3.5a.75.75 0 0 1 0 1.5h-3.5a.75.75 0 0 1-.75-.75ZM3 17.75a.75.75 0 0 1 .75-.75h9.5a.75.75 0 0 1 0 1.5h-9.5a.75.75 0 0 1-.75-.75ZM16 17.75a.75.75 0 0 1 .75-.75h3.5a.75.75 0 0 1 0 1.5h-3.5a.75.75 0 0 1-.75-.75Z" fill="#212121"/></svg>