<svg width="24" height="24" fill="none" viewBox="0 0 24 24" xmlns="http://www.w3.org/2000/svg"><path d="M6.75 18a1 1 0 0 0 1-1V5.415l1.293 1.292a1 1 0 0 0 1.32.083l.094-.083a1 1 0 0 0 .083-1.32l-.083-.094-3-3a1 1 0 0 0-1.32-.083l-.094.083-3 3a1 1 0 0 0 1.32 1.497l.094-.083L5.75 5.415V17a1 1 0 0 0 1 1Zm10.498 0a1 1 0 0 0 1-1V5.416l1.293 1.291a1 1 0 0 0 1.32.083l.094-.083a1 1 0 0 0 .083-1.32l-.083-.094-3-3a1 1 0 0 0-1.32-.083l-.094.083-3 3a1 1 0 0 0 1.32 1.497l.094-.083 1.293-1.293V17a1 1 0 0 0 1 1ZM6.75 22a4.75 4.75 0 0 0 2-9.06l.001 1.749a3.25 3.25 0 1 1-4.001 0V12.94a4.75 4.75 0 0 0 2 9.06Zm10.498 0a4.75 4.75 0 0 0 2-9.06v1.749a3.25 3.25 0 1 1-4.001 0l.001-1.749a4.75 4.75 0 0 0 2 9.06Z" fill="#212121"/></svg>