<svg width="24" height="24" fill="none" viewBox="0 0 24 24" xmlns="http://www.w3.org/2000/svg"><path d="M8.75 2.002a.75.75 0 0 0-.75.75V4h3V2.75a.75.75 0 0 0-.75-.749h-1.5ZM11 5H8v.002H6.75a.75.75 0 0 0-.75.75V7h7V5.75a.75.75 0 0 0-.75-.75H11ZM17 16a1 1 0 1 0 0-2 1 1 0 0 0 0 2ZM18 18a1 1 0 1 1-2 0 1 1 0 0 1 2 0Z" fill="#212121"/><path d="M4 10a2 2 0 0 1 1.965-2h7.07A2 2 0 0 1 15 10v.006a5.75 5.75 0 0 1 5.5 5.744v5a.75.75 0 0 1-.75.75h-8.5v-3a.5.5 0 0 0-.5-.5h-2.5a.5.5 0 0 0-.5.5v3h-3a.75.75 0 0 1-.75-.75V10Zm15 5.75a4.25 4.25 0 0 0-4-4.242V20h4v-4.25ZM12.25 11a1 1 0 1 0-2 0 1 1 0 0 0 2 0Zm-1 4.25a1 1 0 1 0 0-2 1 1 0 0 0 0 2ZM8.75 11a1 1 0 1 0-2 0 1 1 0 0 0 2 0Zm-1 4.25a1 1 0 1 0 0-2 1 1 0 0 0 0 2Z" fill="#212121"/></svg>