<svg width="24" height="24" fill="none" viewBox="0 0 24 24" xmlns="http://www.w3.org/2000/svg"><path d="M8 6a1 1 0 1 1-2 0 1 1 0 0 1 2 0ZM7 10a1 1 0 1 0 0-2 1 1 0 0 0 0 2ZM8 12a1 1 0 1 1-2 0 1 1 0 0 1 2 0ZM8 15a1 1 0 1 1-2 0 1 1 0 0 1 2 0ZM7 19a1 1 0 1 0 0-2 1 1 0 0 0 0 2ZM14 16a1 1 0 1 0 0-2 1 1 0 0 0 0 2ZM17 16a1 1 0 1 0 0-2 1 1 0 0 0 0 2ZM17 13a1 1 0 1 0 0-2 1 1 0 0 0 0 2ZM15 12a1 1 0 1 1-2 0 1 1 0 0 1 2 0ZM17 10a1 1 0 1 0 0-2 1 1 0 0 0 0 2ZM15 9a1 1 0 1 1-2 0 1 1 0 0 1 2 0Z" fill="#212121"/><path d="M14 5v-.75A2.25 2.25 0 0 0 11.75 2h-6.5A2.25 2.25 0 0 0 3 4.25v16.5c0 .414.336.75.75.75h16.5a.75.75 0 0 0 .75-.75V7.25A2.25 2.25 0 0 0 18.75 5H14Zm-9.5-.75a.75.75 0 0 1 .75-.75h6.5a.75.75 0 0 1 .75.75V5h-.25A2.25 2.25 0 0 0 10 7.25V20H4.5V4.25ZM14.5 20v-1.5h2V20h-2Zm3.5-2.25a.75.75 0 0 0-.75-.75h-3.5a.75.75 0 0 0-.75.75V20h-1.5V7.25a.75.75 0 0 1 .75-.75h6.5a.75.75 0 0 1 .75.75V20H18v-2.25Z" fill="#212121"/></svg>