<svg width="24" height="24" fill="none" viewBox="0 0 24 24" xmlns="http://www.w3.org/2000/svg"><path d="M6 7.9a1 1 0 0 0-1.854-.52l-.073.12c-.403.668-.842 1.394-2.087 2.141a1 1 0 0 0 1.029 1.716c.377-.227.703-.457.985-.686V16a1 1 0 1 0 2 0V7.9ZM11 7a1 1 0 0 0-.99.858l-.5 3.5a1 1 0 0 0 1.146 1.13l1.82-.287a1.534 1.534 0 1 1 .24 3.05h-.272c-.44 0-.865-.16-1.195-.452l-.338-.298A1 1 0 1 0 9.588 16l.338.298c.696.614 1.59.952 2.518.952h.271a3.534 3.534 0 1 0-.55-7.026l-.484.076L11.867 9h3.132a1 1 0 0 0 0-2h-4Zm7.707 5.293a1 1 0 1 0-1.414 1.415l.793.793-.793.793a1 1 0 0 0 1.414 1.414l.793-.793.793.793a1 1 0 1 0 1.414-1.414l-.793-.793.793-.793a1 1 0 0 0-1.414-1.415l-.793.793-.793-.793ZM8.5 16.25a.75.75 0 1 1-1.5 0 .75.75 0 0 1 1.5 0Z" fill="#212121"/></svg>