<svg width="24" height="24" fill="none" viewBox="0 0 24 24" xmlns="http://www.w3.org/2000/svg"><path d="M5.25 3A2.25 2.25 0 0 0 3 5.25v13.5A2.25 2.25 0 0 0 5.25 21h13.5A2.25 2.25 0 0 0 21 18.75V5.25A2.25 2.25 0 0 0 18.75 3H5.25Zm3.5 5.25a1 1 0 1 1-2 0 1 1 0 0 1 2 0Zm1.75 0a.75.75 0 0 1 .75-.75h5.5a.75.75 0 0 1 0 1.5h-5.5a.75.75 0 0 1-.75-.75Zm0 3.75a.75.75 0 0 1 .75-.75h5.5a.75.75 0 1 1 0 1.5h-5.5a.75.75 0 0 1-.75-.75Zm.75 3h5.5a.75.75 0 1 1 0 1.5h-5.5a.75.75 0 1 1 0-1.5Zm-3.5-2a1 1 0 1 1 0-2 1 1 0 0 1 0 2Zm1 2.75a1 1 0 1 1-2 0 1 1 0 0 1 2 0Z" fill="#212121"/></svg>