<svg width="24" height="24" fill="none" viewBox="0 0 24 24" xmlns="http://www.w3.org/2000/svg"><path d="M17.744 1.996a2.25 2.25 0 0 1 2.245 2.096l.005.154v15.498A2.25 2.25 0 0 1 17.9 21.99l-.155.005h-11.5A2.25 2.25 0 0 1 4 19.898l-.005-.154V4.246A2.25 2.25 0 0 1 6.09 2.001l.154-.005h11.5Zm0 1.5h-11.5a.75.75 0 0 0-.743.648l-.006.102v15.498c0 .38.282.694.648.743l.102.007h11.5a.75.75 0 0 0 .743-.648l.006-.102V4.246a.75.75 0 0 0-.648-.743l-.102-.007Z" fill="#212121"/><path d="M15.019 12.02a.75.75 0 0 1-.624-.859l.105-.66h-1.481l-.142.895a.75.75 0 0 1-1.482-.235l.105-.66h-.75a.75.75 0 0 1 0-1.5h.987l.238-1.5h-.725a.75.75 0 0 1 0-1.5h.962l.2-1.26a.75.75 0 1 1 1.481.235L13.731 6h1.481l.2-1.259a.75.75 0 1 1 1.481.235L16.731 6h.519a.75.75 0 0 1 0 1.5h-.756L16.256 9h.494a.75.75 0 0 1 0 1.5h-.731l-.142.896a.75.75 0 0 1-.858.623ZM13.494 7.5 13.256 9h1.481l.238-1.5h-1.481Z" fill="#212121"/></svg>