<svg width="24" height="24" fill="none" viewBox="0 0 24 24" xmlns="http://www.w3.org/2000/svg"><path d="M21 7a1 1 0 0 1 .993.883L22 8v8.5a3.5 3.5 0 0 1-3.308 3.495L18.5 20H6.415l.292.293a1 1 0 0 1 .083 1.32l-.083.094a1 1 0 0 1-1.32.083l-.094-.083-2-2-.018-.018a1.004 1.004 0 0 1-.062-.072l.08.09a1.011 1.011 0 0 1-.282-.559A.942.942 0 0 1 3 19.02v-.044c0-.022.002-.043.004-.064L3 19a1.009 1.009 0 0 1 .21-.613c.028-.035.054-.066.083-.094l2-2a1 1 0 0 1 1.497 1.32l-.083.094-.293.293H18.5a1.5 1.5 0 0 0 1.493-1.355L20 16.5V8a1 1 0 0 1 1-1Zm-2.387-4.79.094.083 2 2c.029.028.055.059.08.09l-.08-.09a1.025 1.025 0 0 1 .244.395 1.178 1.178 0 0 1 .038.164.985.985 0 0 1 .01.116L21 5v.025a1 1 0 0 1-.004.06L21 5a1.016 1.016 0 0 1-.146.52 1.08 1.08 0 0 1-.064.093c-.005.007-.007.01-.01.012l-.073.082-2 2a1 1 0 0 1-1.497-1.32l.083-.094.291-.293H5.5a1.5 1.5 0 0 0-1.493 1.356L4 7.5V16a1 1 0 0 1-1.993.117L2 16V7.5a3.5 3.5 0 0 1 3.308-3.495L5.5 4h12.085l-.292-.293a1 1 0 0 1-.083-1.32l.083-.094a1 1 0 0 1 1.32-.083ZM12 8a4 4 0 1 1 0 8 4 4 0 0 1 0-8Z" fill="#212121"/></svg>