<svg width="24" height="24" fill="none" viewBox="0 0 24 24" xmlns="http://www.w3.org/2000/svg"><path d="M12 3c3.168 0 4.966 2.098 5.227 4.63h.08A3.687 3.687 0 0 1 21 11.314a3.687 3.687 0 0 1-3.692 3.683h-.582l-.003.004h-.264a.755.755 0 0 1-.083.166l-1 1.5a.75.75 0 0 1-1.248-.832l.559-.838h-1.83l-.002.004h-.397a.745.745 0 0 1-.083.166l-1 1.5a.75.75 0 1 1-1.248-.832l.56-.838H8.986L8.985 15h-.527a.755.755 0 0 1-.084.166l-1 1.5a.75.75 0 0 1-1.248-.832l.56-.838A3.687 3.687 0 0 1 3 11.313a3.687 3.687 0 0 1 3.693-3.682h.08C7.035 5.08 8.83 3 12 3Zm0 1.498c-2.071 0-3.877 1.634-3.877 3.89 0 .357-.319.637-.684.637h-.69c-1.261 0-2.284 1.002-2.284 2.237s1.023 2.236 2.284 2.236H17.25c1.261 0 2.284-1.001 2.284-2.236 0-1.235-1.023-2.237-2.284-2.237h-.69c-.365 0-.684-.28-.684-.637 0-2.285-1.806-3.89-3.877-3.89Z" fill="#212121"/><path d="M7.126 18.834a.75.75 0 1 0 1.248.832l1-1.5a.75.75 0 0 0-1.248-.832l-1 1.5ZM11.334 19.874a.75.75 0 0 1-.208-1.04l1-1.5a.75.75 0 1 1 1.248.832l-1 1.5a.75.75 0 0 1-1.04.208Z" fill="#212121"/></svg>