<svg width="24" height="24" fill="none" viewBox="0 0 24 24" xmlns="http://www.w3.org/2000/svg"><path d="M12 4.5a8.5 8.5 0 0 0-6.016 14.505.75.75 0 0 1-1.061 1.06A9.971 9.971 0 0 1 2 13C2 7.477 6.477 3 12 3s10 4.477 10 10c0 1.231-.223 2.41-.63 3.5h-.82a3.74 3.74 0 0 0 1.2-2.75 3.74 3.74 0 0 0-1.564-3.048A8.504 8.504 0 0 0 12 4.5Zm2.25 9.25c0-.428.072-.84.205-1.224a2.5 2.5 0 1 0-.192 1.537 3.783 3.783 0 0 1-.013-.313ZM11 13a1 1 0 1 1 2 0 1 1 0 0 1-2 0Zm5.282-2.584c.45-.233.955-.377 1.49-.41a6.5 6.5 0 1 0-10.365 7.592.75.75 0 1 0 1.06-1.06 5 5 0 1 1 7.815-6.12ZM20 11.862A2.745 2.745 0 0 0 18 11a2.75 2.75 0 1 0 2 .862ZM14.5 17.5h-.014A1.5 1.5 0 0 0 13 19v.5c0 .51.124 1.023.363 1.504a4.13 4.13 0 0 0 1.292 1.5c.836.605 1.967.996 3.346.996 3.14 0 5-2.029 5-4V19a1.5 1.5 0 0 0-1.5-1.5h-7Z" fill="#212121"/></svg>