<svg width="24" height="24" fill="none" viewBox="0 0 24 24" xmlns="http://www.w3.org/2000/svg"><path d="M5.843 4.568a8.707 8.707 0 1 1 12.314 12.314l-1.187 1.174c-.875.858-2.01 1.962-3.406 3.312a2.25 2.25 0 0 1-3.128 0l-3.491-3.396c-.439-.431-.806-.794-1.102-1.09a8.707 8.707 0 0 1 0-12.314Zm11.253 1.06A7.207 7.207 0 1 0 6.904 15.822L8.39 17.29a753.98 753.98 0 0 0 3.088 3 .75.75 0 0 0 1.043 0l3.394-3.3c.47-.461.863-.85 1.18-1.168a7.207 7.207 0 0 0 0-10.192ZM12 7.999a3.002 3.002 0 1 1 0 6.004 3.002 3.002 0 0 1 0-6.003Zm0 1.5a1.501 1.501 0 1 0 0 3.004 1.501 1.501 0 0 0 0-3.003Z" fill="#212121"/></svg>