<svg width="24" height="24" fill="none" viewBox="0 0 24 24" xmlns="http://www.w3.org/2000/svg"><path d="m9.97 16.168 4.59-12.512c.306-.834 1.446-.872 1.828-.114l.05.114 5.5 14.997a1 1 0 0 1-1.83.796l-.047-.107-1.41-3.843h-6.306l-1.441 3.92-.041.078-.072.108-.078.09-.085.078-.082.06-.05.031-.085.043-.104.04-.104.029-.133.019-.108.002-.07-.005-.103-.017-.15-.044-.07-.03-.1-.054-.11-.08-.093-.087-.064-.075-.06-.09-.055-.103-.745-1.912H4.655l-.723 1.86a1 1 0 0 1-1.184.605l-.11-.036a1 1 0 0 1-.606-1.183l.036-.111 3.498-8.996c.315-.81 1.421-.849 1.811-.116l.053.116 2.54 6.529 4.59-12.512-4.59 12.511ZM6.498 12.76 5.433 15.5h2.13l-1.065-2.74Zm9-5.856-2.42 6.595h4.838l-2.418-6.595Z" fill="#212121"/></svg>