<svg width="24" height="24" fill="none" viewBox="0 0 24 24" xmlns="http://www.w3.org/2000/svg"><path d="M7.25 2A2.25 2.25 0 0 0 5 4.25v5.286c.26.037.511.103.75.194a3.494 3.494 0 0 1 2.393-.04.75.75 0 0 1 .607-1.19h5.5a.75.75 0 0 1 0 1.5H8.804a3.508 3.508 0 0 1 1.551 2h3.895a.75.75 0 0 1 0 1.5h-3.275c.324.318.525.76.525 1.25v3.75h6.75a3.25 3.25 0 0 0 3.25-3.25V12H18V4.25A2.25 2.25 0 0 0 15.75 2h-8.5Zm11 15H18v-3.5h2v1.75A1.75 1.75 0 0 1 18.25 17ZM8 5.75A.75.75 0 0 1 8.75 5h5.5a.75.75 0 0 1 0 1.5h-5.5A.75.75 0 0 1 8 5.75Zm-7 9a.75.75 0 0 1 .75-.75H2v-1a2.5 2.5 0 0 1 3.75-2.165A2.5 2.5 0 0 1 9.5 13v1h.25a.75.75 0 0 1 .75.75v6A2.25 2.25 0 0 1 8.25 23h-5A2.25 2.25 0 0 1 1 20.75v-6ZM7 13v1h1v-1a1 1 0 0 0-1.2-.98c.129.3.2.632.2.98Zm-1.5 1v-1a1 1 0 0 0-2 0v1h2Z" fill="#212121"/></svg>