<svg width="24" height="24" fill="none" viewBox="0 0 24 24" xmlns="http://www.w3.org/2000/svg"><path d="M10.79 3.103c.495-1.004 1.926-1.004 2.421 0l2.358 4.777 5.272.766c1.108.161 1.55 1.522.749 2.303l-3.816 3.72.901 5.25c.19 1.103-.968 1.944-1.959 1.424l-3.958-2.081a6.5 6.5 0 0 0-9.442-7.43l-.905-.883c-.801-.78-.359-2.142.748-2.303l5.273-.766 2.358-4.777Z" fill="#212121"/><path d="M12 17.5a5.5 5.5 0 1 1-11 0 5.5 5.5 0 0 1 11 0ZM3.5 17a.5.5 0 0 0 0 1h4.793l-1.647 1.646a.5.5 0 0 0 .708.708l2.5-2.5a.5.5 0 0 0 0-.708l-2.5-2.5a.5.5 0 0 0-.708.708L8.293 17H3.5Z" fill="#212121"/></svg>