<svg width="24" height="24" fill="none" viewBox="0 0 24 24" xmlns="http://www.w3.org/2000/svg"><path d="M10.729 2.71a2.25 2.25 0 0 1 3.41.268l.32.441-6.473 6.473-.38-.253a2.25 2.25 0 0 1-.342-3.463l3.465-3.465ZM9.26 10.74l2.56 1.708c.088.058.161.134.217.222l1.234 1.938 6.011-6.012-2.15-1.563a.75.75 0 0 1-.165-.166l-1.614-2.22-6.094 6.094ZM14.364 16.325l-.268-.42 6.415-6.416.51.372a2.25 2.25 0 0 1 .268 3.41l-3.436 3.437a2.25 2.25 0 0 1-3.49-.383ZM9.341 12.298l-6.073 5.958a1.76 1.76 0 1 0 2.476 2.5l6.085-6.085-.79-1.241-1.698-1.132ZM14.75 19a.75.75 0 0 0 0 1.5h-2a.75.75 0 0 0 0 1.5h8.5a.75.75 0 0 0 0-1.5h-2a.75.75 0 0 0 0-1.5h-4.5Z" fill="#212121"/></svg>