<svg width="24" height="24" fill="none" viewBox="0 0 24 24" xmlns="http://www.w3.org/2000/svg"><path d="M19.995 4.097A2.25 2.25 0 0 0 17.75 2H6.25l-.154.005A2.25 2.25 0 0 0 4 4.251v15.498l.005.154A2.25 2.25 0 0 0 6.25 22h7.568l-1.5-1.5H6.25l-.102-.007a.75.75 0 0 1-.648-.743V4.251l.007-.102a.75.75 0 0 1 .743-.648h11.5l.102.007a.75.75 0 0 1 .648.743v11.567l1.159-1.159c.106-.106.22-.2.34-.28V4.25l-.004-.154Z" fill="#212121"/><path d="M16.288 21.999a.692.692 0 0 1-.076 0 .75.75 0 0 1-.493-.219l-2.5-2.502a.75.75 0 0 1 1.062-1.06l1.969 1.971 4.47-4.47a.75.75 0 1 1 1.06 1.061l-5 5a.75.75 0 0 1-.492.219ZM13.841 16.5a2.316 2.316 0 0 0-.182 0h-2.413a.75.75 0 0 1 0-1.5h5.004a.75.75 0 1 1 0 1.5H13.84ZM9 7.752a1 1 0 1 1-2 0 1 1 0 0 1 2 0ZM10.496 7.75a.75.75 0 0 1 .75-.75h5.004a.75.75 0 1 1 0 1.5h-5.004a.75.75 0 0 1-.75-.75ZM11.246 11a.75.75 0 0 0 0 1.5h5.004a.75.75 0 1 0 0-1.5h-5.004ZM8 12.75a1 1 0 1 0 0-2 1 1 0 0 0 0 2ZM9 15.748a1 1 0 1 1-2 0 1 1 0 0 1 2 0Z" fill="#212121"/></svg>