<svg width="24" height="24" fill="none" viewBox="0 0 24 24" xmlns="http://www.w3.org/2000/svg"><path d="M6.087 7.75a5.752 5.752 0 0 1 11.326 0h.087a4 4 0 0 1 3.962 4.552 6.534 6.534 0 0 0-1.597-1.364A2.501 2.501 0 0 0 17.5 9.25h-.756a.75.75 0 0 1-.75-.713 4.25 4.25 0 0 0-8.489 0 .75.75 0 0 1-.749.713H6a2.5 2.5 0 0 0 0 5h4.4a6.458 6.458 0 0 0-.357 1.5H6a4 4 0 0 1 0-8h.087ZM11 16.5a5.5 5.5 0 1 0 11 0 5.5 5.5 0 0 0-11 0Zm8.5-3.5a.5.5 0 0 1 .5.5v2a.5.5 0 0 1-.5.5h-2a.5.5 0 0 1 0-1h1a2.496 2.496 0 0 0-2-1c-.833 0-1.572.407-2.027 1.036a.5.5 0 0 1-.81-.586A3.496 3.496 0 0 1 16.5 13c.98 0 1.865.403 2.5 1.05v-.55a.5.5 0 0 1 .5-.5ZM14 18.95v.55a.5.5 0 0 1-1 0v-2a.5.5 0 0 1 .5-.5h2a.5.5 0 0 1 0 1h-1c.456.608 1.183 1 2 1 .766 0 1.452-.344 1.911-.888a.5.5 0 0 1 .764.645A3.493 3.493 0 0 1 16.5 20a3.49 3.49 0 0 1-2.5-1.05Z" fill="#212121"/></svg>