<svg width="24" height="24" fill="none" viewBox="0 0 24 24" xmlns="http://www.w3.org/2000/svg"><path d="m9.525 3.572.902 2.005a2.75 2.75 0 0 1-.633 3.14L8.3 10.11a.25.25 0 0 0-.078.155c-.044.397.225 1.17.845 2.244.451.782.86 1.33 1.207 1.638.242.214.375.26.432.244l2.01-.615a2.75 2.75 0 0 1 3.035 1.021l1.28 1.775a2.75 2.75 0 0 1-.339 3.606l-.886.84a3.75 3.75 0 0 1-3.587.889c-2.754-.77-5.223-3.093-7.435-6.924-2.215-3.837-2.992-7.141-2.276-9.913A3.75 3.75 0 0 1 4.85 2.487l.206-.07 1.167-.35a2.75 2.75 0 0 1 3.302 1.505Zm-2.869-.07-1.167.352-.158.054a2.25 2.25 0 0 0-1.37 1.537c-.603 2.332.086 5.26 2.122 8.788 2.033 3.522 4.222 5.582 6.54 6.229a2.25 2.25 0 0 0 2.151-.534l.887-.84a1.25 1.25 0 0 0 .154-1.638l-1.28-1.775a1.25 1.25 0 0 0-1.38-.464l-2.015.616c-1.17.349-2.232-.593-3.372-2.568C7 11.93 6.642 10.9 6.731 10.1c.047-.416.24-.801.546-1.086l1.494-1.394a1.25 1.25 0 0 0 .288-1.427l-.902-2.005a1.25 1.25 0 0 0-1.5-.685ZM21.78 2.22a.75.75 0 0 1 0 1.06L18.56 6.5l3.22 3.22a.75.75 0 1 1-1.06 1.06L17.5 7.56l-3.22 3.22a.75.75 0 1 1-1.06-1.06l3.22-3.22-3.22-3.22a.75.75 0 0 1 1.06-1.06l3.22 3.22 3.22-3.22a.75.75 0 0 1 1.06 0Z" fill="#212121"/></svg>