<svg width="24" height="24" fill="none" viewBox="0 0 24 24" xmlns="http://www.w3.org/2000/svg"><path d="M17.25 2A2.75 2.75 0 0 1 20 4.75v6.748a6.452 6.452 0 0 0-1.5-.422V4.75c0-.69-.56-1.25-1.25-1.25H4.75c-.69 0-1.25.56-1.25 1.25v12.5c0 .69.56 1.25 1.25 1.25h6.326c.081.523.224 1.026.422 1.5H4.75A2.75 2.75 0 0 1 2 17.25V4.75A2.75 2.75 0 0 1 4.75 2h12.5ZM9 13.44l6.47-6.47a.75.75 0 0 1 1.133.976l-.073.084-7 7a.75.75 0 0 1-.976.073l-.084-.073-3-3a.75.75 0 0 1 .976-1.133l.084.073L9 13.44Zm14 4.06a5.5 5.5 0 1 1-11 0 5.5 5.5 0 0 1 11 0Zm-8.5-.5a.5.5 0 0 0 0 1h4.793l-1.647 1.646a.5.5 0 0 0 .708.708l2.5-2.5a.5.5 0 0 0 0-.708l-2.5-2.5a.5.5 0 0 0-.708.708L19.293 17H14.5Z" fill="#212121"/></svg>