<svg width="24" height="24" fill="none" viewBox="0 0 24 24" xmlns="http://www.w3.org/2000/svg"><path d="M9.703 2.265A10.026 10.026 0 0 1 12 2c.79 0 1.559.092 2.297.265a.75.75 0 1 1-.343 1.46A8.527 8.527 0 0 0 12 3.5c-.673 0-1.327.078-1.954.225a.75.75 0 1 1-.343-1.46ZM7.773 3.736a.75.75 0 0 1-.242 1.032 8.548 8.548 0 0 0-2.763 2.763.75.75 0 1 1-1.275-.79 10.048 10.048 0 0 1 3.248-3.248.75.75 0 0 1 1.032.243ZM16.227 3.736a.75.75 0 0 1 1.032-.243 10.048 10.048 0 0 1 3.248 3.248.75.75 0 1 1-1.275.79 8.55 8.55 0 0 0-2.763-2.763.75.75 0 0 1-.242-1.032ZM3.167 9.144a.75.75 0 0 1 .558.902A8.527 8.527 0 0 0 3.5 12c0 .673.078 1.327.225 1.954a.75.75 0 1 1-1.46.343A10.026 10.026 0 0 1 2 12c0-.79.092-1.559.265-2.297a.75.75 0 0 1 .902-.559ZM20.833 9.144a.75.75 0 0 1 .902.559C21.908 10.44 22 11.21 22 12c0 .79-.092 1.559-.265 2.297a.75.75 0 1 1-1.46-.343c.147-.627.225-1.28.225-1.954 0-.673-.078-1.327-.226-1.954a.75.75 0 0 1 .559-.902ZM3.736 16.227a.75.75 0 0 1 1.032.242 8.548 8.548 0 0 0 2.763 2.763.75.75 0 0 1-.79 1.275 10.048 10.048 0 0 1-3.248-3.248.75.75 0 0 1 .243-1.032ZM20.42 17.085a.75.75 0 1 0-1.34-.67l-.003.004-.015.029a8.004 8.004 0 0 1-.358.59 9.58 9.58 0 0 1-.965 1.218c-1.17-1.073-2.756-2.006-4.74-2.006-2.347 0-3.99 1.203-3.99 2.875S10.653 22 13 22c1.942 0 3.495-.75 4.658-1.645a11.73 11.73 0 0 1 1.315 2.01c.033.065.058.116.073.149l.017.035.004.009a.75.75 0 0 0 1.368-.615c-.087-.183 0-.001 0-.001v-.002l-.003-.004-.007-.015a11.874 11.874 0 0 0-.464-.87 13.199 13.199 0 0 0-1.189-1.703 11.057 11.057 0 0 0 1.525-2.032l.09-.162.024-.047.007-.014.002-.005.002-.003ZM13 17.75c1.433 0 2.644.652 3.616 1.512-.95.7-2.155 1.238-3.616 1.238-1.973 0-2.49-.922-2.49-1.375 0-.453.517-1.375 2.49-1.375Z" fill="#212121"/></svg>