<svg width="24" height="24" fill="none" viewBox="0 0 24 24" xmlns="http://www.w3.org/2000/svg"><path d="M13.409 2.512a3.75 3.75 0 0 0-2.818 0l-2.19.888 9.592 3.73 3.374-1.303a1.747 1.747 0 0 0-.46-.275l-7.498-3.04ZM22 7.19l-9.25 3.574v3.35c.082-.025.165-.047.25-.064V14a2.75 2.75 0 0 1 2.75-2.75h3.5A2.75 2.75 0 0 1 22 13.988V7.19Zm-10.75 3.574v4.645c-.16.33-.25.7-.25 1.091v5c0 .043.001.086.003.128a3.75 3.75 0 0 1-.412-.14l-7.498-3.04A1.75 1.75 0 0 1 2 16.826V7.19l9.25 3.574ZM2.633 5.827 12 9.446l3.917-1.514-9.543-3.71-3.281 1.33c-.17.069-.324.162-.46.275ZM14 15h-.5a1.5 1.5 0 0 0-1.5 1.5V18h2.5v-.25a.75.75 0 0 1 1.5 0V18h3v-.25a.75.75 0 0 1 1.5 0V18H23v-1.5a1.5 1.5 0 0 0-1.5-1.5H21v-1a1.75 1.75 0 0 0-1.75-1.75h-3.5A1.75 1.75 0 0 0 14 14v1Zm1.5-1a.25.25 0 0 1 .25-.25h3.5a.25.25 0 0 1 .25.25v1h-4v-1ZM12 21.5v-2h2.5v.75a.75.75 0 0 0 1.5 0v-.75h3v.75a.75.75 0 0 0 1.5 0v-.75H23v2a1.5 1.5 0 0 1-1.5 1.5h-8a1.5 1.5 0 0 1-1.5-1.5Z" fill="#212121"/></svg>