<svg width="24" height="24" fill="none" viewBox="0 0 24 24" xmlns="http://www.w3.org/2000/svg"><path d="M5.25 3A2.25 2.25 0 0 0 3 5.25v13.5A2.25 2.25 0 0 0 5.25 21h13.5A2.25 2.25 0 0 0 21 18.75V5.25A2.25 2.25 0 0 0 18.75 3H5.25ZM6.5 14.75a.75.75 0 0 1 .75-.75h3.5a.75.75 0 0 1 0 1.5h-3.5a.75.75 0 0 1-.75-.75Zm.75-6.25h3.5a.75.75 0 0 1 0 1.5h-3.5a.75.75 0 0 1 0-1.5Zm10.53-.78a.75.75 0 0 1 0 1.06l-2 2a.75.75 0 0 1-1.06 0l-1-1a.75.75 0 0 1 1.06-1.06l.47.47 1.47-1.47a.75.75 0 0 1 1.06 0Zm0 6.56-2 2a.75.75 0 0 1-1.06 0l-1-1a.75.75 0 1 1 1.06-1.06l.47.47 1.47-1.47a.75.75 0 1 1 1.06 1.06Z" fill="#212121"/></svg>