<svg width="24" height="24" fill="none" viewBox="0 0 24 24" xmlns="http://www.w3.org/2000/svg"><path d="M6.747 4h3.464a.75.75 0 0 1 .102 1.493l-.102.007H6.747a2.25 2.25 0 0 0-2.245 2.096l-.005.154v9.5a2.25 2.25 0 0 0 2.096 2.245l.154.005h9.5a2.25 2.25 0 0 0 2.245-2.096l.005-.154v-.498a.75.75 0 0 1 1.494-.101l.006.101v.498a3.75 3.75 0 0 1-3.55 3.745l-.2.005h-9.5a3.75 3.75 0 0 1-3.745-3.55l-.005-.2v-9.5a3.75 3.75 0 0 1 3.55-3.745l.2-.005h3.464-3.464ZM14.5 6.544V3.75a.75.75 0 0 1 1.187-.61l.082.069 5.994 5.75c.28.268.306.7.077.997l-.077.085-5.994 5.752a.75.75 0 0 1-1.262-.434l-.007-.107V12.45l-.321-.006c-2.658-.008-4.93 1.083-6.865 3.301-.496.568-1.425.132-1.306-.612.827-5.14 3.6-8.045 8.19-8.559l.302-.03V3.75v2.794Z" fill="#212121"/></svg>