<svg width="24" height="24" fill="none" viewBox="0 0 24 24" xmlns="http://www.w3.org/2000/svg"><path d="M10.788 3.103c.495-1.004 1.926-1.004 2.421 0l2.358 4.777 5.273.766c1.107.161 1.549 1.522.748 2.303l-.905.882a6.462 6.462 0 0 0-1.517-.616l1.157-1.128-5.05-.734a1.35 1.35 0 0 1-1.016-.738l-2.259-4.576L9.74 8.615a1.35 1.35 0 0 1-1.016.738l-5.05.734 3.654 3.562c.318.31.463.757.388 1.195l-.862 5.03 4.149-2.182c.015.542.098 1.068.238 1.57l-3.958 2.08c-.99.521-2.148-.32-1.96-1.423l.901-5.25-3.815-3.72c-.801-.78-.359-2.142.748-2.303L8.43 7.88l2.358-4.777Z" fill="#212121"/><path d="M23 17.5a5.5 5.5 0 1 1-11 0 5.5 5.5 0 0 1 11 0Zm-9.5 0c0 .834.255 1.608.691 2.248l5.557-5.557A4 4 0 0 0 13.5 17.5Zm4 4a4 4 0 0 0 3.309-6.248l-5.557 5.557c.64.436 1.414.691 2.248.691Z" fill="#212121"/></svg>