<svg width="24" height="24" fill="none" viewBox="0 0 24 24" xmlns="http://www.w3.org/2000/svg"><path d="M10.752 20a.75.75 0 1 1 0 1.5.75.75 0 0 1 0-1.5Zm4.5 0a.75.75 0 1 1 0 1.5.75.75 0 0 1 0-1.5Zm-6.75-1a.75.75 0 1 1 0 1.5.75.75 0 0 1 0-1.5Zm4.5 0a.75.75 0 1 1 0 1.5.75.75 0 0 1 0-1.5Zm4.5 0a.75.75 0 1 1 0 1.5.75.75 0 0 1 0-1.5Zm-4.5-12.99c3.169 0 4.966 2.098 5.228 4.63h.08a3.687 3.687 0 0 1 3.692 3.683 3.687 3.687 0 0 1-3.692 3.683H7.694a3.687 3.687 0 0 1-3.692-3.683 3.687 3.687 0 0 1 3.692-3.683h.08c.263-2.549 2.059-4.63 5.227-4.63Zm-8.634 4.156a.75.75 0 0 1-.315.934l-.091.046-.926.383a.75.75 0 0 1-.666-1.34l.092-.045.926-.384a.75.75 0 0 1 .98.406Zm6.487-4.833-.172.057C8.9 6.02 7.621 7.396 7.068 9.213l-.07.25-.058.239-.206.038a4.638 4.638 0 0 0-1.67.715 3.942 3.942 0 0 1 5.791-5.122Zm-7.914.03.106.036.926.383a.75.75 0 0 1-.469 1.421L3.4 7.168l-.926-.384a.75.75 0 0 1 .468-1.42Zm3.815-2.986.046.092.383.926a.75.75 0 0 1-1.34.665l-.046-.091-.383-.926a.75.75 0 0 1 1.34-.666Zm4.354-.318a.75.75 0 0 1 .44.874l-.035.106-.383.926a.75.75 0 0 1-1.42-.469l.034-.105.384-.926a.75.75 0 0 1 .98-.406Z" fill="#212121"/></svg>