<svg width="24" height="24" fill="none" viewBox="0 0 24 24" xmlns="http://www.w3.org/2000/svg"><path d="m9.525 3.572.902 2.006a2.75 2.75 0 0 1-.633 3.139L8.3 10.11a.25.25 0 0 0-.078.155c-.044.397.225 1.17.845 2.245.451.781.86 1.33 1.207 1.637.242.215.375.261.432.245l2.01-.615a2.75 2.75 0 0 1 3.035 1.02l1.28 1.776a2.75 2.75 0 0 1-.339 3.605l-.886.84a3.75 3.75 0 0 1-3.587.889c-2.754-.769-5.223-3.093-7.435-6.924-2.215-3.836-2.992-7.14-2.276-9.913A3.75 3.75 0 0 1 4.85 2.487l.206-.069 1.167-.351a2.75 2.75 0 0 1 3.302 1.505Zm-2.869-.07-1.167.353-.158.054a2.25 2.25 0 0 0-1.37 1.537c-.603 2.331.086 5.26 2.122 8.787 2.033 3.522 4.222 5.582 6.54 6.23a2.25 2.25 0 0 0 2.151-.534l.887-.84a1.25 1.25 0 0 0 .154-1.639l-1.28-1.775a1.25 1.25 0 0 0-1.38-.464l-2.015.617c-1.17.348-2.232-.593-3.372-2.568C7 11.93 6.642 10.9 6.731 10.099c.047-.416.24-.8.546-1.086L8.771 7.62a1.25 1.25 0 0 0 .288-1.427l-.902-2.006a1.25 1.25 0 0 0-1.5-.684ZM20.25 11h-6.554l-.1-.014-.101-.029-.048-.02a.722.722 0 0 1-.34-.296l-.048-.095-.025-.067-.024-.095-.011-.105V3.745a.75.75 0 0 1 1.492-.102l.007.102V8.44l6.22-6.223a.75.75 0 0 1 .977-.073l.084.073a.75.75 0 0 1 .073.976l-.073.084-6.22 6.222 4.69.001a.75.75 0 0 1 .744.648l.007.102a.75.75 0 0 1-.648.743L20.25 11Z" fill="#212121"/></svg>