<svg width="24" height="24" fill="none" viewBox="0 0 24 24" xmlns="http://www.w3.org/2000/svg"><path d="M12.5 2.75a.75.75 0 0 0-1.5 0V3H5.25A3.25 3.25 0 0 0 2 6.25v9.5A3.25 3.25 0 0 0 5.25 19h2.398l-1.475 1.77a.75.75 0 0 0 1.153.96L9.6 19h2.428a4.285 4.285 0 0 1-.029-.5V18c0-.171.017-.338.05-.5h-6.8a1.75 1.75 0 0 1-1.75-1.75v-9.5c0-.966.784-1.75 1.75-1.75h13.5c.966 0 1.75.784 1.75 1.75v3.705A3.74 3.74 0 0 1 21.742 13H22V6.25A3.25 3.25 0 0 0 18.75 3H12.5v-.25ZM20.739 13a2.74 2.74 0 0 0-.239-1.397A2.75 2.75 0 1 0 20.739 13Zm.761 3.5A1.5 1.5 0 0 1 23 18v.5c0 1.971-1.86 4-5 4-2.875 0-4.676-1.7-4.96-3.5a3.21 3.21 0 0 1-.04-.5V18a1.497 1.497 0 0 1 1.5-1.5h7ZM6 7.75A.75.75 0 0 1 6.75 7h4a.75.75 0 0 1 0 1.5h-4A.75.75 0 0 1 6 7.75ZM6.75 10a.75.75 0 0 0 0 1.5h6.5a.75.75 0 0 0 0-1.5h-6.5ZM6 13.75a.75.75 0 0 1 .75-.75h5.5a.75.75 0 0 1 0 1.5h-5.5a.75.75 0 0 1-.75-.75Z" fill="#212121"/></svg>