<svg width="24" height="24" fill="none" viewBox="0 0 24 24" xmlns="http://www.w3.org/2000/svg"><path d="M18.433 12.866c-1.285-.383-2.765-.897-4.16-2.077L13.062 12l6.52 6.521a9.94 9.94 0 0 0 2.153-4.225l-.007-.007a.335.335 0 0 1-.008-.009c-.34-.34-.779-.587-1.339-.804-.436-.168-.901-.304-1.426-.456l-.522-.154ZM18.522 4.418l-4.245 4.246c-.92-1.126-1.35-2.332-1.706-3.526l-.137-.468a19.75 19.75 0 0 0-.512-1.593 6.389 6.389 0 0 0-.515-1.06 9.976 9.976 0 0 1 7.115 2.401ZM19.583 5.479l-4.245 4.245c1.124.92 2.33 1.349 3.524 1.705l.468.137a19.79 19.79 0 0 1 1.593.511c.363.141.721.307 1.06.517a9.976 9.976 0 0 0-2.4-7.115ZM9.72 2.28l-.015-.014A9.94 9.94 0 0 0 5.48 4.418l6.522 6.522 1.21-1.211c-1.18-1.396-1.694-2.876-2.077-4.162l-.154-.522a17.56 17.56 0 0 0-.456-1.426c-.217-.56-.464-.999-.804-1.339ZM2.131 10.388A9.946 9.946 0 0 1 4.42 5.479L10.94 12 9.852 13.09c-1.475-1.193-3.192-1.616-4.663-1.911-.207-.042-.407-.08-.6-.118-.608-.118-1.149-.223-1.645-.367a4.859 4.859 0 0 1-.813-.305ZM2.001 11.962a9.968 9.968 0 0 0 2.418 6.56l4.365-4.365c-1.142-.873-2.498-1.229-3.89-1.509-.178-.036-.36-.07-.542-.106-.623-.12-1.258-.243-1.826-.408a7.577 7.577 0 0 1-.525-.172ZM9.847 15.214 5.48 19.582a9.971 9.971 0 0 0 6.757 2.415 6.15 6.15 0 0 1-.367-.931c-.166-.534-.29-1.125-.41-1.7-.036-.169-.07-.335-.106-.498-.277-1.274-.629-2.533-1.507-3.654ZM13.895 21.82a9.945 9.945 0 0 0 4.627-2.238l-6.521-6.521-1.087 1.087c1.183 1.439 1.608 3.032 1.906 4.401l.119.559c.117.559.22 1.053.363 1.512.157.504.342.896.593 1.2Z" fill="#212121"/></svg>