<svg width="24" height="24" fill="none" viewBox="0 0 24 24" xmlns="http://www.w3.org/2000/svg"><path d="M12 2.005c5.523 0 10 4.477 10 10s-4.477 10-10 10-10-4.477-10-10 4.477-10 10-10Zm0 11.493a5.985 5.985 0 0 0-4.288 1.803.75.75 0 0 0 1.071 1.05A4.485 4.485 0 0 1 12 14.998c1.225 0 2.37.49 3.211 1.347a.75.75 0 1 0 1.07-1.051A5.985 5.985 0 0 0 12 13.498ZM8.219 6.665l-.092-.063A.75.75 0 0 0 7.2 7.76l.081.076L8.538 8.84A1.25 1.25 0 1 0 10.25 10a.749.749 0 0 0 .55-1.26l-.082-.075-2.5-2-.091-.063.092.063Zm8.617.117a.75.75 0 0 0-.963-.18l-.092.063-2.498 2-.082.075a.75.75 0 0 0 .44 1.251l.11.008a1.25 1.25 0 1 0 1.825-1.108l-.113-.051 1.256-1.004.081-.076a.75.75 0 0 0 .035-.978Z" fill="#212121"/></svg>