<svg width="24" height="24" fill="none" viewBox="0 0 24 24" xmlns="http://www.w3.org/2000/svg"><path d="M21.03 2.97a3.578 3.578 0 0 0-5.06 0L14 4.94l-.013-.013a1.75 1.75 0 0 0-2.475 0l-.585.586a1.75 1.75 0 0 0 0 2.474l.012.013-6.78 6.78a2.25 2.25 0 0 0-.659 1.591v.688l-1.28 2.347c-.836 1.533.841 3.21 2.374 2.374l2.347-1.28h.688a2.25 2.25 0 0 0 1.59-.659L16 13.061l.012.012a1.75 1.75 0 0 0 2.475 0l.586-.585a1.75 1.75 0 0 0 0-2.475L19.061 10l1.97-1.97a3.578 3.578 0 0 0 0-5.06Zm-4 1.06a2.078 2.078 0 0 1 2.94 2.94l-2.5 2.5a.75.75 0 0 0 0 1.06l.543.543a.25.25 0 0 1 0 .354l-.586.586a.25.25 0 0 1-.354 0l-5.086-5.086a.25.25 0 0 1 0-.354l.586-.586a.25.25 0 0 1 .354 0l.543.543a.75.75 0 0 0 1.06 0l2.5-2.5ZM14.94 12l-6.78 6.78a.75.75 0 0 1-.531.22H6.75a.75.75 0 0 0-.359.092l-2.515 1.372a.234.234 0 0 1-.159.032.264.264 0 0 1-.138-.075.264.264 0 0 1-.075-.138.234.234 0 0 1 .033-.159l1.372-2.515A.75.75 0 0 0 5 17.25v-.879a.75.75 0 0 1 .22-.53L12 9.061 14.94 12Z" fill="#212121"/></svg>