<svg width="24" height="24" fill="none" viewBox="0 0 24 24" xmlns="http://www.w3.org/2000/svg"><path d="M11.772 3.743a6 6 0 0 1 8.66 8.302l-.19.197-8.8 8.798-.036.03a3.723 3.723 0 0 1-5.489-4.973.764.764 0 0 1 .085-.13l.054-.06.086-.088.142-.148.002.003 7.436-7.454a.75.75 0 0 1 .977-.074l.084.073a.75.75 0 0 1 .074.976l-.073.084-7.594 7.613a2.23 2.23 0 0 0 3.174 3.106l8.832-8.83A4.502 4.502 0 0 0 13 4.644l-.168.16-.013.014-9.536 9.536a.75.75 0 0 1-1.133-.977l.072-.084 9.549-9.55h.002Z" fill="#212121"/></svg>