<svg width="24" height="24" fill="none" viewBox="0 0 24 24" xmlns="http://www.w3.org/2000/svg"><path d="M11 15c0-.35.06-.687.17-1H4.253a2.249 2.249 0 0 0-2.249 2.249v.578c0 .892.319 1.756.899 2.435 1.566 1.834 3.952 2.74 7.098 2.74.397 0 .783-.015 1.156-.044A2.998 2.998 0 0 1 11 21v-.535c-.321.024-.655.036-1 .036-2.738 0-4.704-.746-5.958-2.213a2.25 2.25 0 0 1-.539-1.462v-.577c0-.414.336-.75.75-.75H11V15ZM10 2.005a5 5 0 1 1 0 10 5 5 0 0 1 0-10Zm0 1.5a3.5 3.5 0 1 0 0 7 3.5 3.5 0 0 0 0-7ZM12 15a2 2 0 0 1 2-2h7a2 2 0 0 1 2 2v6a2 2 0 0 1-2 2h-7a2 2 0 0 1-2-2v-6Zm2.5 1a.5.5 0 0 0 0 1h6a.5.5 0 0 0 0-1h-6Zm0 3a.5.5 0 0 0 0 1h6a.5.5 0 0 0 0-1h-6Z" fill="#212121"/></svg>