<svg width="24" height="24" fill="none" viewBox="0 0 24 24" xmlns="http://www.w3.org/2000/svg"><path d="M12 6.5a5.5 5.5 0 1 0-11 0 5.5 5.5 0 0 0 11 0ZM7 7l.001 2.504a.5.5 0 0 1-1 0V7H3.496a.5.5 0 0 1 0-1H6V3.5a.5.5 0 0 1 1 0V6h2.503a.5.5 0 0 1 0 1H7.001Z" fill="#212121"/><path d="M6.5 13a6.5 6.5 0 0 0 5.478-10h5.772A3.25 3.25 0 0 1 21 6.25V13h-4.75A3.25 3.25 0 0 0 13 16.25V21H6.25A3.25 3.25 0 0 1 3 17.75v-5.772A6.47 6.47 0 0 0 6.5 13Z" fill="#212121"/><path d="m20.56 14.5-6.06 6.06v-4.31c0-.966.784-1.75 1.75-1.75h4.31Z" fill="#212121"/></svg>