<svg width="24" height="24" fill="none" viewBox="0 0 24 24" xmlns="http://www.w3.org/2000/svg"><path d="M18 1.999A4 4 0 0 0 18 10c.826 0 1.588-.241 2.222-.666a.5.5 0 0 1 .556.831A4.966 4.966 0 0 1 18 11a5 5 0 1 1 5-5v.75a1.75 1.75 0 0 1-3.198.982A2.5 2.5 0 1 1 19.5 4a.5.5 0 0 1 1 0v2.75a.75.75 0 0 0 1.5 0v-.763a4 4 0 0 0-4-3.987Zm-1.5 4a1.5 1.5 0 1 0 3 0 1.5 1.5 0 0 0-3 0Z" fill="#212121"/><path d="M18 12a5.978 5.978 0 0 0 4-1.528v4.278A3.25 3.25 0 0 1 18.75 18h-5.785l-5.387 3.817A1 1 0 0 1 6 21V18h-.75A3.25 3.25 0 0 1 2 14.75v-8.5A3.25 3.25 0 0 1 5.25 3h7.553A6 6 0 0 0 18 12Z" fill="#212121"/></svg>