<svg width="24" height="24" fill="none" viewBox="0 0 24 24" xmlns="http://www.w3.org/2000/svg"><path d="M17.754 14c1.208 0 2.194.953 2.247 2.148L20 16.25h-7.996v.999l7.975.001a3.751 3.751 0 0 1-.509 1.501l-7.466-.002v1l6.638.002c-1.56 1.506-3.79 2.25-6.642 2.25-3.146 0-5.532-.905-7.098-2.74a3.75 3.75 0 0 1-.898-2.434v-.578a2.249 2.249 0 0 1 2.248-2.25h11.502ZM12 2c1.636 0 3.088.785 4 2h-3.997v.999L16.584 5c.204.468.339.972.391 1.5L12.002 6.5v1l4.973.002a4.968 4.968 0 0 1-.391 1.5l-4.582-.002.001 1.001 3.996.001A5 5 0 1 1 12 2Z" fill="#212121"/></svg>