<svg width="24" height="24" fill="none" viewBox="0 0 24 24" xmlns="http://www.w3.org/2000/svg"><path d="M12 12.75a.75.75 0 1 0 0-1.5.75.75 0 0 0 0 1.5ZM10.25 12a.75.75 0 1 1-1.5 0 .75.75 0 0 1 1.5 0Zm4.25.75a.75.75 0 1 0 0-1.5.75.75 0 0 0 0 1.5Zm-1.75 1.75a.75.75 0 1 1-1.5 0 .75.75 0 0 1 1.5 0ZM12 10.25a.75.75 0 1 0 0-1.5.75.75 0 0 0 0 1.5Zm-8.762 8.048a3.25 3.25 0 0 1 0-4.596L13.702 3.237a3.25 3.25 0 0 1 4.596 0l2.465 2.465a3.25 3.25 0 0 1 0 4.596L10.298 20.763a3.25 3.25 0 0 1-4.596 0l-2.464-2.465Zm1.06-3.535a1.75 1.75 0 0 0 0 2.474l2.465 2.465a1.75 1.75 0 0 0 2.475 0L10.939 18 6 13.06l-1.7 1.703ZM16.94 12 12 7.06 7.062 12 12 16.94 16.94 12ZM18 10.94l1.703-1.703a1.75 1.75 0 0 0 0-2.474l-2.465-2.465a1.75 1.75 0 0 0-2.474 0L13.06 6 18 10.94Zm-7.767-5.647-.995-.995a1.75 1.75 0 0 0-2.475 0L4.298 6.763a1.75 1.75 0 0 0 0 2.475l.995.994-1.06 1.061-.996-.995a3.25 3.25 0 0 1 0-4.596l2.465-2.464a3.25 3.25 0 0 1 4.596 0l.995.994-1.06 1.061Zm2.475 14.475.995.995a3.25 3.25 0 0 0 4.596 0l2.464-2.465a3.25 3.25 0 0 0 0-4.596l-.994-.995-1.061 1.06.995.996a1.75 1.75 0 0 1 0 2.475l-2.465 2.464a1.75 1.75 0 0 1-2.475 0l-.994-.995-1.061 1.06Z" fill="#212121"/></svg>