<svg width="24" height="24" fill="none" viewBox="0 0 24 24" xmlns="http://www.w3.org/2000/svg"><path d="M23 6.5a5.5 5.5 0 1 1-11 0 5.5 5.5 0 0 1 11 0ZM18.529 3h-1.433a.5.5 0 0 0-.468.324l-1.125 3a.5.5 0 0 0 .469.676h.778l-.773 2.318a.518.518 0 0 0 .926.446l2.625-4.038A.47.47 0 0 0 19.135 5H18.5l.497-1.324A.5.5 0 0 0 18.529 3ZM20.5 14.75v-2.482A6.518 6.518 0 0 0 22 11.19v3.56A3.25 3.25 0 0 1 18.75 18h-5.738L8 21.75a1.25 1.25 0 0 1-1.999-1V18h-.75A3.25 3.25 0 0 1 2 14.75v-8.5A3.25 3.25 0 0 1 5.25 3h6.772a6.472 6.472 0 0 0-.709 1.5H5.25A1.75 1.75 0 0 0 3.5 6.25v8.5c0 .967.784 1.75 1.75 1.75h2.249v3.75l5.015-3.75h6.236a1.75 1.75 0 0 0 1.75-1.75Z" fill="#212121"/></svg>