<svg width="24" height="24" fill="none" viewBox="0 0 24 24" xmlns="http://www.w3.org/2000/svg"><path d="M10.64 2.547a.748.748 0 0 1 .39.037L18.262 5.3a.748.748 0 0 1 .025 1.391l-.859.358a4.252 4.252 0 0 0-2 1.719l-.541.892c.085.551.347 1.25.72 1.97a11.4 11.4 0 0 0 1.249 1.928l2.382 1.191a2.748 2.748 0 0 1 1.518 2.458v2.796a.748.748 0 0 1-.748.748h-.837c-3.523 0-7.52-1.175-10.84-2.95-3.286-1.756-6.09-4.2-6.99-6.863a.748.748 0 0 1 .052-.598c.34-.624.706-1.205 1.087-1.745.174-.245.48-.574.737-.845l.185-.195a13.007 13.007 0 0 0 .482-.522c.333-.369.8-.84 1.351-1.336.712-.642 1.58-1.34 2.5-1.92.91-.573 1.918-1.06 2.905-1.229Zm4.817 11.651a13.38 13.38 0 0 1-1.18-1.883c-.378-.733-.714-1.556-.85-2.322l-1.274-.59 1.573 3.965a.748.748 0 0 1-.005.565l-.672 1.606 1.214.449 1.194-1.79Zm.292 2.259c1.262.363 1.929.552 3.512.761v-.012c0-.474-.268-.907-.692-1.12l-1.929-.964-.891 1.335Zm3.512 2.27c-1.87-.24-2.608-.452-4-.854-.273-.079-.57-.164-.906-.259a.76.76 0 0 1-.057-.018l-2.5-.924a.742.742 0 0 1-.062-.026c-2.077-.99-3.239-1.72-4.683-2.775-1.758-1.286-3.064-2.542-3.916-3.555-.09.145-.178.293-.264.444.829 2.02 3.133 4.1 6.165 5.721 3.151 1.685 6.907 2.773 10.134 2.773h.09v-.527ZM4.042 9.058c.596.76 1.57 1.774 2.935 2.87l.425-2.336-1.75-2.236c-.255.25-.475.478-.649.67-.13.155-.34.374-.542.587a78.847 78.847 0 0 0-.419.445ZM6.764 6.35l2.023 2.586a.748.748 0 0 1 .147.595l-.62 3.407a23.135 23.135 0 0 0 3.36 2.014l.549-1.314-2.152-5.424a.748.748 0 0 1 1.01-.955l2.743 1.27.326-.538a5.749 5.749 0 0 1 1.912-1.919l-5.36-2.011c-.661.15-1.406.502-2.169.983-.62.39-1.224.848-1.77 1.306Z" fill="#212121"/></svg>