<svg width="24" height="24" fill="none" viewBox="0 0 24 24" xmlns="http://www.w3.org/2000/svg"><path d="M11.75 1.998a3.752 3.752 0 0 0-.75 7.43V11.5H7.75a2.25 2.25 0 0 0-2.25 2.25v.825a3.754 3.754 0 0 0 .752 7.43A3.752 3.752 0 0 0 7 14.574v-.825a.75.75 0 0 1 .75-.75h8a.75.75 0 0 1 .75.75v.825a3.754 3.754 0 0 0 .752 7.43 3.752 3.752 0 0 0 .748-7.43v-.825a2.25 2.25 0 0 0-2.25-2.25H12.5V9.427a3.754 3.754 0 0 0-.75-7.43ZM9.498 5.75a2.252 2.252 0 1 1 4.504 0 2.252 2.252 0 0 1-4.504 0ZM4 18.252a2.252 2.252 0 1 1 4.505 0 2.252 2.252 0 0 1-4.505 0ZM17.252 16a2.252 2.252 0 1 1 0 4.504 2.252 2.252 0 0 1 0-4.504Z" fill="#212121"/></svg>