<svg width="24" height="24" fill="none" viewBox="0 0 24 24" xmlns="http://www.w3.org/2000/svg"><path d="M19.5 15a2.5 2.5 0 0 1 2.493 2.335l.005.164v2.004a2.5 2.5 0 0 1-4.993.165L17 19.503V17.5a2.5 2.5 0 0 1 2.5-2.5ZM11.997 5a8.5 8.5 0 0 1 8.476 9.138 3.487 3.487 0 0 0-3.575 1.018 1.752 1.752 0 0 0-2.057-1.108l-.147.042-1.501.504-.157.062-.144.078c-.696.415-1.022 1.187-.844 1.928l.043.148.062.157.078.144.098.148c.242.332.571.562.935.671l.158.04.079.012v3.264l.011.18v.44a8.5 8.5 0 1 1-1.516-16.865Zm3.998 10.648.006.1v5.497a.75.75 0 0 1-1.493.102l-.007-.102v-4.454l-.513.173a.75.75 0 0 1-.91-.378l-.04-.095a.75.75 0 0 1 .379-.91l.094-.04 1.502-.503a.75.75 0 0 1 .982.61Zm3.503.85a1 1 0 0 0-.992.884l-.007.116v2.004a1 1 0 0 0 1.992.117l.006-.117V17.5a1 1 0 0 0-.999-1Zm-7.501-8.498a.75.75 0 0 0-.743.648l-.007.102v4.5l.007.102a.75.75 0 0 0 1.486 0l.007-.102v-4.5l-.007-.102a.75.75 0 0 0-.743-.648Zm7.17-2.878.081.062 1.15.999a.75.75 0 0 1-.903 1.193l-.082-.061-1.149-.999a.75.75 0 0 1 .903-1.194Zm-4.92-2.622a.75.75 0 0 1 .102 1.493l-.102.007h-4.5a.75.75 0 0 1-.102-1.493l.102-.007h4.5Z" fill="#212121"/></svg>