<svg width="24" height="24" fill="none" viewBox="0 0 24 24" xmlns="http://www.w3.org/2000/svg"><path d="M19.405 2.597c.316.253.595.636.595 1.152 0 .785-.5 1.296-1.068 1.594-.545.286-1.258.443-2.01.538-1.45.183-3.345.167-5.185.152l-.243-.002c-1.956-.016-3.829-.021-5.212.184-.698.103-1.19.249-1.49.423-.268.155-.292.27-.292.36L4.501 7c.005.01.023.039.075.084.11.097.314.212.636.326.638.227 1.534.376 2.486.468.1.01.201.02.302.028V9.41a25.266 25.266 0 0 1-.447-.04c-.986-.095-2.028-.258-2.843-.547-.405-.144-.807-.337-1.12-.609C3.265 7.931 3 7.525 3 7c0-.784.462-1.325 1.04-1.66.548-.318 1.266-.498 2.022-.61 1.523-.224 3.525-.214 5.444-.199l.182.002c1.893.015 3.698.03 5.046-.14.702-.09 1.2-.22 1.502-.378.194-.102.246-.177.26-.223a.484.484 0 0 0-.028-.023c-.098-.079-.287-.178-.598-.277-.615-.196-1.49-.324-2.46-.4-1.595-.127-3.288-.107-4.198-.096L10.75 3a.75.75 0 0 1 0-1.5l.418-.004c.894-.01 2.685-.033 4.36.1 1 .08 2.014.217 2.797.467.389.123.776.291 1.08.534Zm-5.41 6.732C13.928 7.969 13.098 7 11.749 7 10.342 7 9.5 8.055 9.5 9.508v4.168l-.259-.08c-1.191-.347-2.124-.367-2.826-.016-.953.477-1.444 1.332-1.419 2.44a.75.75 0 0 0 .416.656l2.363 1.175.097.052.094.059 1.884 1.256.193.138c.44.339.792.778 1.027 1.283l.029.063.079.155a2.25 2.25 0 0 0 2.28 1.123l2.418-.347.166-.03a2.25 2.25 0 0 0 1.689-1.616l1.048-3.923.042-.18a3.25 3.25 0 0 0-2.601-3.857l-2.22-.403V9.508l-.004-.18Z" fill="#212121"/></svg>