<svg width="24" height="24" fill="none" viewBox="0 0 24 24" xmlns="http://www.w3.org/2000/svg"><path d="M20.244 12.997c.71 0 1.023.893.47 1.336l-4.719 3.777v1.645a2.25 2.25 0 0 1-2.25 2.25H10.25A2.25 2.25 0 0 1 8 19.755V18.11l-4.72-3.777c-.553-.443-.24-1.336.469-1.336h16.495Zm-2.136 1.5H5.886l3.333 2.668a.75.75 0 0 1 .281.585v2.005c0 .414.336.75.75.75h3.495a.75.75 0 0 0 .75-.75V17.75a.75.75 0 0 1 .282-.585l3.33-2.668ZM8.75 9h6.495a1.75 1.75 0 0 1 1.744 1.607l.006.143V12h-1.5v-1.25a.25.25 0 0 0-.193-.243l-.057-.007H8.75a.25.25 0 0 0-.243.193l-.007.057V12H7v-1.25a1.75 1.75 0 0 1 1.606-1.744L8.75 9h6.495H8.75ZM12 2a3 3 0 1 1 0 6 3 3 0 0 1 0-6Zm0 1.5a1.5 1.5 0 1 0 0 3 1.5 1.5 0 0 0 0-3Z" fill="#212121"/></svg>