<svg width="24" height="24" fill="none" viewBox="0 0 24 24" xmlns="http://www.w3.org/2000/svg"><path d="m11 14-.084-.073a.75.75 0 0 0-.977.073l-.439.438V10.5h5v3.94l-.512-.44-.084-.073a.75.75 0 0 0-.977 1.133l1.792 1.72.084.073a.75.75 0 0 0 .976-.072l1.72-1.72.073-.085a.75.75 0 0 0-.073-.976l-.084-.073a.75.75 0 0 0-.976.073l-.439.438v-4.69l-.007-.101a.75.75 0 0 0-.743-.648L15.23 9h-2.48V5.75l-.007-.102a.75.75 0 0 0-.744-.648l-.101.007a.75.75 0 0 0-.649.743V9H8.794A.763.763 0 0 0 8.75 9l-.102.007A.75.75 0 0 0 8 9.749v4.691L7.56 14l-.083-.073A.75.75 0 0 0 6.5 15.06l1.719 1.72.084.073a.75.75 0 0 0 .977-.072L11 15.06l.072-.085A.75.75 0 0 0 11 14Zm-9.001-2c0 5.522 4.477 10 10 10s10-4.478 10-10c0-5.524-4.477-10-10-10s-10 4.476-10 10Zm18.5 0a8.5 8.5 0 1 1-17 0 8.5 8.5 0 0 1 17 0Z" fill="#212121"/></svg>