<svg width="24" height="24" fill="none" viewBox="0 0 24 24" xmlns="http://www.w3.org/2000/svg"><path d="M16.25 2a.75.75 0 0 1 .742.648L17 2.75v.749h.749a2.25 2.25 0 0 1 2.25 2.25v4.328A3.752 3.752 0 0 0 14.463 12H7.248l-.102.007a.75.75 0 0 0 0 1.486l.102.007h7.01A3.74 3.74 0 0 0 15.45 16h-.951a2.5 2.5 0 0 0-2.5 2.5v.5c0 1.1.422 2.152 1.173 3.005h-7.42a2.25 2.25 0 0 1-2.25-2.25L3.5 5.75A2.25 2.25 0 0 1 5.75 3.5l.747-.001V2.75a.75.75 0 0 1 1.494-.102l.007.102v.749H11V2.75a.75.75 0 0 1 1.494-.102l.007.102v.749h2.998V2.75a.75.75 0 0 1 .75-.75Zm-5.003 14H7.248l-.102.007a.75.75 0 0 0 0 1.486l.102.007h3.999l.102-.007a.75.75 0 0 0 0-1.486L11.247 16Zm5-8H7.249l-.102.007a.75.75 0 0 0 0 1.486l.102.007h9l.101-.007a.75.75 0 0 0 0-1.486L16.248 8ZM18 10.5c.788 0 1.498.331 2 .861a2.74 2.74 0 0 1 .75 1.889 2.74 2.74 0 0 1-.75 1.888 2.75 2.75 0 1 1-2-4.638Zm-5 8a1.5 1.5 0 0 1 1.5-1.5h7A1.5 1.5 0 0 1 23 18.5v.5c0 1.971-1.86 4-5 4-1.784 0-3.154-.654-4.006-1.58C13.346 20.715 13 19.852 13 19v-.5Z" fill="#212121"/></svg>