<svg width="24" height="24" fill="none" viewBox="0 0 24 24" xmlns="http://www.w3.org/2000/svg"><path d="M6.842 13.984a5.648 5.648 0 0 1 1.713.021c1.293.21 2.522.838 3.823 1.597 2.357 1.375 4.946 1.102 6.436.038a.75.75 0 0 1 .872 1.22c-2.01 1.436-5.24 1.685-8.064.038-1.29-.752-2.31-1.25-3.307-1.412-.957-.155-1.955-.01-3.206.673a.75.75 0 0 1-.718-1.317c.861-.47 1.668-.748 2.45-.858Z" fill="#212121"/><path d="M8.113 10.95a5.641 5.641 0 0 0-1.553.08c-.695.132-1.411.397-2.17.811a.75.75 0 1 0 .719 1.317c1.25-.682 2.248-.828 3.205-.672.997.162 2.018.66 3.307 1.411 2.825 1.648 6.055 1.398 8.064-.037a.75.75 0 0 0-.871-1.22c-.41.291-.9.524-1.448.679a5.914 5.914 0 0 1-1.645.218 6.717 6.717 0 0 1-3.344-.935c-1.301-.76-2.53-1.387-3.823-1.597a5.921 5.921 0 0 0-.441-.055Z" fill="#212121"/><path d="M17.525 12c0 .07-.002.14-.004.21-.447.18-.967.296-1.531.322a4.025 4.025 0 0 0-7.477-2.544 6.643 6.643 0 0 0-1.655-.015A5.527 5.527 0 0 1 17.525 12ZM12.122 22a.758.758 0 0 1-.252 0h.252ZM5.974 4.941l-.084-.073a.75.75 0 0 0-.977 1.134l1.06 1.06.085.073a.75.75 0 0 0 .976-1.133L5.974 4.94ZM19.15 5.918a.75.75 0 0 0-1.132-.977l-1.061 1.06-.073.085a.75.75 0 0 0 1.134.976l1.06-1.06.073-.084ZM12.743 2.638a.75.75 0 0 0-1.493.102v1.5l.007.101a.75.75 0 0 0 1.493-.102v-1.5l-.007-.101ZM5.11 19.159c1.25-.683 2.248-.828 3.205-.673.996.162 2.018.66 3.307 1.412 2.825 1.647 6.055 1.398 8.064-.038a.75.75 0 1 0-.872-1.22c-1.49 1.064-4.079 1.337-6.436-.038-1.301-.759-2.53-1.386-3.823-1.596-1.333-.217-2.665.018-4.164.836a.75.75 0 1 0 .718 1.317Z" fill="#212121"/></svg>