<svg width="24" height="24" fill="none" viewBox="0 0 24 24" xmlns="http://www.w3.org/2000/svg"><path d="M7.152 3.012c.832-.648 1.92-1.006 3-1.006.647 0 1.17.222 1.567.575.108.095.203.198.288.304.084-.106.18-.209.287-.304.396-.353.92-.575 1.566-.575 1.082 0 2.17.358 3.001 1.006.647.503 1.154 1.198 1.353 2.037.42.07.794.284 1.096.567.48.451.822 1.103 1.038 1.774.218.681.328 1.446.295 2.181-.017.376-.072.76-.178 1.127l.066.03c.37.174.67.447.894.81.425.685.575 1.671.575 2.928 0 1.445-.552 2.426-1.262 3.035a3.447 3.447 0 0 1-1.27.69 5.172 5.172 0 0 1-1.019 2.137c-.723.904-1.846 1.668-3.357 1.668-1.21 0-2.163-.67-2.775-1.31a5.358 5.358 0 0 1-.31-.357 5.36 5.36 0 0 1-.31.356c-.613.642-1.566 1.311-2.776 1.311-1.51 0-2.634-.764-3.357-1.668a5.171 5.171 0 0 1-1.019-2.137 3.447 3.447 0 0 1-1.27-.69c-.71-.61-1.262-1.59-1.262-3.035 0-1.257.15-2.243.575-2.928a2.096 2.096 0 0 1 .96-.84 4.892 4.892 0 0 1-.177-1.127c-.033-.735.076-1.5.295-2.181.215-.67.557-1.323 1.038-1.774a2.122 2.122 0 0 1 1.095-.567c.199-.84.706-1.534 1.353-2.037Zm.921 1.183c-.545.425-.865.991-.865 1.643a.75.75 0 0 1-.987.711c-.138-.046-.282-.035-.491.161-.231.217-.467.61-.636 1.138a4.843 4.843 0 0 0-.225 1.656c.025.556.157 1.018.366 1.33a.752.752 0 0 1 .083.166H6.4a2.85 2.85 0 0 1 2.842 2.642 2 2 0 1 1-1.507.01A1.35 1.35 0 0 0 6.4 12.5H3.8a.7.7 0 0 1-.025 0c-.15.348-.262.949-.262 1.966 0 1.021.372 1.581.74 1.897.402.345.845.435.973.435a.75.75 0 0 1 .75.75c0 .42.232 1.183.76 1.843.509.637 1.233 1.105 2.185 1.105.637 0 1.224-.358 1.69-.846.226-.238.402-.485.518-.685a1.8 1.8 0 0 0 .116-.233l.005-.014V9.25h-.895a2 2 0 1 1 0-1.5h.895V5.212l-.002-.057a3.053 3.053 0 0 0-.18-.904c-.09-.238-.207-.426-.346-.55-.123-.11-.292-.195-.57-.195-.765 0-1.525.258-2.079.69ZM12.763 17v1.718l.005.014c.02.053.058.132.116.233.116.2.292.447.518.685.466.488 1.053.846 1.69.846.953 0 1.676-.468 2.185-1.105.528-.66.76-1.424.76-1.843a.75.75 0 0 1 .75-.75c.128 0 .57-.09.974-.435.367-.316.739-.876.739-1.897 0-1.208-.158-1.83-.349-2.137a.6.6 0 0 0-.26-.245c-.102-.048-.253-.084-.488-.084a.75.75 0 0 1-.625-1.166c.209-.313.341-.774.366-1.33a4.844 4.844 0 0 0-.225-1.656c-.17-.528-.404-.92-.636-1.138-.208-.196-.353-.207-.49-.161a.75.75 0 0 1-.988-.711c0-.652-.32-1.218-.865-1.643-.554-.431-1.313-.69-2.08-.69-.277 0-.446.087-.569.196-.139.124-.255.312-.345.55a3.053 3.053 0 0 0-.18.904 2.056 2.056 0 0 0-.003.057V15.5h.637a1.35 1.35 0 0 0 1.35-1.35v-1.795a2 2 0 1 1 1.5 0v1.795A2.85 2.85 0 0 1 13.4 17h-.637ZM8.5 8a.5.5 0 1 0 0 1 .5.5 0 0 0 0-1ZM8 15.5a.5.5 0 1 0 1 0 .5.5 0 0 0-1 0Zm7-5a.5.5 0 1 0 1 0 .5.5 0 0 0-1 0Z" fill="#212121"/></svg>