<svg width="24" height="24" fill="none" viewBox="0 0 24 24" xmlns="http://www.w3.org/2000/svg"><path d="M11 21.248a.75.75 0 0 1-1.493.102l-.007-.102L9.499 17 8.754 17a2.25 2.25 0 0 1-2.245-2.096l-.005-.154v-5.5c0-.984.632-1.821 1.513-2.126V2.747a.75.75 0 0 1 .647-.743l.102-.007h6.501a.75.75 0 0 1 .743.649l.007.101v4.386a2.252 2.252 0 0 1 1.48 1.947l.007.17v5.5a2.25 2.25 0 0 1-2.096 2.245l-.154.005h-.755v4.245a.75.75 0 0 1-1.492.102L13 21.245 12.999 17h-2v4.25Zm3.517-17.751H9.516v3.502h5V3.497Z" fill="#212121"/></svg>