<svg width="24" height="24" fill="none" viewBox="0 0 24 24" xmlns="http://www.w3.org/2000/svg"><path d="M7.75 19a2.75 2.75 0 0 1-2.745-2.582L5 16.25v-1.251a3 3 0 1 1 2.562-4.56 4.452 4.452 0 0 1 1.68-.432L9.5 10h4l.248.007.245.02.127.017.11-.167.131-.178-1.777-1.777c-.7-.7-.773-1.788-.22-2.57l.103-.135.117-.127c.74-.74 1.918-.78 2.705-.117l.127.117 5.412 5.413a4 4 0 0 1-2.642 6.824l-.225.004-.182-.007-.026.064a2.751 2.751 0 0 1-2.138 1.588l-.192.019-.174.005H7.75Zm6.605-12.85a.502.502 0 0 0-.768.642l.058.07 2.808 2.808-.638.641c-.21.21-.385.444-.523.697l-.097.192-.266.584-.618-.173a2.984 2.984 0 0 0-.604-.104l-.208-.007H9.5c-.7 0-1.343.24-1.853.64l-.143.12-.165.16-.093.1-.111.134-.121.166-.042.065c-.041.063-.08.128-.115.195l-.058.113-.062.136-.034.085-.051.142-.055.184a2.977 2.977 0 0 0-.062.297l-.011.083-.018.188-.006.192v1.75c0 .647.492 1.18 1.122 1.244l.128.006h4.251v-.247a1.25 1.25 0 0 0-1.121-1.243l-.128-.007h-1a.75.75 0 0 1-.102-1.493l.102-.007h1a2.75 2.75 0 0 1 2.745 2.583l.005.167-.001.247h1.748c.592 0 1.095-.414 1.219-.975l.02-.123.1-.84.822.199a2.5 2.5 0 0 0 2.48-4.067l-.122-.13-5.413-5.413ZM5 10.5a1.5 1.5 0 0 0-.145 2.992L5 13.5l.114-.005.005-.026c.035-.149.077-.295.126-.438l.097-.254.106-.236.057-.113.13-.235.088-.14.145-.21.074-.097.108-.134.129-.148.15-.156c-.21-.401-.59-.69-1.037-.778l-.151-.022L5 10.5Z" fill="#212121"/></svg>