<svg width="24" height="24" fill="none" viewBox="0 0 24 24" xmlns="http://www.w3.org/2000/svg"><path d="m9.367 3.312.86 2.028c.374.883.167 1.922-.514 2.568L7.819 9.706c.116 1.076.478 2.135 1.084 3.177a8.678 8.678 0 0 0 2.271 2.595l2.275-.76c.863-.287 1.802.044 2.33.821l1.233 1.81c.615.904.505 2.15-.258 2.916l-.818.821c-.814.817-1.977 1.114-3.052.778-2.539-.792-4.873-3.143-7.003-7.053-2.133-3.916-2.886-7.24-2.258-9.968.264-1.148 1.081-2.063 2.149-2.404l1.076-.344c1.01-.322 2.087.199 2.52 1.217Zm5.381-1.31h6.554l.1.013.098.028.064.027a.718.718 0 0 1 .216.15l.04.043.044.057.052.085.04.093.028.1.013.09v.013l.002.02v6.534a.75.75 0 0 1-1.492.102l-.007-.102V4.56l-6.22 6.224a.75.75 0 0 1-.977.073l-.084-.072a.75.75 0 0 1-.073-.977l.073-.084 6.22-6.224-4.69.001a.75.75 0 0 1-.744-.648l-.007-.102a.75.75 0 0 1 .648-.743L14.748 2Z" fill="#212121"/></svg>