<svg width="24" height="24" fill="none" viewBox="0 0 24 24" xmlns="http://www.w3.org/2000/svg"><path d="M14.504 4.752a2.752 2.752 0 1 0-5.504 0V19.25a2.752 2.752 0 0 0 3.667 2.597 6.5 6.5 0 0 1 1.837-10.116V4.75ZM21.504 12.38A6.52 6.52 0 0 0 16 11.175V9.751a2.752 2.752 0 0 1 5.504 0v2.628ZM4.752 12a2.752 2.752 0 0 1 2.752 2.752v4.498a2.752 2.752 0 0 1-5.504 0v-4.498A2.752 2.752 0 0 1 4.752 12Z" fill="#212121"/><path d="M23 17.5a5.5 5.5 0 1 0-11 0 5.5 5.5 0 0 0 11 0Zm-5 .5.001 2.504a.5.5 0 1 1-1 0V18h-2.505a.5.5 0 0 1 0-1H17v-2.5a.5.5 0 1 1 1 0V17h2.503a.5.5 0 1 1 0 1h-2.502Z" fill="#212121"/></svg>