<svg width="24" height="24" fill="none" viewBox="0 0 24 24" xmlns="http://www.w3.org/2000/svg"><path d="M17.25 2A2.75 2.75 0 0 1 20 4.75v8.153l-.26-.52a2.46 2.46 0 0 0-1.24-1.18V4.75c0-.69-.56-1.25-1.25-1.25H4.75c-.69 0-1.25.56-1.25 1.25v12.5c0 .69.56 1.25 1.25 1.25h7.46l-.75 1.5H4.75A2.75 2.75 0 0 1 2 17.25V4.75A2.75 2.75 0 0 1 4.75 2h12.5ZM9 13.44l6.47-6.47a.75.75 0 0 1 1.133.976l-.073.084-7 7a.75.75 0 0 1-.976.073l-.084-.073-3-3a.75.75 0 0 1 .976-1.133l.084.073L9 13.44Zm7.161-.61-3.997 7.998A1.5 1.5 0 0 0 13.507 23h7.994a1.5 1.5 0 0 0 1.343-2.172l-3.997-7.998c-.553-1.107-2.133-1.107-2.686 0Zm1.843 2.666v3.001a.5.5 0 0 1-1 0v-3.001a.5.5 0 0 1 1 0Zm-.5 5.503a.5.5 0 1 1 0-1.001.5.5 0 0 1 0 1Z" fill="#212121"/></svg>