<svg width="24" height="24" fill="none" viewBox="0 0 24 24" xmlns="http://www.w3.org/2000/svg"><path d="M10.5 8a3 3 0 1 0 0 6 3 3 0 0 0 0-6ZM9 11a1.5 1.5 0 1 1 3 0 1.5 1.5 0 0 1-3 0Z" fill="#212121"/><path d="M2 7.25A2.25 2.25 0 0 1 4.25 5h12.5A2.25 2.25 0 0 1 19 7.25v7.5A2.25 2.25 0 0 1 16.75 17H4.25A2.25 2.25 0 0 1 2 14.75v-7.5Zm2.25-.75a.75.75 0 0 0-.75.75V8h.75A.75.75 0 0 0 5 7.25V6.5h-.75Zm-.75 6h.75a2.25 2.25 0 0 1 2.25 2.25v.75h8v-.75a2.25 2.25 0 0 1 2.25-2.25h.75v-3h-.75a2.25 2.25 0 0 1-2.25-2.25V6.5h-8v.75A2.25 2.25 0 0 1 4.25 9.5H3.5v3Zm14-4.5v-.75a.75.75 0 0 0-.75-.75H16v.75c0 .414.336.75.75.75h.75Zm0 6h-.75a.75.75 0 0 0-.75.75v.75h.75a.75.75 0 0 0 .75-.75V14Zm-14 .75c0 .414.336.75.75.75H5v-.75a.75.75 0 0 0-.75-.75H3.5v.75Z" fill="#212121"/><path d="M4.401 18.5A2.999 2.999 0 0 0 7 20h10.25A4.75 4.75 0 0 0 22 15.25V10c0-1.11-.603-2.08-1.5-2.599v7.849a3.25 3.25 0 0 1-3.25 3.25H4.401Z" fill="#212121"/></svg>