<svg width="24" height="24" fill="none" viewBox="0 0 24 24" xmlns="http://www.w3.org/2000/svg"><path d="M18 1.999A4 4 0 0 0 18 10c.826 0 1.588-.241 2.222-.666a.5.5 0 0 1 .556.831A4.966 4.966 0 0 1 18 11a5 5 0 1 1 5-5v.75a1.75 1.75 0 0 1-3.198.982A2.5 2.5 0 1 1 19.5 4a.5.5 0 0 1 1 0v2.75a.75.75 0 0 0 1.5 0v-.763a4 4 0 0 0-4-3.987Zm-1.5 4a1.5 1.5 0 1 0 3 0 1.5 1.5 0 0 0-3 0Z" fill="#212121"/><path d="M22 14.75v-4.278c-.445.398-.95.731-1.5.984v3.294a1.75 1.75 0 0 1-1.75 1.75h-6.236L7.5 20.25l-.001-3.75H5.25a1.75 1.75 0 0 1-1.75-1.75v-8.5c0-.967.784-1.75 1.75-1.75h6.939a5.963 5.963 0 0 1 .614-1.5H5.25A3.25 3.25 0 0 0 2 6.25v8.5A3.25 3.25 0 0 0 5.25 18H6v2.75a1.25 1.25 0 0 0 1.999 1L13.012 18h5.738A3.25 3.25 0 0 0 22 14.75Z" fill="#212121"/></svg>