<svg width="24" height="24" fill="none" viewBox="0 0 24 24" xmlns="http://www.w3.org/2000/svg"><path d="M18.5 20a.5.5 0 0 1-.5.5h-5.732A6.518 6.518 0 0 1 11.19 22H18a2 2 0 0 0 2-2V9.828a2 2 0 0 0-.586-1.414l-5.829-5.828a.491.491 0 0 0-.049-.04.63.63 0 0 1-.036-.03 2.072 2.072 0 0 0-.219-.18.652.652 0 0 0-.08-.044l-.048-.024-.05-.029c-.054-.031-.109-.063-.166-.087a1.977 1.977 0 0 0-.624-.138c-.02-.001-.04-.004-.059-.007A.605.605 0 0 0 12.172 2H6a2 2 0 0 0-2 2v7.498a6.451 6.451 0 0 1 1.5-.422V4a.5.5 0 0 1 .5-.5h6V8a2 2 0 0 0 2 2h4.5v10Zm-5-15.379L17.378 8.5H14a.5.5 0 0 1-.5-.5V4.621Z" fill="#212121"/><path d="M12 17.5a5.5 5.5 0 1 1-11 0 5.5 5.5 0 0 1 11 0Zm-9.5 0c0 .834.255 1.608.691 2.248l5.557-5.557A4 4 0 0 0 2.5 17.5Zm4 4a4 4 0 0 0 3.309-6.248l-5.557 5.557c.64.436 1.414.691 2.248.691Z" fill="#212121"/></svg>