<svg width="24" height="24" fill="none" viewBox="0 0 24 24" xmlns="http://www.w3.org/2000/svg"><path d="M22.143 3.302c-.328-.547-.665-.921-.913-1.128a.75.75 0 0 0-.96 1.152c.127.106.353.357.587.747.401.67.643 1.475.643 2.427s-.242 1.758-.643 2.427c-.234.39-.46.641-.587.747a.75.75 0 0 0 .96 1.152c.248-.207.585-.58.913-1.128C22.68 8.805 23 7.736 23 6.5s-.32-2.305-.857-3.198Zm-2.269 1.094a3.075 3.075 0 0 0-.674-.746.75.75 0 0 0-.9 1.2c.062.046.19.175.326.379.234.35.374.77.374 1.271 0 .5-.14.92-.374 1.271a1.681 1.681 0 0 1-.326.379l-.084.073A.75.75 0 0 0 19.2 9.35c.189-.141.435-.388.674-.746A3.734 3.734 0 0 0 20.5 6.5c0-.812-.235-1.517-.626-2.104ZM17 3.75a.75.75 0 0 0-1.314-.494L14.16 5h-1.41a.75.75 0 0 0-.75.75v1.5c0 .414.336.75.75.75h1.41l1.526 1.744A.75.75 0 0 0 17 9.25v-5.5Zm-5.05.251H3.758a1.75 1.75 0 0 0-1.75 1.75v12.495c0 .967.784 1.75 1.75 1.75h7.497v.003h8.999a1.75 1.75 0 0 0 1.75-1.75v-6.77c-.045.04-.09.08-.133.115-.396.33-.894.456-1.367.389v6.265a.25.25 0 0 1-.25.25h-7.498V9H12a.998.998 0 0 1-.745-.333v9.83H3.757a.25.25 0 0 1-.25-.25V5.75a.25.25 0 0 1 .25-.25H11V5A1 1 0 0 1 11.95 4ZM16.247 15.5h-1.5l-.102.007A.75.75 0 0 0 14.746 17h1.5l.102-.007a.75.75 0 0 0-.102-1.493Zm-8.497 0H9.25a.75.75 0 0 1 .102 1.493L9.25 17H7.75a.75.75 0 0 1-.102-1.493l.102-.007Z" fill="#212121"/></svg>