<svg width="24" height="24" fill="none" viewBox="0 0 24 24" xmlns="http://www.w3.org/2000/svg"><path d="M11.03 2.584a.748.748 0 0 0-.39-.037c-.986.169-1.995.656-2.905 1.23a18.847 18.847 0 0 0-2.5 1.919 19.24 19.24 0 0 0-1.37 1.358c-.095.114-.26.288-.462.5l-.186.195c-.255.27-.562.6-.736.845-.381.54-.746 1.121-1.087 1.745-.1.184-.119.4-.052.598.9 2.663 3.704 5.107 6.99 6.864 3.32 1.774 7.317 2.95 10.84 2.95h.837a.748.748 0 0 0 .748-.749v-2.796c0-1.04-.588-1.992-1.519-2.458l-2.382-1.191a11.4 11.4 0 0 1-1.249-1.928c-.372-.72-.634-1.419-.72-1.97l.542-.892a4.252 4.252 0 0 1 2-1.719l.859-.357a.748.748 0 0 0-.025-1.392l-7.234-2.715Zm8.231 14.634c-1.584-.21-2.25-.398-3.512-.761l.89-1.336 1.93.966c.424.212.692.645.692 1.12v.011Zm-4 .655c1.392.402 2.13.614 4 .854v.527h-.09c-3.226 0-6.982-1.088-10.133-2.773-3.032-1.62-5.336-3.7-6.165-5.72.086-.151.174-.3.264-.445.851 1.013 2.158 2.27 3.916 3.555 1.444 1.056 2.606 1.785 4.683 2.775.02.01.041.018.062.026l2.5.924a.745.745 0 0 0 .056.018c.336.095.634.18.906.259ZM8.786 8.935 6.763 6.349c.546-.458 1.15-.916 1.77-1.306.762-.48 1.507-.833 2.17-.983l5.359 2.011a5.748 5.748 0 0 0-1.912 1.92l-.326.537-2.743-1.27a.748.748 0 0 0-1.01.955l2.152 5.424-.55 1.314a23.136 23.136 0 0 1-3.358-2.014l.62-3.407a.748.748 0 0 0-.148-.595Z" fill="#212121"/></svg>