<svg width="24" height="24" fill="none" viewBox="0 0 24 24" xmlns="http://www.w3.org/2000/svg"><path d="m20.537 17.934.023.07c.115.346.169.7.169 1.05 0 .808-.305 1.58-.92 2.166a2.928 2.928 0 0 1-2.07.846 3.01 3.01 0 0 1-1.682-.512l-.081-.054-.076-.062a3.47 3.47 0 0 1-.942-1.23l-.016-.034-.863-2.046H9.947l-.811 1.97a2.937 2.937 0 0 1-1.1 1.433 2.91 2.91 0 0 1-1.694.535c-.647 0-1.465-.175-2.118-.828-.616-.616-.828-1.39-.828-2.074 0-.253.047-.534.072-.681l.037-.224L9.21 4.434l.008-.02a3.179 3.179 0 0 1 1.127-1.38 2.884 2.884 0 0 1 1.883-.498 3.04 3.04 0 0 1 1.582.51c.554.37.925.886 1.132 1.452l5.595 13.436ZM13.075 5.216a.997.997 0 0 0-.215-.371.901.901 0 0 0-.16-.135 1.047 1.047 0 0 0-.593-.176.89.89 0 0 0-.638.154 1.182 1.182 0 0 0-.418.528L5.44 18.812c-.03.176-.045.293-.045.352 0 .278.081.498.242.66.162.161.396.242.704.242a.911.911 0 0 0 .55-.176.91.91 0 0 0 .31-.351c.025-.049.046-.1.064-.155l1.342-3.256h6.798l1.364 3.234c.103.22.235.396.396.528.177.117.367.176.572.176a.931.931 0 0 0 .683-.286.948.948 0 0 0 .308-.726c0-.147-.023-.286-.066-.418l-5.588-13.42Zm-1.079 2.75 2.574 6.16H9.444l2.552-6.16Z" fill="#212121"/></svg>