<svg width="24" height="24" fill="none" viewBox="0 0 24 24" xmlns="http://www.w3.org/2000/svg"><path d="m9.367 3.313.86 2.027c.374.884.167 1.923-.514 2.569L7.819 9.707c.116 1.075.478 2.134 1.084 3.177a8.678 8.678 0 0 0 2.271 2.594l2.275-.758c.863-.288 1.802.042 2.33.82l1.233 1.81c.615.904.505 2.15-.258 2.916l-.818.82c-.814.818-1.977 1.114-3.052.779-2.539-.792-4.873-3.143-7.003-7.054-2.133-3.916-2.886-7.238-2.258-9.967.264-1.149 1.081-2.063 2.149-2.404l1.076-.344c1.01-.323 2.087.198 2.52 1.217Zm5.13 5.126 6.221-6.223a.75.75 0 0 1 1.134.976l-.073.084L15.56 9.5h4.691a.75.75 0 0 1 .743.648l.007.102a.75.75 0 0 1-.648.743L20.25 11h-6.555l-.098-.014-.095-.026-.068-.029a.719.719 0 0 1-.216-.15l-.04-.043-.025-.032-.048-.069-.046-.091-.032-.092-.017-.07-.01-.081-.001-.053V3.745a.75.75 0 0 1 1.493-.102l.007.102-.001 4.694 6.22-6.223-6.22 6.223Z" fill="#212121"/></svg>