<svg width="24" height="24" fill="none" viewBox="0 0 24 24" xmlns="http://www.w3.org/2000/svg"><path d="M19.75 2A2.25 2.25 0 0 1 22 4.25v5.462a3.25 3.25 0 0 1-.952 2.298l-.026.026a6.5 6.5 0 0 0-9.028 8.92 3.256 3.256 0 0 1-4.043-.442L3.489 16.06a3.25 3.25 0 0 1-.003-4.596l8.5-8.51A3.25 3.25 0 0 1 14.284 2h5.465ZM17 5.502a1.5 1.5 0 1 0 0 3 1.5 1.5 0 0 0 0-3Z" fill="#212121"/><path d="M23 17.5a5.5 5.5 0 1 0-11 0 5.5 5.5 0 0 0 11 0Zm-6.125 3.005a.625.625 0 1 1 1.25 0 .625.625 0 0 1-1.25 0Zm-1.228-4.548c-.011-1.137.805-1.954 1.853-1.954 1.031 0 1.853.846 1.853 1.95 0 .566-.185.913-.663 1.447l-.265.29-.101.116c-.248.292-.324.462-.324.695a.5.5 0 1 1-1 0c0-.576.187-.926.671-1.468l.265-.29.1-.113c.242-.286.317-.453.317-.677 0-.558-.38-.95-.853-.95-.494 0-.859.366-.853.945a.5.5 0 1 1-1 .01Z" fill="#212121"/></svg>