<svg width="24" height="24" fill="none" viewBox="0 0 24 24" xmlns="http://www.w3.org/2000/svg"><path d="M12 1.999c5.524 0 10.002 4.478 10.002 10.002 0 .663-.065 1.312-.188 1.94a3.01 3.01 0 0 0-1.32-1.56A8.523 8.523 0 0 0 20.264 10h-3.358a20.85 20.85 0 0 1 .081 2.76A2.992 2.992 0 0 0 16 14.983c0 .592.172 1.145.469 1.61-.033.133-.068.264-.104.393a2.5 2.5 0 0 0-2.078 1.332c.249-.53.47-1.142.652-1.819H9.061c.652 2.414 1.786 4.002 2.94 4.002.795 0 1.582-.756 2.207-2.019a2.492 2.492 0 0 0-.208 1 4.4 4.4 0 0 0 .556 2.19c-.816.215-1.672.33-2.556.33C6.476 22.002 2 17.523 2 12 1.999 6.477 6.476 1.999 12 1.999ZM7.508 16.501H4.786a8.532 8.532 0 0 0 4.094 3.41c-.522-.82-.953-1.846-1.27-3.015l-.102-.395ZM7.094 10H3.736l-.005.017a8.524 8.524 0 0 0-.232 1.984c0 1.056.192 2.067.544 3h3.173A20.3 20.3 0 0 1 7 12c0-.684.032-1.354.095-2.001Zm1.51 0a18.969 18.969 0 0 0 .134 5h6.524a18.974 18.974 0 0 0 .135-5H8.603Zm.277-5.91-.023.008A8.531 8.531 0 0 0 4.25 8.5h3.048c.314-1.752.86-3.278 1.583-4.41Zm3.12-.591-.117.005C10.62 3.62 9.397 5.622 8.83 8.5h6.342c-.566-2.87-1.783-4.869-3.045-4.995L12 3.5Zm3.12.59.106.175c.67 1.112 1.177 2.572 1.475 4.237h3.048a8.533 8.533 0 0 0-4.339-4.29l-.29-.121ZM21.5 17.985a1.5 1.5 0 0 1 1.5 1.5c0 1.116-.459 2.01-1.212 2.614-.741.595-1.735.886-2.788.886-1.053 0-2.047-.29-2.788-.886a3.22 3.22 0 0 1-.676-.739c-.342-.519-.536-1.15-.536-1.875a1.5 1.5 0 0 1 1.5-1.5h5Zm-.5-3A2 2 0 0 1 17 15v-.017a2 2 0 0 1 4 0Z" fill="#212121"/></svg>