<svg width="24" height="24" fill="none" viewBox="0 0 24 24" xmlns="http://www.w3.org/2000/svg"><path d="M7.034 2a1 1 0 0 1 .945.673l2.793 8.069a1 1 0 0 1-1.89.654l-.412-1.19H5.597l-.411 1.19a1 1 0 0 1-1.89-.654l2.793-8.07A1 1 0 0 1 7.034 2Zm0 4.057-.744 2.15h1.488l-.744-2.15ZM4.749 13a1 1 0 1 0 0 2H8l-4.05 5.4a1 1 0 0 0 .8 1.6H10a1 1 0 1 0 0-2H6.75l4.05-5.4A1 1 0 0 0 10 13H4.75Zm7.544 3.293a1 1 0 0 1 1.414 0l2.292 2.292V3a1 1 0 1 1 2 0v15.586l2.294-2.293a1 1 0 0 1 1.414 1.414l-4 4a1 1 0 0 1-1.414 0l-4-4a1 1 0 0 1 0-1.414Z" fill="#212121"/></svg>