<svg width="24" height="24" fill="none" viewBox="0 0 24 24" xmlns="http://www.w3.org/2000/svg"><path d="M12 5a8 8 0 0 0-5.662 13.652 1 1 0 1 1-1.416 1.413A9.972 9.972 0 0 1 2 13C2 7.477 6.477 3 12 3s10 4.477 10 10c0 1.231-.223 2.41-.63 3.5h-.82a3.74 3.74 0 0 0 1.2-2.75 3.758 3.758 0 0 0-2.207-3.418A8.003 8.003 0 0 0 12.001 5Zm3.46 5.992a3.74 3.74 0 0 1 1.781-.915 6 6 0 1 0-9.484 7.166 1 1 0 1 0 1.415-1.415 4 4 0 1 1 6.289-4.837ZM12 11a2 2 0 1 0 0 4 2 2 0 0 0 0-4Zm8 .862A2.745 2.745 0 0 0 18 11a2.75 2.75 0 1 0 2 .862ZM14.5 17.5h-.014A1.5 1.5 0 0 0 13 19v.5c0 .51.124 1.023.363 1.504a4.13 4.13 0 0 0 1.292 1.5c.836.605 1.967.996 3.346.996 3.14 0 5-2.029 5-4V19a1.5 1.5 0 0 0-1.5-1.5h-7Z" fill="#212121"/></svg>