<svg width="24" height="24" fill="none" viewBox="0 0 24 24" xmlns="http://www.w3.org/2000/svg"><path d="M19.5 15a2.5 2.5 0 0 1 2.493 2.335l.006.164v2.005a2.5 2.5 0 0 1-4.994.164L17 19.504v-2.005A2.5 2.5 0 0 1 19.5 15ZM12 4.998a8.5 8.5 0 0 1 8.476 9.142 3.442 3.442 0 0 0-1.497-.101 7 7 0 1 0-5.476 6.298v.91l.011.185v.432A8.5 8.5 0 1 1 12 4.999Zm3.996 10.652.007.1v5.497a.75.75 0 0 1-1.494.102l-.007-.102v-4.455l-.512.173a.75.75 0 0 1-.911-.378l-.039-.094a.75.75 0 0 1 .378-.911l.094-.039 1.502-.504a.75.75 0 0 1 .982.61Zm3.503.85a1 1 0 0 0-.992.883l-.007.116v2.005a1 1 0 0 0 1.992.116l.006-.116v-2.005a1 1 0 0 0-.999-.999ZM12 8a.75.75 0 0 1 .743.648l.007.102v4.5a.75.75 0 0 1-1.493.102l-.007-.102v-4.5A.75.75 0 0 1 12 8Zm7.162-2.879.08.062 1.132.986a.75.75 0 0 1-.905 1.192l-.081-.062-1.13-.986a.75.75 0 0 1 .904-1.192ZM14.25 2.487a.75.75 0 0 1 .102 1.493l-.102.007h-4.5a.75.75 0 0 1-.102-1.493l.102-.007h4.5Z" fill="#212121"/></svg>