<svg width="24" height="24" fill="none" viewBox="0 0 24 24" xmlns="http://www.w3.org/2000/svg"><path d="M20.496 5.627A2.25 2.25 0 0 1 22 7.75v10A4.25 4.25 0 0 1 17.75 22h-10a2.25 2.25 0 0 1-2.123-1.504l2.097.004H17.75a2.75 2.75 0 0 0 2.75-2.75v-10l-.004-.051V5.627ZM17.246 2a2.25 2.25 0 0 1 2.25 2.25v12.997a2.25 2.25 0 0 1-2.25 2.25H4.25A2.25 2.25 0 0 1 2 17.247V4.25A2.25 2.25 0 0 1 4.25 2h12.997ZM13.47 7.47 9.58 11.358 8.6 10.05a.75.75 0 1 0-1.2.9l1.5 2a.75.75 0 0 0 1.13.08l4.5-4.5a.75.75 0 0 0-1.06-1.06Z" fill="#212121"/></svg>