<svg width="24" height="24" fill="none" viewBox="0 0 24 24" xmlns="http://www.w3.org/2000/svg"><path d="M13.25 8.5a.75.75 0 0 0 0 1.5h3.5a.75.75 0 0 0 0-1.5h-3.5Zm-.75 6.25a.75.75 0 0 1 .75-.75h3.5a.75.75 0 1 1 0 1.5h-3.5a.75.75 0 0 1-.75-.75Zm-1.72-7.03a.75.75 0 0 1 0 1.06l-2 2a.75.75 0 0 1-1.06 0l-1-1a.75.75 0 0 1 1.06-1.06l.47.47 1.47-1.47a.75.75 0 0 1 1.06 0Zm0 6.56a.75.75 0 1 0-1.06-1.06l-1.47 1.47-.47-.47a.75.75 0 0 0-1.06 1.06l1 1a.75.75 0 0 0 1.06 0l2-2ZM5.25 3A2.25 2.25 0 0 0 3 5.25v13.5A2.25 2.25 0 0 0 5.25 21h13.5A2.25 2.25 0 0 0 21 18.75V5.25A2.25 2.25 0 0 0 18.75 3H5.25ZM4.5 5.25a.75.75 0 0 1 .75-.75h13.5a.75.75 0 0 1 .75.75v13.5a.75.75 0 0 1-.75.75H5.25a.75.75 0 0 1-.75-.75V5.25Z" fill="#212121"/></svg>