<svg width="24" height="24" fill="none" viewBox="0 0 24 24" xmlns="http://www.w3.org/2000/svg"><path d="M9.75 9a.75.75 0 0 0 0 1.5h4a.75.75 0 0 0 0-1.5h-4ZM5 13.75a.75.75 0 0 1 .75-.75h4a.75.75 0 0 1 0 1.5h-4a.75.75 0 0 1-.75-.75Zm8.75-.75a.75.75 0 0 0 0 1.5h4a.75.75 0 0 0 0-1.5h-4Zm-2-8a5.752 5.752 0 0 0-5.663 4.75H6a4 4 0 0 0 0 8h11.5a4 4 0 0 0 0-8h-.087A5.752 5.752 0 0 0 11.75 5Zm-4.245 5.537a4.25 4.25 0 0 1 8.49 0c.02.4.349.713.749.713h.756a2.5 2.5 0 0 1 0 5H6a2.5 2.5 0 0 1 0-5h.756c.4 0 .73-.314.75-.713Z" fill="#212121"/></svg>