<svg width="24" height="24" fill="none" viewBox="0 0 24 24" xmlns="http://www.w3.org/2000/svg"><path d="M10.5 2.751a.75.75 0 0 0-1.5 0v.752c0 .633.196 1.22.53 1.703A3.753 3.753 0 0 0 7.01 8.49h-.257a2.25 2.25 0 0 1-2.24-2.26l.006-1.485a.75.75 0 1 0-1.5-.006l-.007 1.485A3.75 3.75 0 0 0 6.747 9.99H7v1.51H2.75a.75.75 0 0 0 0 1.5H7v1.992h-.253a3.75 3.75 0 0 0-3.735 3.765l.007 1.486a.75.75 0 0 0 1.5-.006l-.007-1.486a2.25 2.25 0 0 1 2.241-2.259H7.226a5.002 5.002 0 0 0 9.548 0H17.247a2.25 2.25 0 0 1 2.24 2.26l-.006 1.485a.75.75 0 0 0 1.5.006l.006-1.486a3.75 3.75 0 0 0-3.734-3.765H17V13h4.251a.75.75 0 0 0 0-1.5H17V9.99h.253a3.75 3.75 0 0 0 3.735-3.766L20.98 4.74a.75.75 0 0 0-1.5.006l.006 1.486a2.25 2.25 0 0 1-2.24 2.259h-.256a3.753 3.753 0 0 0-2.52-3.284c.333-.484.529-1.07.529-1.703v-.752a.75.75 0 0 0-1.5 0v.752a1.5 1.5 0 0 1-3 0v-.752Zm-2 6.002a2.25 2.25 0 0 1 2.25-2.25h2.5a2.25 2.25 0 0 1 2.25 2.25V15a3.5 3.5 0 1 1-7 0V8.753Z" fill="#212121"/></svg>