<svg width="24" height="24" fill="none" viewBox="0 0 24 24" xmlns="http://www.w3.org/2000/svg"><path d="M11 17.5c0-.34.026-.675.077-1.002H8.906l.058.295c.637 3.11 1.84 5.204 3.038 5.204.21 0 .422-.065.63-.19A6.475 6.475 0 0 1 11 17.5ZM9.165 21.592c-.809-1.24-1.427-3.01-1.792-5.093H3.067a10.03 10.03 0 0 0 6.098 5.093ZM7 11.998c0-.68.024-1.35.07-2H2.2a10.048 10.048 0 0 0 .258 5H7.16l-.057-.58A27.934 27.934 0 0 1 7 11.999ZM15.494 11.315a25.584 25.584 0 0 0-.068-1.317H8.577l-.033.489a25.973 25.973 0 0 0 .132 4.512h2.823a6.523 6.523 0 0 1 3.995-3.684ZM22.003 11.998c0-.684-.069-1.353-.2-2h-4.87l.039.657c.005.12.01.242.013.365a6.48 6.48 0 0 1 4.988 1.763c.02-.259.03-.52.03-.784ZM21.373 8.498a10.027 10.027 0 0 0-6.535-6.093l.108.17.162.276c.797 1.416 1.379 3.382 1.675 5.647h4.59ZM7.282 8.059c.348-2.325 1.002-4.305 1.883-5.654l-.122.037-.304.1a10.03 10.03 0 0 0-6.11 5.956h4.592l.061-.44ZM15.216 8.183C14.646 4.542 13.32 2 12.002 2 10.645 2 9.28 4.69 8.74 8.498h6.521l-.046-.315Z" fill="#212121"/><path d="M23 17.5a5.5 5.5 0 1 0-11 0 5.5 5.5 0 0 0 11 0Zm-5.5 0h2a.5.5 0 0 1 0 1H17a.5.5 0 0 1-.5-.491v-3.01a.5.5 0 0 1 1 0V17.5Z" fill="#212121"/></svg>