<svg width="24" height="24" fill="none" viewBox="0 0 24 24" xmlns="http://www.w3.org/2000/svg"><path d="M5.75 2.02A1.75 1.75 0 0 0 4 3.77v2.5c0 .967.784 1.75 1.75 1.75h12.5A1.75 1.75 0 0 0 20 6.27v-2.5a1.75 1.75 0 0 0-1.75-1.75H5.75ZM5.75 9.02A1.75 1.75 0 0 0 4 10.77v2.5c0 .966.784 1.75 1.75 1.75h12.5A1.75 1.75 0 0 0 20 13.27v-2.5a1.75 1.75 0 0 0-1.75-1.75H5.75ZM5.75 16.02A1.75 1.75 0 0 0 4 17.77v2.5c0 .966.784 1.75 1.75 1.75h12.5A1.75 1.75 0 0 0 20 20.27v-2.5a1.75 1.75 0 0 0-1.75-1.75H5.75Z" fill="#212121"/></svg>