<svg width="24" height="24" fill="none" viewBox="0 0 24 24" xmlns="http://www.w3.org/2000/svg"><path d="m21.695 15.147.084.072a.75.75 0 0 1 .072.977l-.072.084-2.22 2.219 2.22 2.22a.75.75 0 0 1 .072.976l-.072.084a.75.75 0 0 1-.977.072l-.084-.072-2.22-2.22-2.218 2.22a.75.75 0 0 1-.976.072l-.085-.072a.75.75 0 0 1-.072-.977l.072-.084 2.219-2.22-2.218-2.218a.75.75 0 0 1-.073-.976l.072-.085a.75.75 0 0 1 .977-.072l.084.072 2.219 2.219 2.22-2.218a.75.75 0 0 1 .976-.073ZM18.75 3A2.25 2.25 0 0 1 21 5.25v5.25a2.25 2.25 0 0 1-2.25 2.25h-6v6A2.25 2.25 0 0 1 10.5 21H5.25A2.25 2.25 0 0 1 3 18.75V5.25A2.25 2.25 0 0 1 5.25 3h13.5Zm-7.5 9.749H4.5v6.001c0 .414.336.75.75.75h5.25a.75.75 0 0 0 .75-.75v-6.001Zm7.5-8.249h-6v6.75h6a.75.75 0 0 0 .75-.75V5.25a.75.75 0 0 0-.75-.75Zm-7.5 0h-6a.75.75 0 0 0-.75.75v5.999l6.75.001V4.5Z" fill="#212121"/></svg>