<svg width="24" height="24" fill="none" viewBox="0 0 24 24" xmlns="http://www.w3.org/2000/svg"><path d="M17.75 3A3.25 3.25 0 0 1 21 6.25V11a3.764 3.764 0 0 0-1.5-1.188V8.5h-15v9.25c0 .966.784 1.75 1.75 1.75h5.78c.06.522.217 1.028.458 1.5H6.25A3.25 3.25 0 0 1 3 17.75V6.25A3.25 3.25 0 0 1 6.25 3h11.5Zm0 1.5H6.25A1.75 1.75 0 0 0 4.5 6.25V7h15v-.75a1.75 1.75 0 0 0-1.75-1.75Z" fill="#212121"/><path d="M23 18.5a1.5 1.5 0 0 0-1.5-1.5h-7a1.5 1.5 0 0 0-1.5 1.5v.5c0 1.971 1.86 4 5 4 3.14 0 5-2.029 5-4v-.5ZM20.75 13.25a2.75 2.75 0 1 0-5.5 0 2.75 2.75 0 0 0 5.5 0Z" fill="#212121"/></svg>