<svg width="24" height="24" fill="none" viewBox="0 0 24 24" xmlns="http://www.w3.org/2000/svg"><path d="M10.75 13.75a1.25 1.25 0 1 0 0-2.5 1.25 1.25 0 0 0 0 2.5Z" fill="#212121"/><path d="M7.25 5.5a3.5 3.5 0 1 1 7 0v1h1a2.25 2.25 0 0 1 2.25 2.25v7.5a2.25 2.25 0 0 1-2.25 2.25h-9A2.25 2.25 0 0 1 4 16.25v-7.5A2.25 2.25 0 0 1 6.25 6.5h1v-1Zm5.5 0a2 2 0 1 0-4 0v1h4v-1ZM5.5 8.75v7.5c0 .414.336.75.75.75h9a.75.75 0 0 0 .75-.75v-7.5a.75.75 0 0 0-.75-.75h-9a.75.75 0 0 0-.75.75Z" fill="#212121"/><path d="M9.75 21a2.25 2.25 0 0 1-2.122-1.5h8.122a2.75 2.75 0 0 0 2.75-2.75v-6.622A2.25 2.25 0 0 1 20 12.25v4.5A4.25 4.25 0 0 1 15.75 21h-6Z" fill="#212121"/></svg>