<svg width="24" height="24" fill="none" viewBox="0 0 24 24" xmlns="http://www.w3.org/2000/svg"><path d="M10.5 7.751a5.75 5.75 0 0 1 8.38-5.114.75.75 0 0 1 .186 1.197L16.301 6.6l1.06 1.06 2.779-2.778a.75.75 0 0 1 1.193.179 5.75 5.75 0 0 1-6.422 8.284l-7.365 7.618a3.05 3.05 0 0 1-4.387-4.24l7.475-7.734a5.766 5.766 0 0 1-.134-1.238Zm5.75-4.25a4.25 4.25 0 0 0-4.067 5.489.75.75 0 0 1-.178.74l-7.768 8.035a1.55 1.55 0 1 0 2.23 2.156l7.676-7.941a.75.75 0 0 1 .775-.191 4.25 4.25 0 0 0 5.466-5.03l-2.492 2.492a.75.75 0 0 1-1.061 0L14.71 7.13a.75.75 0 0 1 0-1.06l2.466-2.467a4.268 4.268 0 0 0-.926-.102Z" fill="#212121"/></svg>