<svg width="24" height="24" fill="none" viewBox="0 0 24 24" xmlns="http://www.w3.org/2000/svg"><path d="M13.848 11.5H19.5a1 1 0 0 1 0 2h-2.387a4.03 4.03 0 0 1 .998 2.684c0 2.93-3.28 4.915-7.033 4.48-2.328-.271-3.965-1.22-4.827-2.833-.26-.487-.207-1.016.248-1.331.455-.316 1.256-.099 1.516.388.533.998 1.604 1.592 3.294 1.789 2.586.3 4.802-.91 4.802-2.492 0-1.099-.547-1.94-2.107-2.685H5a1 1 0 1 1 0-2H13.848ZM6.987 9.695a5.122 5.122 0 0 1-.298-.51c-.3-.59-.468-1.214-.435-1.835.16-2.965 2.934-4.713 6.602-4.287 2.26.263 3.99 1.084 5.147 2.487a.993.993 0 0 1-.153 1.4c-.426.351-1.049.326-1.4-.1-.813-.985-2.068-1.596-3.825-1.8-2.56-.298-4.371.718-4.371 2.323 0 .714.239 1.22.762 1.81.225.254.647.525 1.265.815H7.192a38.03 38.03 0 0 1-.205-.303Z" fill="#212121"/></svg>