<svg width="24" height="24" fill="none" viewBox="0 0 24 24" xmlns="http://www.w3.org/2000/svg"><path d="M3.441 9.955a4.926 4.926 0 0 0 6.233 7.571l4.256 4.257a.773.773 0 0 0 1.169-1.007l-.075-.087-4.218-4.218a4.927 4.927 0 0 0-7.365-6.516ZM16.654 16.5c-.225 1.287-.548 2.456-.952 3.454l.029.028.125.14c.22.295.344.624.378.952A10.034 10.034 0 0 0 20.96 16.5h-4.306Zm-4.404-.001 2.284 2.287c.202-.6.381-1.268.53-1.992l.057-.294-2.87-.001Zm-2.936-5.45a3.38 3.38 0 1 1-4.78 4.779 3.38 3.38 0 0 1 4.78-4.78Zm6.136-1.05h-3.7a5.935 5.935 0 0 1 .892 5l2.71.001a26.014 26.014 0 0 0 .132-4.512l-.034-.489Zm1.507 0a28.174 28.174 0 0 1-.033 4.42l-.057.58h4.702a10.047 10.047 0 0 0 .258-5h-4.87Zm-2.095-7.593c.88 1.35 1.536 3.329 1.883 5.654l.062.44h4.59a10.03 10.03 0 0 0-6.109-5.958l-.304-.1-.122-.036ZM12.026 2c-1.277 0-2.561 2.382-3.158 5.839.464.16.912.38 1.331.658l5.088.001c-.54-3.809-1.905-6.498-3.261-6.498Zm-2.837.405a10.027 10.027 0 0 0-6.535 6.093h.995a5.921 5.921 0 0 1 3.743-.968c.322-1.858.846-3.47 1.527-4.68l.162-.275.108-.17Z" fill="#212121"/></svg>