<svg width="24" height="24" fill="none" viewBox="0 0 24 24" xmlns="http://www.w3.org/2000/svg"><path d="m13.94 5 5.061 5.06-.962.962a6.5 6.5 0 0 0-7.016 7.016l-1.96 1.96a2.25 2.25 0 0 1-1 .58l-5.115 1.395a.75.75 0 0 1-.92-.92l1.394-5.116a2.25 2.25 0 0 1 .58-1L13.94 5Zm7.091-2.03a3.579 3.579 0 0 1 0 5.06l-.97.97L15 3.94l.97-.97a3.578 3.578 0 0 1 5.061 0ZM14.28 13.974a2 2 0 0 1-1.441 2.497l-.584.144a5.729 5.729 0 0 0 .006 1.807l.54.13a2 2 0 0 1 1.45 2.51l-.187.632c.44.386.94.699 1.484.921l.494-.518a2 2 0 0 1 2.899 0l.498.525a5.28 5.28 0 0 0 1.483-.913l-.198-.686a2 2 0 0 1 1.442-2.496l.583-.144a5.729 5.729 0 0 0-.006-1.808l-.54-.13a2 2 0 0 1-1.45-2.51l.187-.63a5.28 5.28 0 0 0-1.484-.923l-.493.519a2 2 0 0 1-2.9 0l-.498-.525c-.544.22-1.044.53-1.483.912l.198.686ZM17.501 19c-.8 0-1.45-.672-1.45-1.5 0-.829.65-1.5 1.45-1.5.8 0 1.45.671 1.45 1.5 0 .828-.65 1.5-1.45 1.5Z" fill="#212121"/></svg>