<svg width="24" height="24" fill="none" viewBox="0 0 24 24" xmlns="http://www.w3.org/2000/svg"><path d="M10.75 20a.75.75 0 1 1 0 1.5.75.75 0 0 1 0-1.5Zm4.5 0a.75.75 0 1 1 0 1.5.75.75 0 0 1 0-1.5ZM8.5 19a.75.75 0 1 1 0 1.5.75.75 0 0 1 0-1.5Zm4.5 0a.75.75 0 1 1 0 1.5.75.75 0 0 1 0-1.5Zm4.5 0a.75.75 0 1 1 0 1.5.75.75 0 0 1 0-1.5ZM13.002 6.01c3.169 0 4.966 2.097 5.228 4.63h.08a3.687 3.687 0 0 1 3.692 3.683 3.687 3.687 0 0 1-3.692 3.682H7.694a3.687 3.687 0 0 1-3.692-3.682 3.687 3.687 0 0 1 3.692-3.683h.08c.263-2.55 2.059-4.63 5.227-4.63Zm0 1.498c-2.071 0-3.877 1.633-3.877 3.889 0 .357-.319.638-.684.638h-.69c-1.261 0-2.284 1.001-2.284 2.236 0 1.235 1.023 2.237 2.284 2.237h10.503c1.26 0 2.283-1.002 2.283-2.237s-1.022-2.236-2.283-2.236h-.691c-.365 0-.684-.28-.684-.638 0-2.285-1.806-3.89-3.877-3.89Zm-8.634 2.658a.75.75 0 0 1-.315.934l-.091.046-.926.383a.75.75 0 0 1-.666-1.34l.092-.046.926-.383a.75.75 0 0 1 .98.406Zm6.487-4.834-.172.058a5.822 5.822 0 0 0-1.46.758A2.442 2.442 0 0 0 6.43 9.815a4.611 4.611 0 0 0-1.366.64 3.942 3.942 0 0 1 5.791-5.122Zm-7.914.031.106.035.926.384a.75.75 0 0 1-.469 1.42L3.4 7.169l-.926-.384a.75.75 0 0 1 .468-1.42Zm3.815-2.986.046.091.383.927a.75.75 0 0 1-1.34.665l-.046-.091-.383-.927a.75.75 0 0 1 1.34-.665Zm4.354-.318a.75.75 0 0 1 .44.874l-.035.105-.383.927a.75.75 0 0 1-1.42-.469l.034-.105.384-.927a.75.75 0 0 1 .98-.405Z" fill="#212121"/></svg>