<svg width="24" height="24" fill="none" viewBox="0 0 24 24" xmlns="http://www.w3.org/2000/svg"><path d="m9.256 16.883.238-1.5h1.481l-.237 1.5H9.256Z" fill="#212121"/><path d="M17.75 2.001a2.25 2.25 0 0 1 2.245 2.096L20 4.25v15.498a2.25 2.25 0 0 1-2.096 2.245l-.154.005H6.25a2.25 2.25 0 0 1-2.245-2.096L4 19.75V4.251a2.25 2.25 0 0 1 2.096-2.245l.154-.005h11.5Zm-7.355 17.043a.75.75 0 1 0 1.482.234l.142-.895h.731a.75.75 0 0 0 0-1.5h-.494l.238-1.5h.756a.75.75 0 0 0 0-1.5h-.519l.162-1.025a.75.75 0 1 0-1.481-.235l-.2 1.26h-1.48l.161-1.025a.75.75 0 1 0-1.481-.235l-.2 1.26H7.25a.75.75 0 0 0 0 1.5h.725l-.237 1.5H6.75a.75.75 0 0 0 0 1.5h.75l-.105.66a.75.75 0 0 0 1.482.235l.142-.895H10.5l-.105.66Z" fill="#212121"/></svg>