<svg width="24" height="24" fill="none" viewBox="0 0 24 24" xmlns="http://www.w3.org/2000/svg"><path d="m10.05 15.42 6.256-8.475a.694.694 0 0 1 1.235.57l-.03.098-3.87 9.799a2.07 2.07 0 1 1-3.737-1.765l.069-.116.076-.11 6.257-8.476-6.257 8.476Zm8.56-8.006a10.66 10.66 0 0 1 2.022 2.172c.524.749 1.03 1.656 1.32 2.398a.75.75 0 1 1-1.397.547 8.238 8.238 0 0 0-.378-.812l-2.05 1.183a.75.75 0 0 1-.834-1.242l.085-.057 2.018-1.166-.23-.314a9.156 9.156 0 0 0-1.058-1.16l.38-.964c.038-.096.067-.194.087-.292l.024-.147.01-.146Zm-2.63-1.561a1.715 1.715 0 0 0-.406.328l-.114.14-.54.733a9.205 9.205 0 0 0-2.17-.47v2.672a.75.75 0 0 1-1.493.102l-.007-.102v-2.69A9.108 9.108 0 0 0 6.658 8.2c-.816.572-1.528 1.322-2.119 2.205l2.082 1.202a.75.75 0 0 1-.658 1.344l-.092-.045-2.074-1.197c-.128.266-.246.54-.356.821a.75.75 0 0 1-1.398-.543c.807-2.075 2.08-3.843 3.754-5.016a10.642 10.642 0 0 1 10.183-1.117Z" fill="#212121"/></svg>