<svg width="24" height="24" fill="none" viewBox="0 0 24 24" xmlns="http://www.w3.org/2000/svg"><path d="M2.75 4a.75.75 0 0 0 0 1.5h1.14a1.75 1.75 0 0 1 1.676 1.247L6.242 9H2.75a.75.75 0 0 0 0 1.5h4c.966 0 1.75.784 1.75 1.75v2.5c0 .281-.093.54-.25.75a3.251 3.251 0 1 0 .217 1.717A2.75 2.75 0 0 0 10 14.75v-2.5a3.251 3.251 0 0 0-2.133-3.053l-.864-2.88A3.25 3.25 0 0 0 3.89 4H2.75Zm.75 12.75a1.75 1.75 0 1 1 3.5 0 1.75 1.75 0 0 1-3.5 0Zm16.165-10.4a1.75 1.75 0 0 1 1.5-.85h.085a.75.75 0 0 0 0-1.5h-.084a3.25 3.25 0 0 0-2.787 1.578l-2.15 3.583-2.799 1.244a3.25 3.25 0 0 0-1.93 2.97v1.375a2.75 2.75 0 0 0 2.586 2.745 3.251 3.251 0 0 0 6.327.005h.837a.75.75 0 0 0 0-1.5h-.837a3.251 3.251 0 0 0-6.324-.01A1.25 1.25 0 0 1 13 14.75v-1.375a1.75 1.75 0 0 1 1.04-1.6l2.87-1.275h4.34a.75.75 0 0 0 0-1.5h-3.175l1.59-2.65ZM15.5 16.75a1.75 1.75 0 1 1 3.5 0 1.75 1.75 0 0 1-3.5 0ZM10.25 5a.75.75 0 0 1 .75.75v2a.75.75 0 0 1-1.5 0v-2a.75.75 0 0 1 .75-.75Zm4.1 2.7a.75.75 0 1 0-1.2-.9l-1.5 2a.75.75 0 1 0 1.2.9l1.5-2Z" fill="#212121"/></svg>