<svg width="24" height="24" fill="none" viewBox="0 0 24 24" xmlns="http://www.w3.org/2000/svg"><path d="M22.143 3.302c-.328-.547-.665-.921-.913-1.128a.75.75 0 0 0-.96 1.152c.127.106.353.357.587.747.401.67.643 1.475.643 2.427s-.242 1.758-.643 2.427c-.234.39-.46.641-.587.747a.75.75 0 0 0 .96 1.152c.248-.207.585-.58.913-1.128C22.68 8.805 23 7.736 23 6.5s-.32-2.305-.857-3.198Zm-2.269 1.094a3.075 3.075 0 0 0-.674-.746.75.75 0 0 0-.9 1.2c.062.046.19.175.326.379.234.35.374.77.374 1.271 0 .5-.14.92-.374 1.271a1.681 1.681 0 0 1-.326.379l-.084.073A.75.75 0 0 0 19.2 9.35c.189-.141.435-.388.674-.746A3.734 3.734 0 0 0 20.5 6.5c0-.812-.235-1.517-.626-2.104ZM17 3.75a.75.75 0 0 0-1.314-.494L14.16 5h-1.41a.75.75 0 0 0-.75.75v1.5c0 .414.336.75.75.75h1.41l1.526 1.744A.75.75 0 0 0 17 9.25v-5.5ZM11 5c0-.254.095-.486.25-.662v-.32a1.766 1.766 0 0 0-.245-.017H3.757a1.75 1.75 0 0 0-1.75 1.75v12.495c0 .967.784 1.75 1.75 1.75h7.248c.083 0 .165-.006.245-.017V8.662A.996.996 0 0 1 11 8V5ZM9.25 15.5l.102.007a.75.75 0 0 1 0 1.486L9.25 17H7.75l-.102-.007a.75.75 0 0 1 0-1.486l.102-.007H9.25ZM13.533 9h-.784v10.98c.084.012.17.018.256.018h7.248a1.75 1.75 0 0 0 1.75-1.75v-6.77c-.045.042-.09.08-.133.116a1.75 1.75 0 0 1-2.855-1.114 1.755 1.755 0 0 1-1.238-.275c-.54.955-1.942 1.25-2.804.33L13.533 9Zm2.713 6.5.102.007a.75.75 0 0 1 0 1.486l-.102.007h-1.5l-.102-.007a.75.75 0 0 1 0-1.486l.102-.007h1.5Z" fill="#212121"/></svg>