<svg width="24" height="24" fill="none" viewBox="0 0 24 24" xmlns="http://www.w3.org/2000/svg"><path d="M5.25 3A3.25 3.25 0 0 0 2 6.25v8.5A2.25 2.25 0 0 0 4.25 17h.25V8.75A3.25 3.25 0 0 1 7.75 5.5H19v-.25A2.25 2.25 0 0 0 16.75 3H5.25Z" fill="#212121"/><path d="M7.75 6.5A2.25 2.25 0 0 0 5.5 8.75v9.5a2.25 2.25 0 0 0 2.25 2.25h3.982A6.5 6.5 0 0 1 22 12.81V8.75a2.25 2.25 0 0 0-2.25-2.25h-12Z" fill="#212121"/><path d="M23 17.5a5.5 5.5 0 1 1-11 0 5.5 5.5 0 0 1 11 0Zm-8.5-.5a.5.5 0 0 0 0 1h4.793l-1.647 1.646a.5.5 0 0 0 .708.708l2.5-2.5a.5.5 0 0 0 0-.708l-2.5-2.5a.5.5 0 0 0-.708.708L19.293 17H14.5Z" fill="#212121"/></svg>