<svg width="24" height="24" fill="none" viewBox="0 0 24 24" xmlns="http://www.w3.org/2000/svg"><path d="M11.158 20.476c.065.53.24 1.05.525 1.522-2.99-.06-5.268-.965-6.781-2.737a3.75 3.75 0 0 1-.898-2.435v-.577a2.249 2.249 0 0 1 2.249-2.25h9.273l-1.5 1.5H6.253a.749.749 0 0 0-.75.75v.577c0 .536.192 1.054.54 1.461 1.12 1.313 2.811 2.048 5.115 2.189ZM12 2.004a5 5 0 1 1 0 10 5 5 0 0 1 0-10Zm0 1.5a3.5 3.5 0 1 0 0 7 3.5 3.5 0 0 0 0-7Zm10.03 9.466a2.871 2.871 0 0 0-4.06 0l-5 5a2.871 2.871 0 1 0 4.06 4.06l5-5a2.871 2.871 0 0 0 0-4.06Zm-3 1.06a1.371 1.371 0 1 1 1.94 1.94L19 17.94 17.06 16l1.97-1.97Zm-2 4.94a.75.75 0 0 1 0 1.06l-1 1a.75.75 0 1 1-1.06-1.06l1-1a.75.75 0 0 1 1.06 0Z" fill="#212121"/></svg>