<svg width="24" height="24" fill="none" viewBox="0 0 24 24" xmlns="http://www.w3.org/2000/svg"><path d="M11.75 2.25A5.752 5.752 0 0 0 6.087 7H6a4 4 0 1 0 0 8h7.155l.142-.424a3.03 3.03 0 0 1 .627-1.076H6a2.5 2.5 0 0 1 0-5h.756c.4 0 .73-.314.75-.713a4.25 4.25 0 0 1 8.489 0c.02.4.349.713.749.713h.756a2.5 2.5 0 0 1 2.292 1.5h1.458c.042 0 .084.002.125.004A4.002 4.002 0 0 0 17.5 7h-.087a5.752 5.752 0 0 0-5.663-4.75Zm4.75 9.5a.75.75 0 0 1 .75-.75h4a.75.75 0 0 1 .75.75v4a.75.75 0 0 1-.75.75h-4a.75.75 0 0 1-.75-.75V15h-.323a.536.536 0 0 0-.508.366l-.914 2.742a2.036 2.036 0 0 1-1.932 1.392H12v1.75a.75.75 0 0 1-.75.75h-4a.75.75 0 0 1-.75-.75v-4a.75.75 0 0 1 .75-.75h4a.75.75 0 0 1 .75.75V18h.823c.23 0 .436-.148.508-.366l.914-2.742a2.036 2.036 0 0 1 1.932-1.392h.323v-1.75Zm1.5 2.518V15h2.5v-2.5H18v1.732a1.056 1.056 0 0 1 0 .036ZM8 18v2.5h2.5V18H8Z" fill="#212121"/></svg>