<svg width="24" height="24" fill="none" viewBox="0 0 24 24" xmlns="http://www.w3.org/2000/svg"><path d="M12.022 3a6.473 6.473 0 0 0-.709 1.5H5.25A1.75 1.75 0 0 0 3.5 6.25v8.5c0 .966.784 1.75 1.75 1.75h2.249v3.75l5.015-3.75h6.236a1.75 1.75 0 0 0 1.75-1.75l.001-2.483a6.517 6.517 0 0 0 1.5-1.077L22 14.75A3.25 3.25 0 0 1 18.75 18h-5.738L8 21.75a1.25 1.25 0 0 1-1.999-1V18h-.75A3.25 3.25 0 0 1 2 14.75v-8.5A3.25 3.25 0 0 1 5.25 3h6.772ZM17.5 1a5.5 5.5 0 1 1 0 11 5.5 5.5 0 0 1 0-11Zm0 1.5-.09.008a.5.5 0 0 0-.402.402L17 3l-.001 3H14l-.09.008a.5.5 0 0 0-.402.402l-.008.09.008.09a.5.5 0 0 0 .402.402L14 7h2.999L17 10l.008.09a.5.5 0 0 0 .402.402l.09.008.09-.008a.5.5 0 0 0 .402-.402L18 10l-.001-3H21l.09-.008a.5.5 0 0 0 .402-.402l.008-.09-.008-.09a.5.5 0 0 0-.402-.402L21 6h-3.001L18 3l-.008-.09a.5.5 0 0 0-.402-.402L17.5 2.5Z" fill="#212121"/></svg>