<svg width="24" height="24" fill="none" viewBox="0 0 24 24" xmlns="http://www.w3.org/2000/svg"><path d="M18.823 11.128a5.001 5.001 0 0 0 1.966-2.691c.1.135.194.276.282.423.604.998.929 2.203.929 3.64 0 2.206-.833 3.75-1.68 4.738A6.737 6.737 0 0 1 19 18.421v1.83A1.75 1.75 0 0 1 17.25 22H16a1.5 1.5 0 0 1-1.5-1.5h-2A1.5 1.5 0 0 1 11 22H9.75A1.75 1.75 0 0 1 8 20.25v-.684a6.992 6.992 0 0 1-.464-.175A6.457 6.457 0 0 1 5.47 18.03a9.863 9.863 0 0 1-1.605-2.13.49.49 0 0 0-.329-.259A1.838 1.838 0 0 1 2 13.828v-1.753c0-.843.61-1.562 1.44-1.7.087-.015.216-.101.277-.284.192-.576.565-1.434 1.253-2.121a7.944 7.944 0 0 1 1.658-1.246c.136-.078.262-.145.372-.201V3.67c0-.938 1.13-1.323 1.74-.716.33.329.81.768 1.341 1.134.53.366 1.037.607 1.454.66a5 5 0 0 0-.45 3.175c.181.958.914 1.563 1.602 1.848l3.696 1.53c.689.286 1.634.376 2.44-.174ZM8 11a1 1 0 1 0 0-2 1 1 0 0 0 0 2Z" fill="#212121"/><path d="M18.259 10.302a4.006 4.006 0 0 0 1.708-2.78 4 4 0 1 0-7.899.217c.025.13.069.252.13.364.05.094.11.18.18.26.182.21.426.375.692.485l3.696 1.53c.49.204 1.055.223 1.493-.076Z" fill="#212121"/></svg>