<svg width="24" height="24" fill="none" viewBox="0 0 24 24" xmlns="http://www.w3.org/2000/svg"><path d="M10.005 9.098V4c0-.872 1.027-1.31 1.656-.756l.08.078 4.57 4.951a1 1 0 0 1-.006 1.364l-.089.083-2.733 2.278 2.734 2.28a1 1 0 0 1 .17 1.353l-.076.093-4.57 4.954c-.592.641-1.643.267-1.73-.567l-.005-.11v-5.106l-.64.533a1 1 0 0 1-1.372-1.45l.091-.086 1.92-1.6v-.59L8.085 10.1a1 1 0 0 1 1.18-1.61l.1.074.64.534V4v5.098Zm2 4.272v4.072l2.123-2.301-2.123-1.77ZM17 11a1 1 0 1 1 0 2 1 1 0 0 1 0-2ZM6 11a1 1 0 1 1 0 2 1 1 0 0 1 0-2Zm6.005-4.442v4.067l2.123-1.768-2.123-2.3Z" fill="#212121"/></svg>