<svg width="24" height="24" fill="none" viewBox="0 0 24 24" xmlns="http://www.w3.org/2000/svg"><path d="M8.75 8.25a1 1 0 1 1-2 0 1 1 0 0 1 2 0ZM10.5 8.25a.75.75 0 0 1 .75-.75h5.5a.75.75 0 0 1 0 1.5h-5.5a.75.75 0 0 1-.75-.75ZM10.5 12a.75.75 0 0 1 .75-.75h5.5a.75.75 0 1 1 0 1.5h-5.5a.75.75 0 0 1-.75-.75ZM11.25 15a.75.75 0 1 0 0 1.5h5.5a.75.75 0 1 0 0-1.5h-5.5ZM7.75 13a1 1 0 1 0 0-2 1 1 0 0 0 0 2ZM8.75 15.75a1 1 0 1 1-2 0 1 1 0 0 1 2 0Z" fill="#212121"/><path d="M5.25 3A2.25 2.25 0 0 0 3 5.25v13.5A2.25 2.25 0 0 0 5.25 21h13.5A2.25 2.25 0 0 0 21 18.75V5.25A2.25 2.25 0 0 0 18.75 3H5.25ZM4.5 5.25a.75.75 0 0 1 .75-.75h13.5a.75.75 0 0 1 .75.75v13.5a.75.75 0 0 1-.75.75H5.25a.75.75 0 0 1-.75-.75V5.25Z" fill="#212121"/></svg>