<svg width="24" height="24" fill="none" viewBox="0 0 24 24" xmlns="http://www.w3.org/2000/svg"><path d="M10.75 20.003a.75.75 0 1 1 0 1.5.75.75 0 0 1 0-1.5Zm4.5 0a.75.75 0 1 1 0 1.5.75.75 0 0 1 0-1.5Zm-6.75-1a.75.75 0 1 1 0 1.5.75.75 0 0 1 0-1.5Zm4.5 0a.75.75 0 1 1 0 1.5.75.75 0 0 1 0-1.5Zm4.5 0a.75.75 0 1 1 0 1.5.75.75 0 0 1 0-1.5ZM13.001 6.017c3.169 0 4.966 2.098 5.228 4.63h.08A3.687 3.687 0 0 1 22 14.33a3.687 3.687 0 0 1-3.692 3.683H7.694a3.687 3.687 0 0 1-3.692-3.683 3.687 3.687 0 0 1 3.692-3.682h.08c.263-2.55 2.059-4.63 5.227-4.63Zm0 1.498c-2.071 0-3.877 1.633-3.877 3.89 0 .357-.319.637-.684.637h-.69c-1.261 0-2.284 1.002-2.284 2.237s1.023 2.236 2.284 2.236h10.503c1.26 0 2.283-1.001 2.283-2.236 0-1.236-1.023-2.237-2.284-2.237h-.69c-.365 0-.684-.28-.684-.638 0-2.285-1.806-3.889-3.877-3.889ZM6.588 2.01a5.058 5.058 0 0 1 2.263.673A5.056 5.056 0 0 1 11.06 5.28c-.5.14-.963.337-1.386.584A3.555 3.555 0 0 0 7.484 3.7c.16 1.351-.048 2.513-.623 3.61l-.118.214c-.57.976-1.432 1.707-2.718 2.304a3.605 3.605 0 0 0 1.069.614 4.66 4.66 0 0 0-1.165 1.119l-.155-.085a5.06 5.06 0 0 1-1.642-1.514.75.75 0 0 1 .365-1.133c1.643-.588 2.528-1.25 3.034-2.215.553-1.055.655-2.174.288-3.678a.75.75 0 0 1 .77-.927Z" fill="#212121"/></svg>