<svg width="24" height="24" fill="none" viewBox="0 0 24 24" xmlns="http://www.w3.org/2000/svg"><path d="M3 6a1 1 0 0 1 1-1h6a1 1 0 1 1 0 2H4a1 1 0 0 1-1-1ZM3 10a1 1 0 0 1 1-1h6a1 1 0 1 1 0 2H4a1 1 0 0 1-1-1ZM3 14a1 1 0 0 1 1-1h6a1 1 0 1 1 0 2H4a1 1 0 0 1-1-1ZM3 18a1 1 0 0 1 1-1h6a1 1 0 1 1 0 2H4a1 1 0 0 1-1-1ZM13 6a1 1 0 0 1 1-1h6a1 1 0 1 1 0 2h-6a1 1 0 0 1-1-1ZM13 10a1 1 0 0 1 1-1h6a1 1 0 1 1 0 2h-6a1 1 0 0 1-1-1ZM13 14a1 1 0 0 1 1-1h6a1 1 0 1 1 0 2h-6a1 1 0 0 1-1-1ZM13 18a1 1 0 0 1 1-1h6a1 1 0 1 1 0 2h-6a1 1 0 0 1-1-1Z" fill="#212121"/></svg>