<svg width="24" height="24" fill="none" viewBox="0 0 24 24" xmlns="http://www.w3.org/2000/svg"><path d="M15 8.5h-2.25v7h.5a.75.75 0 0 1 0 1.5h-2.5a.75.75 0 0 1 0-1.5h.5v-7H9v.75a.75.75 0 1 1-1.5 0v-1.5A.75.75 0 0 1 8.25 7h7.5a.75.75 0 0 1 .75.75v1.5a.75.75 0 0 1-1.5 0V8.5Z" fill="#212121"/><path d="M5.75 4A3.75 3.75 0 0 0 2 7.75v8.5A3.75 3.75 0 0 0 5.75 20h12.5A3.75 3.75 0 0 0 22 16.25v-8.5A3.75 3.75 0 0 0 18.25 4H5.75ZM3.5 7.75A2.25 2.25 0 0 1 5.75 5.5h12.5a2.25 2.25 0 0 1 2.25 2.25v8.5a2.25 2.25 0 0 1-2.25 2.25H5.75a2.25 2.25 0 0 1-2.25-2.25v-8.5Z" fill="#212121"/></svg>