<svg width="24" height="24" fill="none" viewBox="0 0 24 24" xmlns="http://www.w3.org/2000/svg"><path d="M17.5 12a5.5 5.5 0 1 1 0 11 5.5 5.5 0 0 1 0-11Zm-5.478 2a6.474 6.474 0 0 0-.708 1.5h-7.06a.75.75 0 0 0-.75.75v.907c0 .656.286 1.279.783 1.706C5.545 19.945 7.44 20.501 10 20.501c.599 0 1.162-.03 1.688-.091.25.5.563.964.93 1.38-.803.141-1.676.21-2.618.21-2.89 0-5.128-.656-6.691-2a3.75 3.75 0 0 1-1.305-2.843v-.907A2.25 2.25 0 0 1 4.254 14h7.768Zm4.697.588-.069.058-2.515 2.517-.041.05-.035.058-.032.078-.012.043-.01.086.003.088.019.085.032.078.025.042.05.066 2.516 2.516a.5.5 0 0 0 .765-.638l-.058-.069L15.711 18h4.79a.5.5 0 0 0 .491-.41L21 17.5a.5.5 0 0 0-.41-.492L20.5 17h-4.789l1.646-1.647a.5.5 0 0 0 .058-.637l-.058-.07a.5.5 0 0 0-.638-.058ZM10 2.004a5 5 0 1 1 0 10 5 5 0 0 1 0-10Zm0 1.5a3.5 3.5 0 1 0 0 7 3.5 3.5 0 0 0 0-7Z" fill="#212121"/></svg>