<svg width="24" height="24" fill="none" viewBox="0 0 24 24" xmlns="http://www.w3.org/2000/svg"><path d="M2 6.75A2.75 2.75 0 0 1 4.75 4h14.5A2.75 2.75 0 0 1 22 6.75v6.06A6.5 6.5 0 0 0 11.498 20H4.75A2.75 2.75 0 0 1 2 17.25V6.75Zm12.278 7.225a2 2 0 0 1-1.441 2.497l-.584.144a5.729 5.729 0 0 0 .006 1.807l.54.13a2 2 0 0 1 1.45 2.51l-.187.632c.44.386.94.699 1.484.921l.494-.518a2 2 0 0 1 2.899 0l.498.525a5.281 5.281 0 0 0 1.483-.913l-.198-.686a2 2 0 0 1 1.441-2.496l.584-.144a5.716 5.716 0 0 0-.006-1.808l-.54-.13a2 2 0 0 1-1.45-2.51l.187-.63a5.278 5.278 0 0 0-1.484-.923l-.493.519a2 2 0 0 1-2.9 0l-.498-.525c-.544.22-1.044.53-1.483.912l.198.686ZM17.5 19c-.8 0-1.45-.672-1.45-1.5 0-.829.65-1.5 1.45-1.5.8 0 1.45.671 1.45 1.5 0 .828-.65 1.5-1.45 1.5Z" fill="#212121"/></svg>