<svg width="24" height="24" fill="none" viewBox="0 0 24 24" xmlns="http://www.w3.org/2000/svg"><path d="M12.835 3.162a.747.747 0 0 0 .147-.148h2.562l.035-.001a5.372 5.372 0 0 1 .545 0h.038a3.818 3.818 0 0 1 1.646.369 5.223 5.223 0 0 1 2.34 1.822 5.208 5.208 0 0 1 .804 4.348l-3.281-3.237a.75.75 0 0 0-.527-.216h-4.745a.762.762 0 0 0-.453.152l-1.884 1.428a.968.968 0 0 1-1.358-.184.952.952 0 0 1 .181-1.34l3.95-2.993ZM7.898 14.236l-.013.013-.974.968-.013.012a.906.906 0 0 1-1.261-.012.892.892 0 0 1 0-1.267l.974-.968a.906.906 0 0 1 1.275 0 .892.892 0 0 1 .012 1.254ZM7.608 15.934a.892.892 0 0 0 .013 1.254c.352.35.922.35 1.275 0l.974-.967a.892.892 0 0 0-.14-1.381.906.906 0 0 0-1.122.1l-.013.014-.974.967-.013.013ZM5.5 11.408a.892.892 0 0 1 0 1.267l-.973.968a.906.906 0 0 1-1.276 0 .892.892 0 0 1 0-1.267l.975-.968a.906.906 0 0 1 1.275 0ZM11.854 16.925a.892.892 0 0 1 0 1.267l-.974.968a.902.902 0 0 1-1.275 0 .892.892 0 0 1-.172-1.028l.001-.002a.894.894 0 0 1 .171-.237l.974-.968a.906.906 0 0 1 1.275 0Z" fill="#212121"/><path d="M5.344 4.831a6.179 6.179 0 0 1 5.112-1.749L7.979 4.96a2.452 2.452 0 0 0-.466 3.448 2.473 2.473 0 0 0 3.454.467L12.651 7.6h4.185l3.507 3.46a.52.52 0 0 0 .036.04l1.15 1.15a1.439 1.439 0 0 1-1.936 2.124l-.096-.096a.508.508 0 0 0-.06-.052l-1.093-1.092a.5.5 0 1 0-.707.707l1.15 1.15c.042.041.084.081.128.119l.044.044a1.02 1.02 0 0 1-1.441 1.441l-.17-.169a.5.5 0 0 0-.853.363.499.499 0 0 0 .147.365l.223.223a.943.943 0 1 1-1.333 1.333h-.002l-.011-.013-.21-.21a.5.5 0 1 0-.707.707l.218.219a.96.96 0 0 1-1.35 1.367l-1.431-1.36.524-.522a1.884 1.884 0 0 0 0-2.676 1.906 1.906 0 0 0-1.428-.553 1.88 1.88 0 0 0-.556-1.42 1.906 1.906 0 0 0-1.428-.552 1.881 1.881 0 0 0-.556-1.419 1.912 1.912 0 0 0-1.844-.49 1.88 1.88 0 0 0-.541-1.084 1.914 1.914 0 0 0-2.514-.158 6.096 6.096 0 0 1 1.648-5.714Z" fill="#212121"/></svg>