<svg width="24" height="24" fill="none" viewBox="0 0 24 24" xmlns="http://www.w3.org/2000/svg"><path d="M17.5 12a5.5 5.5 0 1 1 0 11 5.5 5.5 0 0 1 0-11Zm-2.476 3.024a.5.5 0 0 0 0 .707l1.769 1.77-1.767 1.766a.5.5 0 1 0 .707.708l1.767-1.767 1.77 1.769a.5.5 0 1 0 .707-.707L18.208 17.5l1.771-1.77a.5.5 0 0 0-.707-.707l-1.771 1.77-1.77-1.77a.5.5 0 0 0-.707 0ZM11.019 17H2.75l-.102.007A.75.75 0 0 0 2.75 18.5h8.326a6.554 6.554 0 0 1-.057-1.5ZM11.732 14.5H2.75a.75.75 0 0 1-.102-1.493L2.75 13h10.06c-.427.444-.79.949-1.078 1.5ZM21.25 9H2.75l-.102.007A.75.75 0 0 0 2.75 10.5h18.5l.102-.007A.75.75 0 0 0 21.25 9ZM21.25 5H2.75l-.102.007A.75.75 0 0 0 2.75 6.5h18.5l.102-.007A.75.75 0 0 0 21.25 5Z" fill="#212121"/></svg>