<svg width="24" height="24" fill="none" viewBox="0 0 24 24" xmlns="http://www.w3.org/2000/svg"><path d="M12 1.999c5.524 0 10.002 4.478 10.002 10.002 0 5.523-4.478 10.001-10.002 10.001-5.524 0-10.002-4.478-10.002-10.001C1.998 6.477 6.476 1.999 12 1.999Zm0 11.499a5.985 5.985 0 0 0-4.288 1.803.75.75 0 0 0 1.072 1.05A4.485 4.485 0 0 1 12 14.997c1.225 0 2.37.49 3.211 1.347a.75.75 0 0 0 1.07-1.051A5.985 5.985 0 0 0 12 13.498ZM9 8.751a1.25 1.25 0 1 0 0 2.499A1.25 1.25 0 0 0 9 8.75Zm6 0a1.25 1.25 0 1 0 0 2.499 1.25 1.25 0 0 0 0-2.499Z" fill="#212121"/></svg>