<svg width="24" height="24" fill="none" viewBox="0 0 24 24" xmlns="http://www.w3.org/2000/svg"><path d="M16.5 17.985c0 2.442-1.14 4.198-3.007 4.198-.975 0-1.341-.542-1.69-1.795l-.207-.772c-.101-.359-.277-.97-.527-1.831a.249.249 0 0 0-.03-.065l-2.866-4.486a5.886 5.886 0 0 0-2.855-2.327l-.473-.18A2.75 2.75 0 0 1 3.13 7.634l.404-2.087A3.25 3.25 0 0 1 5.95 3.011l7.628-1.87a4.75 4.75 0 0 1 5.733 3.44l1.415 5.55a3.25 3.25 0 0 1-3.15 4.052h-1.822c.496 1.633.746 2.893.746 3.802ZM4.6 7.92a1.25 1.25 0 0 0 .78 1.405l.474.182a7.385 7.385 0 0 1 3.582 2.92l2.867 4.485c.09.14.159.294.205.454l.552 1.92.212.792c.14.488.21.605.22.605.868 0 1.507-.984 1.507-2.698 0-.885-.326-2.336-.984-4.315a.75.75 0 0 1 .711-.987h2.85a1.751 1.751 0 0 0 1.696-2.182l-1.415-5.55a3.25 3.25 0 0 0-3.923-2.353l-7.628 1.87a1.75 1.75 0 0 0-1.301 1.366L4.6 7.92Z" fill="#212121"/></svg>