<svg width="24" height="24" fill="none" viewBox="0 0 24 24" xmlns="http://www.w3.org/2000/svg"><path d="M16.25 20.5a.75.75 0 0 1 .102 1.493L16.25 22h-8.5a.75.75 0 0 1-.102-1.494l.102-.006h8.5ZM11.007 2.37a1.75 1.75 0 0 1 2.23.203l.107.118 7.865 9.438a1.75 1.75 0 0 1-1.2 2.865l-.144.005h-2.866L17 17.25a1.75 1.75 0 0 1-1.458 1.726l-.149.019-.143.006h-6.5a1.75 1.75 0 0 1-1.744-1.607L7 17.25 6.999 15H4.135a1.75 1.75 0 0 1-.832-.211l-.149-.09-.14-.105a1.75 1.75 0 0 1-.32-2.338l.097-.127 7.865-9.438.107-.117.117-.107.127-.096Zm1.185 1.282a.25.25 0 0 0-.295-.068l-.057.036-.032.032-7.865 9.438a.25.25 0 0 0 .135.403l.057.006H7.75a.75.75 0 0 1 .743.649l.007.101v3a.25.25 0 0 0 .193.244l.057.007h6.5a.25.25 0 0 0 .243-.193l.007-.057v-3a.75.75 0 0 1 .648-.744l.102-.007h3.615a.25.25 0 0 0 .224-.361l-.032-.049-7.865-9.437Z" fill="#212121"/></svg>