<svg width="24" height="24" fill="none" viewBox="0 0 24 24" xmlns="http://www.w3.org/2000/svg"><path d="M9.75 18.151a.75.75 0 1 1 0 1.5.75.75 0 0 1 0-1.5Zm4.5 0a.75.75 0 1 1 0 1.5.75.75 0 0 1 0-1.5Zm-6.75-1a.75.75 0 1 1 0 1.5.75.75 0 0 1 0-1.5Zm4.5 0a.75.75 0 1 1 0 1.5.75.75 0 0 1 0-1.5Zm4.5 0a.75.75 0 1 1 0 1.5.75.75 0 0 1 0-1.5ZM12 4.001c3.169 0 4.966 2.097 5.227 4.63h.08A3.687 3.687 0 0 1 21 12.313a3.687 3.687 0 0 1-3.693 3.683H6.693A3.687 3.687 0 0 1 3 12.313a3.687 3.687 0 0 1 3.692-3.682h.08C7.036 6.08 8.832 4 12 4Zm0 1.497c-2.071 0-3.877 1.634-3.877 3.89 0 .357-.319.637-.684.637h-.69c-1.261 0-2.284 1.002-2.284 2.237s1.023 2.236 2.284 2.236h10.503c1.26 0 2.283-1.001 2.283-2.236 0-1.235-1.023-2.237-2.284-2.237h-.69c-.365 0-.684-.28-.684-.637 0-2.285-1.806-3.89-3.877-3.89Z" fill="#212121"/></svg>