<svg width="24" height="24" fill="none" viewBox="0 0 24 24" xmlns="http://www.w3.org/2000/svg"><path d="M5 17.75v-3.766l4.06 2.653a5.375 5.375 0 0 0 5.88 0L19 13.984v3.766a.75.75 0 0 1-.15.45l-.001.001-.001.002-.003.004-.009.01-.012.016-.013.017-.086.101a5.325 5.325 0 0 1-.317.33c-.277.267-.69.614-1.25.958C16.037 20.329 14.339 21 12 21c-2.339 0-4.036-.67-5.159-1.361a7.433 7.433 0 0 1-1.25-.957 5.313 5.313 0 0 1-.427-.464l-.009-.01-.003-.005v-.002A.755.755 0 0 1 5 17.75Z" fill="#212121"/><path d="m22.16 10.128-8.04 5.253a3.875 3.875 0 0 1-4.24 0L3 10.886v5.364a.75.75 0 0 1-1.5 0V10c0-.088.015-.172.043-.25a.75.75 0 0 1 .302-.881l8.064-5.17a3.875 3.875 0 0 1 4.182 0l8.064 5.17a.75.75 0 0 1 .005 1.259Z" fill="#212121"/></svg>