<svg width="24" height="24" fill="none" viewBox="0 0 24 24" xmlns="http://www.w3.org/2000/svg"><path d="M17.5 12a5.5 5.5 0 1 1 0 11 5.5 5.5 0 0 1 0-11Zm0 2-.09.007a.5.5 0 0 0-.402.402L17 14.5V17h-2.502l-.09.009a.5.5 0 0 0-.402.402l-.008.09.008.09a.5.5 0 0 0 .402.402l.09.008H17v2.503l.008.09a.5.5 0 0 0 .402.402l.09.008.09-.008a.5.5 0 0 0 .402-.402l.008-.09V18h2.504l.09-.007a.5.5 0 0 0 .402-.402l.008-.09-.008-.09a.5.5 0 0 0-.403-.402l-.09-.008H18v-2.5l-.008-.09a.5.5 0 0 0-.402-.403L17.5 14ZM13.925 2.502a2.25 2.25 0 0 1 1.94 1.11L16.679 5h2.071A3.25 3.25 0 0 1 22 8.25v4.56A6.478 6.478 0 0 0 17.5 11c-.416 0-.823.039-1.218.114a4.501 4.501 0 1 0-5.254 5.78A6.511 6.511 0 0 0 12.022 21H5.25A3.25 3.25 0 0 1 2 17.75v-9.5A3.25 3.25 0 0 1 5.25 5h2.08l.875-1.424a2.25 2.25 0 0 1 1.917-1.073h3.803ZM12 9.5c1.33 0 2.457.865 2.85 2.063a6.52 6.52 0 0 0-3.512 3.862A3 3 0 0 1 12 9.5Z" fill="#212121"/></svg>