<svg width="24" height="24" fill="none" viewBox="0 0 24 24" xmlns="http://www.w3.org/2000/svg"><path d="M6.5 12a5.5 5.5 0 1 1 0 11 5.5 5.5 0 0 1 0-11Zm11.25-9A3.25 3.25 0 0 1 21 6.25v11.5A3.25 3.25 0 0 1 17.75 21l-5.773.001A6.47 6.47 0 0 0 13 17.5c0-1.515-.519-2.91-1.39-4.013l.07.01.07.003h4.498l.102-.007a.75.75 0 0 0 0-1.486L16.248 12H12.5V6.75l-.007-.102a.75.75 0 0 0-1.486 0L11 6.75v6l.005.064A6.478 6.478 0 0 0 6.5 11a6.47 6.47 0 0 0-3.501 1.023L3 6.25A3.25 3.25 0 0 1 6.25 3h11.5ZM6.5 17.5h-3a.5.5 0 0 0-.492.41L3 18v.496c0 .994.757 1.498 2 1.498 1.181 0 1.923-.454 1.994-1.352L7 18.497V18a.5.5 0 0 0-.5-.5Zm3.02-.014-1.61-.001c.043.12.072.248.084.38L8 18v.497l-.007.212c-.02.276-.076.528-.168.755.134.014.276.02.425.02 1.026 0 1.693-.32 1.764-1.035l.006-.13v-.333a.5.5 0 0 0-.41-.492l-.09-.008ZM5 14.5a1.002 1.002 0 1 0 0 2.003A1.002 1.002 0 0 0 5 14.5Zm3.13.257a.873.873 0 1 0 0 1.747.873.873 0 0 0 0-1.747Z" fill="#212121"/></svg>