<svg width="24" height="24" fill="none" viewBox="0 0 24 24" xmlns="http://www.w3.org/2000/svg"><path d="M12.755 4.001v.002h7.498c.966 0 1.75.784 1.75 1.75v12.495a1.75 1.75 0 0 1-1.75 1.75h-8.998v-.002H3.756a1.75 1.75 0 0 1-1.75-1.75V5.751c0-.967.784-1.75 1.75-1.75h8.998Zm7.498 1.502h-7.498v12.995h7.498a.25.25 0 0 0 .25-.25V5.754a.25.25 0 0 0-.25-.25Zm-8.998-.002H3.757a.25.25 0 0 0-.25.25v12.495c0 .138.112.25.25.25h7.498V5.501Zm3.491 9.999h1.5a.75.75 0 0 1 .102 1.493l-.102.007h-1.5a.75.75 0 0 1-.102-1.493l.102-.007h1.5-1.5Zm-6.997 0H9.25a.75.75 0 0 1 .102 1.493L9.25 17H7.75a.75.75 0 0 1-.102-1.493l.102-.007H9.25 7.75Z" fill="#212121"/></svg>