<svg width="24" height="24" fill="none" viewBox="0 0 24 24" xmlns="http://www.w3.org/2000/svg"><path d="M10.11 17.24a7.007 7.007 0 0 0 3.414 4.837l-2.473.821a2 2 0 0 1-2.322-.832l-.431-.683a2 2 0 0 1 .224-2.424l1.588-1.719ZM17 10a6 6 0 1 1 0 12 6 6 0 0 1 0-12ZM7 1c.214 0 .425.011.634.033l-.351.116c-.387.107-.8.291-1.184.536-2.104 1.346-2.732 4.137-1.4 6.237 1.335 2.102 4.126 2.71 6.233 1.364a4.77 4.77 0 0 0 .933-.783l1.128-1.21A6 6 0 1 1 7 1Zm5.797.649.107.13.091.132.648 1.021a2 2 0 0 1-.114 2.307l-.11.128-2.289 2.457c-.213.231-.458.441-.737.62-1.641 1.049-3.812.575-4.85-1.058-1.036-1.634-.546-3.809 1.095-4.858.304-.195.627-.337.958-.43l3.085-1.014a2 2 0 0 1 2.116.565Zm-2.446 1.41a.75.75 0 0 0-.26.945l.054.096.261.39.069.088a.75.75 0 0 0 1.233-.826l-.055-.096-.261-.39-.069-.088a.75.75 0 0 0-.972-.118Z" fill="#212121"/></svg>