<svg width="24" height="24" fill="none" viewBox="0 0 24 24" xmlns="http://www.w3.org/2000/svg"><path d="M6 16.938v2.121L5.059 20h-2.12L6 16.938Zm16.002-2.503v2.122L18.56 20h-.566v-1.557l4.008-4.008ZM8.75 14h6.495a1.75 1.75 0 0 1 1.744 1.607l.006.143V20h-1.5v-4.25a.25.25 0 0 0-.193-.243l-.057-.007H8.75a.25.25 0 0 0-.243.193l-.007.057V20H7v-4.25a1.75 1.75 0 0 1 1.606-1.744L8.75 14Zm-.729-3.584c.06.579.243 1.12.523 1.6L2 18.56v-2.122l6.021-6.022Zm13.98-.484v2.123l-4.007 4.01v-.315l-.004-.168a2.734 2.734 0 0 0-.387-1.247l4.399-4.403ZM12.058 4 2 14.06v-2.121L9.936 4h2.12Zm9.945 1.432v2.123l-5.667 5.67a2.731 2.731 0 0 0-.86-.216l-.23-.009h-.6a4.02 4.02 0 0 0 .855-1.062l6.502-6.506ZM12 7a3 3 0 1 1 0 6 3 3 0 0 1 0-6Zm0 1.5a1.5 1.5 0 1 0 0 3 1.5 1.5 0 0 0 0-3ZM7.559 4l-5.56 5.56V7.438L5.439 4h2.12Zm13.498 0-5.148 5.149a3.98 3.98 0 0 0-.652-1.47L18.935 4h2.122Zm-4.498 0-2.544 2.544a3.974 3.974 0 0 0-1.6-.522L14.438 4h2.122Z" fill="#212121"/></svg>