<svg width="24" height="24" fill="none" viewBox="0 0 24 24" xmlns="http://www.w3.org/2000/svg"><path d="M15.56 4.174A6.008 6.008 0 0 0 12 6.682a6.008 6.008 0 0 0-3.56-2.508 4 4 0 0 1 7.12 0ZM4.057 14.042a8.004 8.004 0 0 1 6.985-6.985 5 5 0 1 0-6.986 6.986ZM19.943 14.042a5 5 0 1 0-6.986-6.986 8.004 8.004 0 0 1 6.986 6.986Z" fill="#212121"/><path d="M12 22a7 7 0 1 0 0-14 7 7 0 0 0 0 14Zm-2.5-8.75a.75.75 0 0 1 .75-.75h4.25a.75.75 0 0 1 .495 1.313v.001l-.013.011-.053.05a9.548 9.548 0 0 0-.925 1.048c-.557.731-1.188 1.77-1.53 3.024a.75.75 0 1 1-1.448-.394c.408-1.496 1.152-2.707 1.783-3.538L12.82 14h-2.57a.75.75 0 0 1-.75-.75Z" fill="#212121"/></svg>