<svg width="24" height="24" fill="none" viewBox="0 0 24 24" xmlns="http://www.w3.org/2000/svg"><path d="M6.049 7.984a.75.75 0 0 1 .967-.435L12 9.439l4.984-1.89a.75.75 0 1 1 .532 1.402L12.75 10.76v5.491a.75.75 0 0 1-1.5 0v-5.49L6.484 8.95a.75.75 0 0 1-.435-.967Z" fill="#212121"/><path d="M10.591 2.512a3.75 3.75 0 0 1 2.818 0l7.498 3.04A1.75 1.75 0 0 1 22 7.174v9.652a1.75 1.75 0 0 1-1.093 1.622l-7.498 3.04a3.75 3.75 0 0 1-2.818 0l-7.498-3.04A1.75 1.75 0 0 1 2 16.826V7.175a1.75 1.75 0 0 1 1.093-1.622l7.498-3.04Zm2.254 1.39a2.25 2.25 0 0 0-1.69 0l-7.499 3.04a.25.25 0 0 0-.156.232v9.652a.25.25 0 0 0 .156.232l7.499 3.04a2.25 2.25 0 0 0 1.69 0l7.499-3.04a.25.25 0 0 0 .156-.232V7.175a.25.25 0 0 0-.156-.232l-7.499-3.04Z" fill="#212121"/></svg>