<svg width="24" height="24" fill="none" viewBox="0 0 24 24" xmlns="http://www.w3.org/2000/svg"><path d="M18.678 2.393a.75.75 0 0 1 1.017-.3c.32.175.755.51 1.184 1.031.432.525.765 1.144.956 1.86A4.878 4.878 0 0 1 21.72 7.9a3.75 3.75 0 0 1-.307.68.75.75 0 0 1-1.328-.69l.047-.09a3.398 3.398 0 0 0 .255-2.429 3.4 3.4 0 0 0-.666-1.294c-.294-.357-.581-.579-.745-.668a.75.75 0 0 1-.298-1.017ZM14.69 15.28a.75.75 0 0 0-.919-.531l-1.932.518-.096.032a.75.75 0 0 0 .484 1.416l1.932-.517.097-.033a.75.75 0 0 0 .434-.886Z" fill="#212121"/><path d="M15.096 5.66a2.25 2.25 0 0 0-2.757-1.59L7.747 5.303a2.25 2.25 0 0 0-1.59 2.755l2.754 10.286a2.25 2.25 0 0 0 2.756 1.592l4.595-1.23a2.25 2.25 0 0 0 1.592-2.756L15.096 5.66Zm-2.368-.141a.75.75 0 0 1 .92.53l2.757 10.29a.75.75 0 0 1-.53.918l-4.596 1.23a.75.75 0 0 1-.919-.53L7.606 7.67a.75.75 0 0 1 .53-.918l4.592-1.233ZM18.551 4.302a.75.75 0 1 0-.909 1.193l.033.028c.04.037.099.098.158.176a.933.933 0 0 1 .163.313 1.067 1.067 0 0 1-.03.573l-.05.148a.75.75 0 0 0 1.416.483 1.8 1.8 0 0 0 .048-.13l.052-.178c.106-.412.13-.847.013-1.284a2.402 2.402 0 0 0-.416-.83 2.597 2.597 0 0 0-.478-.492ZM2.539 15.411a.75.75 0 0 1 1.344.659l-.095.193a3.536 3.536 0 0 0-.168 2.335c.134.5.363.935.661 1.309.258.322.51.539.68.652l.067.042a.75.75 0 1 1-.75 1.299c-.315-.182-.745-.527-1.168-1.057a5.045 5.045 0 0 1-.94-1.857 5.017 5.017 0 0 1 .086-2.914c.1-.3.204-.524.283-.66Z" fill="#212121"/><path d="M5.654 16.35a.75.75 0 0 0-.98.407c-.015.035-.03.078-.047.13l-.051.176c-.104.41-.128.846-.01 1.282.08.304.225.58.412.828.17.227.342.391.475.493a.75.75 0 0 0 .915-1.188l-.033-.029a1.379 1.379 0 0 1-.158-.177.945.945 0 0 1-.163-.316 1.075 1.075 0 0 1 .03-.574l.048-.148a.75.75 0 0 0-.438-.883Z" fill="#212121"/></svg>