<svg width="24" height="24" fill="none" viewBox="0 0 24 24" xmlns="http://www.w3.org/2000/svg"><path d="M18 20.5a.5.5 0 0 0 .5-.5V10H14a2 2 0 0 1-2-2V3.5H6a.5.5 0 0 0-.5.5v7.31a4.49 4.49 0 0 0-1.5-.075V4a2 2 0 0 1 2-2h6.172c.028 0 .055.004.082.007.02.003.04.006.06.007.214.015.426.056.623.138.058.024.112.056.166.087l.05.029.048.024c.027.013.055.027.08.044.078.053.148.116.22.18.01.01.023.02.036.03.016.012.033.025.048.04l5.83 5.828A2 2 0 0 1 20 9.828V20a2 2 0 0 1-2 2H9.49l1.5-1.5H18Zm-.622-12L13.5 4.621V8a.5.5 0 0 0 .5.5h3.378ZM6.484 22.53a.747.747 0 0 0 1.061 0l4.408-4.408a3.467 3.467 0 1 0-4.902-4.903l-.036.036-.036-.036a3.467 3.467 0 1 0-4.903 4.903l4.408 4.408Z" fill="#212121"/></svg>