<svg width="24" height="24" fill="none" viewBox="0 0 24 24" xmlns="http://www.w3.org/2000/svg"><path d="M23 6.5a5.5 5.5 0 1 0-11 0 5.5 5.5 0 0 0 11 0ZM18 7l.001 2.504a.5.5 0 1 1-1 0V7h-2.505a.5.5 0 0 1 0-1H17V3.5a.5.5 0 0 1 1 0V6h2.503a.5.5 0 1 1 0 1h-2.502Z" fill="#212121"/><path d="M19.5 19.747v-7.06a6.471 6.471 0 0 0 1.5-.709v7.769a1.75 1.75 0 0 1-1.75 1.75h-3.5a1.75 1.75 0 0 1-1.75-1.75v-5.5a.25.25 0 0 0-.25-.25h-3.5a.25.25 0 0 0-.25.25v5.5a1.75 1.75 0 0 1-1.75 1.75h-3.5A1.75 1.75 0 0 1 3 19.747V9.944c0-.663.293-1.292.8-1.72l6.75-5.692a2.25 2.25 0 0 1 2.152-.418A6.51 6.51 0 0 0 11.7 3.565a.749.749 0 0 0-.182.114L4.767 9.37a.75.75 0 0 0-.267.573v9.803c0 .138.112.25.25.25h3.5a.25.25 0 0 0 .25-.25v-5.5c0-.966.784-1.75 1.75-1.75h3.5c.966 0 1.75.784 1.75 1.75v5.5c0 .138.112.25.25.25h3.5a.25.25 0 0 0 .25-.25Z" fill="#212121"/></svg>