<svg width="24" height="24" fill="none" viewBox="0 0 24 24" xmlns="http://www.w3.org/2000/svg"><path d="M10.968 2.324a1.75 1.75 0 0 1 2.064 0l7.421 5.416c.977.713.474 2.258-.734 2.26H4.28c-1.208-.002-1.71-1.547-.734-2.26l7.421-5.416ZM13 6.25a1 1 0 1 0-2 0 1 1 0 0 0 2 0ZM11.25 16h-2v-5h2v5Zm1.5-.433a4.732 4.732 0 0 1 2-.962V11h-2v4.567Zm3.5-1.067h2.25V11h-2.25v3.5ZM11 19.25c0-.814.205-1.58.566-2.25H5.25A2.25 2.25 0 0 0 3 19.25v.5c0 .414.336.75.75.75h7.416A4.754 4.754 0 0 1 11 19.25ZM7.75 16H5.5v-5h2.25v5ZM23 19.25a3.75 3.75 0 0 0-3.75-3.75l-.102.007A.75.75 0 0 0 19.25 17l.154.005a2.25 2.25 0 0 1-.154 4.495l-.003.005-.102.007a.75.75 0 0 0 .108 1.493V23l.2-.005A3.75 3.75 0 0 0 23 19.25Zm-6.5-3a.75.75 0 0 0-.75-.75l-.2.005a3.75 3.75 0 0 0 .2 7.495l.102-.007a.75.75 0 0 0-.102-1.493l-.154-.005A2.25 2.25 0 0 1 15.75 17l.102-.007a.75.75 0 0 0 .648-.743Zm3.5 3a.75.75 0 0 0-.75-.75h-3.5l-.102.007A.75.75 0 0 0 15.75 20h3.5l.102-.007A.75.75 0 0 0 20 19.25Z" fill="#212121"/></svg>