<svg width="24" height="24" fill="none" viewBox="0 0 24 24" xmlns="http://www.w3.org/2000/svg"><path d="M2 7.25A3.25 3.25 0 0 1 5.25 4h13.5A3.25 3.25 0 0 1 22 7.25V13h-.258a3.74 3.74 0 0 0-1.242-2.545V7.25a1.75 1.75 0 0 0-1.75-1.75H5.25A1.75 1.75 0 0 0 3.5 7.25v9.5c0 .966.784 1.75 1.75 1.75H12v.5c0 .34.04.674.118 1H5.25A3.25 3.25 0 0 1 2 16.75v-9.5ZM21.5 17a1.5 1.5 0 0 1 1.5 1.5v.5c0 1.971-1.86 4-5 4-3.14 0-5-2.029-5-4v-.5a1.5 1.5 0 0 1 1.5-1.5h7ZM18 10.5a2.75 2.75 0 1 1 0 5.5 2.75 2.75 0 0 1 0-5.5Z" fill="#212121"/></svg>