<svg width="24" height="24" fill="none" viewBox="0 0 24 24" xmlns="http://www.w3.org/2000/svg"><path d="M11.752 2a2.752 2.752 0 0 1 2.752 2.751V19.25a2.752 2.752 0 1 1-5.504 0V4.75A2.752 2.752 0 0 1 11.752 2Zm7 5a2.752 2.752 0 0 1 2.752 2.751v9.499a2.752 2.752 0 1 1-5.504 0V9.75A2.752 2.752 0 0 1 18.752 7Zm-14 5a2.752 2.752 0 0 1 2.752 2.751v4.499a2.752 2.752 0 0 1-5.504 0V14.75A2.752 2.752 0 0 1 4.752 12Zm7-8.5c-.692 0-1.252.56-1.252 1.251V19.25a1.252 1.252 0 0 0 2.504 0V4.75c0-.691-.56-1.251-1.252-1.251Zm7 5c-.691 0-1.252.56-1.252 1.251v9.499a1.252 1.252 0 0 0 2.504 0V9.75c0-.691-.56-1.251-1.252-1.251Zm-14 5c-.692 0-1.252.56-1.252 1.251v4.499a1.252 1.252 0 1 0 2.504 0V14.75c0-.691-.56-1.252-1.252-1.252Z" fill="#212121"/></svg>