<svg width="24" height="24" fill="none" viewBox="0 0 24 24" xmlns="http://www.w3.org/2000/svg"><path d="M17.5 12a5.5 5.5 0 1 1 0 11 5.5 5.5 0 0 1 0-11ZM4 12.999l8.81.001A6.478 6.478 0 0 0 11 17.5c0 1.087.267 2.112.739 3.013-1.05.35-2.208.487-3.239.487-2.722 0-6.335-.956-6.495-4.27L2 16.5v-1.501a2 2 0 0 1 2-2Zm13.5 1.003-.09.008a.5.5 0 0 0-.402.402l-.008.09V17h-2.5l-.09.008a.5.5 0 0 0-.402.402L14 17.5l.008.09a.5.5 0 0 0 .402.402l.09.008H17v2.5l.008.09a.5.5 0 0 0 .402.402l.09.008.09-.008a.5.5 0 0 0 .402-.402L18 20.5V18h2.5l.09-.008a.5.5 0 0 0 .402-.402L21 17.5l-.008-.09a.5.5 0 0 0-.402-.402L20.5 17H18v-2.498l-.008-.09a.5.5 0 0 0-.402-.402l-.09-.008ZM8.5 2a4.5 4.5 0 1 1 0 9 4.5 4.5 0 0 1 0-9Zm9 2a3.5 3.5 0 1 1 0 7 3.5 3.5 0 0 1 0-7Z" fill="#212121"/></svg>