<svg width="24" height="24" fill="none" viewBox="0 0 24 24" xmlns="http://www.w3.org/2000/svg"><path d="M12 20.5a1.5 1.5 0 1 1-3 0 1.5 1.5 0 0 1 3 0Zm5 0a1.5 1.5 0 1 1-3 0 1.5 1.5 0 0 1 3 0Zm5 0a1.5 1.5 0 1 1-3 0 1.5 1.5 0 0 1 3 0Zm-7.093-2.43-1.166-2.845H5.885l-1.8 4.45c-.076.19-.185.35-.335.46a.862.862 0 0 1-.525.165c-.264 0-.5-.066-.667-.234a.931.931 0 0 1-.257-.6l-.001-.008v-.083c0-.106.008-.207.035-.288l.004-.013 6.6-16.148a.985.985 0 0 1 .362-.468c.165-.11.36-.158.574-.158.205 0 .39.061.543.188.163.105.285.25.365.43l.002.006 6.454 15.78a2.492 2.492 0 0 0-2.332-.634ZM6.62 13.35h6.356l-3.2-7.819L6.62 13.35Z" fill="#212121"/></svg>