<svg width="24" height="24" fill="none" viewBox="0 0 24 24" xmlns="http://www.w3.org/2000/svg"><path d="M18.832 3.445A1 1 0 0 0 18 3H6l-.125.008a1 1 0 0 0-.77.545l-3 6-.052.125a1 1 0 0 0 .204.991l8.982 9.983a.976.976 0 0 0 .532.322l.112.02a1.009 1.009 0 0 0 .556-.093A4.376 4.376 0 0 1 12 19v-.5a2.5 2.5 0 0 1 2.5-2.5h.95a3.75 3.75 0 1 1 5.742-4.719l.551-.612.084-.107a1 1 0 0 0 .067-1.01l-3-6-.062-.107ZM9.423 11h5.153L12 17.342 9.423 11Zm-4.177 0h2.018l1.66 4.087L5.246 11Zm1.372-6h2.004l-1.3 4H4.618l2-4Zm4.108 0h2.547l1.299 4H9.427l1.299-4Zm4.651 0h2.004l2 4h-2.704l-1.3-4ZM21.5 17a1.5 1.5 0 0 1 1.5 1.5v.5c0 1.971-1.86 4-5 4-3.14 0-5-2.029-5-4v-.5a1.5 1.5 0 0 1 1.5-1.5h7ZM18 10.5a2.75 2.75 0 1 1 0 5.5 2.75 2.75 0 0 1 0-5.5Z" fill="#212121"/></svg>