<svg width="24" height="24" fill="none" viewBox="0 0 24 24" xmlns="http://www.w3.org/2000/svg"><path d="m3.5 6.75.003-2.123A2.25 2.25 0 0 0 2 6.75v10.504a4.75 4.75 0 0 0 4.75 4.75h5.064a6.515 6.515 0 0 1-1.08-1.5H6.75a3.25 3.25 0 0 1-3.25-3.25V6.75Z" fill="#212121"/><path d="M18 11.174V4.25A2.25 2.25 0 0 0 15.75 2h-9A2.25 2.25 0 0 0 4.5 4.25v13a2.25 2.25 0 0 0 2.25 2.25h3.563a6.475 6.475 0 0 1-.294-1.5H6.75a.75.75 0 0 1-.75-.75v-13a.75.75 0 0 1 .75-.75h9a.75.75 0 0 1 .75.75V11c.516 0 1.018.06 1.5.174Z" fill="#212121"/><path d="M16.5 12a5.5 5.5 0 1 1 0 11 5.5 5.5 0 0 1 0-11Zm.501 8.503V18h2.496a.5.5 0 0 0 0-1H17v-2.5a.5.5 0 1 0-1 0V17h-2.504a.5.5 0 0 0 0 1H16v2.503a.5.5 0 1 0 1 0Z" fill="#212121"/></svg>