<svg width="24" height="24" fill="none" viewBox="0 0 24 24" xmlns="http://www.w3.org/2000/svg"><path d="M17 2a3 3 0 0 1 3 3v8.535a3.804 3.804 0 0 0-3.302 1.203 1.75 1.75 0 0 0 1.66 2.883c-.584.424-1.518 1.146-1.917 2.379H5a3 3 0 0 1-3-3V5a3 3 0 0 1 3-3h12Zm-1.53 4.97L9 13.44l-2.47-2.47a.75.75 0 0 0-1.06 1.06l3 3a.75.75 0 0 0 1.06 0l7-7a.75.75 0 0 0-1.06-1.06Zm3.088 9.44c.277-.309.761-.466 1.135-.392a.611.611 0 0 1 .377.215c.085.108.18.308.18.677 0 .55-.352.831-1.19 1.437-.74.535-1.81 1.32-1.81 2.903 0 .414.336.75.75.75h3a.75.75 0 0 0 0-1.5h-2.057c.195-.331.535-.604.997-.938l.13-.094c.673-.479 1.68-1.198 1.68-2.558 0-.634-.168-1.184-.505-1.609a2.109 2.109 0 0 0-1.263-.755c-.901-.177-1.917.167-2.54.86a.75.75 0 0 0 1.116 1.003Z" fill="#212121"/></svg>