<svg width="24" height="24" fill="none" viewBox="0 0 24 24" xmlns="http://www.w3.org/2000/svg"><path d="M13.75 2a2.25 2.25 0 0 1 2.236 2h1.764A2.25 2.25 0 0 1 20 6.25V18.5c-.19.142-.358.31-.5.5a2.51 2.51 0 0 0-1-.792V6.25a.75.75 0 0 0-.75-.75h-2.129c-.404.603-1.091 1-1.871 1h-3.5c-.78 0-1.467-.397-1.871-1H6.25a.75.75 0 0 0-.75.75v13.5c0 .414.336.75.75.75H11c0 .563.186 1.082.5 1.5H6.25A2.25 2.25 0 0 1 4 19.75V6.25A2.25 2.25 0 0 1 6.25 4h1.764a2.25 2.25 0 0 1 2.236-2h3.5Zm2.245 2.096L16 4.25c0-.052-.002-.103-.005-.154ZM13.75 3.5h-3.5a.75.75 0 0 0 0 1.5h3.5a.75.75 0 0 0 0-1.5Z" fill="#212121"/><path d="M17.5 22a1.5 1.5 0 1 1 0-3 1.5 1.5 0 0 1 0 3ZM13.5 22a1.5 1.5 0 1 1 0-3 1.5 1.5 0 0 1 0 3ZM21.5 22a1.5 1.5 0 1 0 0-3 1.5 1.5 0 0 0 0 3Z" fill="#212121"/></svg>