<svg width="24" height="24" fill="none" viewBox="0 0 24 24" xmlns="http://www.w3.org/2000/svg"><path d="M14.75 15c.966 0 1.75.784 1.75 1.75l-.001.962c.117 2.19-1.511 3.297-4.432 3.297-2.91 0-4.567-1.09-4.567-3.259v-1c0-.966.784-1.75 1.75-1.75h5.5Zm0 1.5h-5.5a.25.25 0 0 0-.25.25v1c0 1.176.887 1.759 3.067 1.759 2.168 0 2.995-.564 2.933-1.757V16.75a.25.25 0 0 0-.25-.25Zm-11-6.5h4.376a4.007 4.007 0 0 0-.095 1.5H3.75a.25.25 0 0 0-.25.25v1c0 1.176.887 1.759 3.067 1.759.462 0 .863-.026 1.207-.077a2.743 2.743 0 0 0-1.173 1.576l-.034.001C3.657 16.009 2 14.919 2 12.75v-1c0-.966.784-1.75 1.75-1.75Zm16.5 0c.966 0 1.75.784 1.75 1.75l-.001.962c.117 2.19-1.511 3.297-4.432 3.297l-.169-.002a2.755 2.755 0 0 0-1.218-1.606c.387.072.847.108 1.387.108 2.168 0 2.995-.564 2.933-1.757V11.75a.25.25 0 0 0-.25-.25h-4.28a4.05 4.05 0 0 0-.096-1.5h4.376ZM12 8a3 3 0 1 1 0 6 3 3 0 0 1 0-6Zm0 1.5a1.5 1.5 0 1 0 0 3 1.5 1.5 0 0 0 0-3ZM6.5 3a3 3 0 1 1 0 6 3 3 0 0 1 0-6Zm11 0a3 3 0 1 1 0 6 3 3 0 0 1 0-6Zm-11 1.5a1.5 1.5 0 1 0 0 3 1.5 1.5 0 0 0 0-3Zm11 0a1.5 1.5 0 1 0 0 3 1.5 1.5 0 0 0 0-3Z" fill="#212121"/></svg>