<svg width="24" height="24" fill="none" viewBox="0 0 24 24" xmlns="http://www.w3.org/2000/svg"><path d="M13.211 3.103c-.495-1.004-1.926-1.004-2.421 0L8.432 7.88l-5.273.766c-1.107.161-1.55 1.522-.748 2.303l3.815 3.72-.9 5.25c-.19 1.103.968 1.944 1.958 1.424L12 18.863l4.716 2.48c.99.52 2.148-.32 1.959-1.424l-.9-5.25 3.815-3.72c.8-.78.359-2.142-.749-2.303L15.57 7.88 13.21 3.103ZM1.164 3.782a.75.75 0 0 0 .118 1.054l2.5 2a.75.75 0 1 0 .937-1.172l-2.5-2a.75.75 0 0 0-1.055.118Z" fill="#212121"/><path d="M22.836 18.218a.75.75 0 0 0-.117-1.054l-2.5-2a.75.75 0 0 0-.938 1.172l2.5 2a.75.75 0 0 0 1.055-.117ZM1.282 17.164a.75.75 0 1 0 .937 1.172l2.5-2a.75.75 0 0 0-.937-1.172l-2.5 2ZM22.836 3.782a.75.75 0 0 1-.117 1.054l-2.5 2a.75.75 0 0 1-.938-1.172l2.5-2a.75.75 0 0 1 1.055.118Z" fill="#212121"/></svg>