<svg width="24" height="24" fill="none" viewBox="0 0 24 24" xmlns="http://www.w3.org/2000/svg"><path d="M12.75 2.75a.75.75 0 0 0-1.5 0v1.5a.75.75 0 0 0 1.5 0v-1.5ZM19.03 4.97a.75.75 0 0 1 0 1.06l-1.06 1.061a.75.75 0 0 1-1.061-1.06l1.06-1.061a.75.75 0 0 1 1.061 0ZM17.41 13A5.5 5.5 0 1 0 6.59 13H2.75a.75.75 0 0 0 0 1.5h18.5a.75.75 0 0 0 0-1.5h-3.84ZM12 8a4 4 0 0 1 3.874 5H8.126A4 4 0 0 1 12 8ZM6 16.75a.75.75 0 0 1 .75-.75h10.5a.75.75 0 0 1 0 1.5H6.75a.75.75 0 0 1-.75-.75ZM10 19.75a.75.75 0 0 1 .75-.75h2.5a.75.75 0 0 1 0 1.5h-2.5a.75.75 0 0 1-.75-.75ZM4.97 4.97a.75.75 0 0 1 1.06 0l1.061 1.06a.75.75 0 1 1-1.06 1.061L4.97 6.031a.75.75 0 0 1 0-1.061Z" fill="#212121"/></svg>