<svg width="24" height="24" fill="none" viewBox="0 0 24 24" xmlns="http://www.w3.org/2000/svg"><path d="M20.245 4.003c.967 0 1.75.784 1.75 1.75v12.495a1.75 1.75 0 0 1-1.75 1.75h-7.247c-.087 0-.172-.006-.256-.018V4.022c.083-.012.169-.019.256-.019h7.247Zm-9.247-.002c.083 0 .165.006.245.017V19.98a1.77 1.77 0 0 1-.245.017H3.75A1.75 1.75 0 0 1 2 18.246V5.751c0-.967.784-1.75 1.75-1.75h7.248Zm4.704 9.4a.75.75 0 0 0-1.06 1.04l.073.084 2.253 2.296.084.074c.266.2.636.2.902 0l.085-.075 2.25-2.295.071-.085A.75.75 0 0 0 19.3 13.4l-.083.074-1.714 1.75-1.718-1.75-.083-.074Zm2.337-6.176a.75.75 0 0 0-.987-.075l-.084.074-2.253 2.296a.75.75 0 0 0 .987 1.124l.083-.073 1.718-1.75 1.714 1.75a.75.75 0 0 0 1.143-.966l-.071-.084-2.25-2.296Z" fill="#212121"/></svg>