<svg width="24" height="24" fill="none" viewBox="0 0 24 24" xmlns="http://www.w3.org/2000/svg"><path d="M15 4.25v15.496c0 1.078-1.274 1.65-2.08.934l-4.492-3.994a.75.75 0 0 0-.498-.19H4.25A2.25 2.25 0 0 1 2 14.247V9.75a2.25 2.25 0 0 1 2.25-2.25h3.68a.75.75 0 0 0 .498-.19l4.491-3.993C13.726 2.599 15 3.17 15 4.25Zm3.992 1.647a.75.75 0 0 1 1.049.157A9.959 9.959 0 0 1 22 12a9.96 9.96 0 0 1-1.96 5.946.75.75 0 0 1-1.205-.892A8.459 8.459 0 0 0 20.5 12a8.459 8.459 0 0 0-1.665-5.054.75.75 0 0 1 .157-1.049ZM17.143 8.37a.75.75 0 0 1 1.017.303c.536.99.84 2.125.84 3.328a6.973 6.973 0 0 1-.84 3.328.75.75 0 0 1-1.32-.714c.42-.777.66-1.666.66-2.614s-.24-1.837-.66-2.614a.75.75 0 0 1 .303-1.017Z" fill="#212121"/></svg>