<svg width="24" height="24" fill="none" viewBox="0 0 24 24" xmlns="http://www.w3.org/2000/svg"><path d="M11 17.5a6.47 6.47 0 0 1 1.022-3.5h-7.77a2.249 2.249 0 0 0-2.249 2.25v.919c0 .572.179 1.13.51 1.596C4.057 20.929 6.58 22 10 22c.931 0 1.796-.08 2.592-.238A6.475 6.475 0 0 1 11 17.5ZM10 2.005a5 5 0 1 1 0 10 5 5 0 0 1 0-10Z" fill="#212121"/><path d="M23 17.5a5.5 5.5 0 1 1-11 0 5.5 5.5 0 0 1 11 0Zm-4.647-2.853a.5.5 0 0 0-.707.707L19.293 17H15a.5.5 0 1 0 0 1h4.293l-1.647 1.647a.5.5 0 0 0 .707.707l2.5-2.5a.497.497 0 0 0 .147-.345V17.5a.498.498 0 0 0-.15-.357l-2.497-2.496Z" fill="#212121"/></svg>