<svg width="24" height="24" fill="none" viewBox="0 0 24 24" xmlns="http://www.w3.org/2000/svg"><path d="M10.961 3c.31.005.586.2.693.492l3.581 9.766-1.163 1.184-.468-1.275H7.998L6.7 16.52a.75.75 0 0 1-1.4-.542l1.484-3.833.003-.008 3.467-8.667a.75.75 0 0 1 .707-.47Zm-.041 2.846-2.329 5.82h4.463l-2.134-5.82Z" fill="#212121"/><path d="m20.306 12.557-.129-.106-.003-.002a2.263 2.263 0 0 0-2.951.212l-3.803 3.87c-.236.239-.408.529-.503.845l-.587 1.952a5.044 5.044 0 0 1-1.604-.007.037.037 0 0 1-.028-.051l.037-.08c.066-.137.18-.381.218-.632.02-.14.027-.334-.049-.54a1.002 1.002 0 0 0-.422-.512c-.324-.2-.727-.215-1.073-.195a7.936 7.936 0 0 0-1.031.144c-.462.09-.901.297-1.339.503-.576.272-1.15.542-1.771.542-.223 0-.437-.036-.638-.104-.123-.041-.258.059-.227.185.057.228.162.537.392.775a1.08 1.08 0 0 0 1.106.283c1.454-.426 2.42-.658 3.048-.763.132-.022.23.11.19.238-.063.2-.153.578.034.96.202.416.6.59.944.66 1.143.236 2.13.205 3.336-.112a1.08 1.08 0 0 0 .157-.038l.117-.037c.171-.05.347-.105.529-.166a.752.752 0 0 0 .08-.031l1.387-.449c.338-.11.643-.296.887-.545l3.795-3.86c.786-.801.783-2.035.018-2.826l-.117-.113Zm-5.875 5.231a.548.548 0 0 1 .135-.227l3.803-3.87a.633.633 0 0 1 .861-.029c.219.194.25.506.086.734l-.06.072-3.792 3.857a.596.596 0 0 1-.242.148l-1.104.357.313-1.042Z" fill="#212121"/></svg>