<svg width="24" height="24" fill="none" viewBox="0 0 24 24" xmlns="http://www.w3.org/2000/svg"><path d="M17.5 12a5.5 5.5 0 1 1 0 11 5.5 5.5 0 0 1 0-11Zm-5.478 2A6.47 6.47 0 0 0 11 17.5c0 1.645.61 3.146 1.617 4.291-.802.14-1.675.21-2.617.21-2.89 0-5.128-.656-6.691-2a3.75 3.75 0 0 1-1.306-2.843v-.908A2.25 2.25 0 0 1 4.253 14h7.77Zm5.478 0-.09.008a.5.5 0 0 0-.402.402L17 14.5V17h-2.502l-.09.009a.5.5 0 0 0-.402.402l-.008.09.008.09a.5.5 0 0 0 .402.401l.09.008H17l.001 2.504.008.09a.5.5 0 0 0 .402.402l.09.008.09-.008a.5.5 0 0 0 .402-.402l.008-.09V18h2.503l.09-.008a.5.5 0 0 0 .402-.402l.008-.09-.008-.09a.5.5 0 0 0-.402-.401l-.09-.009H18v-2.5l-.007-.09a.5.5 0 0 0-.402-.402L17.5 14ZM10 2a.75.75 0 0 1 .743.648l.007.102V3.5h3.5a2.25 2.25 0 0 1 2.25 2.25v4.505c0 .301-.06.588-.167.851a6.46 6.46 0 0 0-2.992 1.4H5.75a2.25 2.25 0 0 1-2.25-2.25V5.75A2.25 2.25 0 0 1 5.75 3.5h3.5v-.749a.75.75 0 0 1 .55-.723l.098-.02L10 2Zm-2.25 4.5a1.25 1.25 0 1 0 0 2.498 1.25 1.25 0 0 0 0-2.499Zm4.492 0a1.25 1.25 0 1 0 0 2.498 1.25 1.25 0 0 0 0-2.499Z" fill="#212121"/></svg>