<svg width="24" height="24" fill="none" viewBox="0 0 24 24" xmlns="http://www.w3.org/2000/svg"><path d="M12.75 2a.75.75 0 0 1 .738.89l-.026.097L11.791 8h4.46a.75.75 0 0 1 .61 1.187l-.07.082-11.995 12.5c-.509.53-1.376.087-1.287-.605l.018-.096L5.294 14H2.75a.75.75 0 0 1-.742-.86l.021-.096 3-10.5a.75.75 0 0 1 .612-.536L5.75 2h7Zm5.394 9.37.05.105 3.75 9.495a.75.75 0 0 1-1.351.643l-.044-.092-.998-2.525h-4.11l-.996 2.525a.75.75 0 0 1-.876.453l-.097-.03a.75.75 0 0 1-.453-.876l.03-.098 3.75-9.495c.235-.596 1.043-.631 1.345-.105ZM11.71 3.5H6.316l-2.571 9h2.51c.455 0 .798.4.745.838l-.017.094-1.316 5.264L14.49 9.5h-3.74a.75.75 0 0 1-.738-.89l.026-.097 1.67-5.013Zm5.786 10.291-1.463 3.705h2.926l-1.463-3.705Z" fill="#212121"/></svg>