<svg width="24" height="24" fill="none" viewBox="0 0 24 24" xmlns="http://www.w3.org/2000/svg"><path d="M15.662 4.83a.75.75 0 0 0-1.09-.245l-.386.275a.75.75 0 1 1-.872-1.22l.385-.276a2.25 2.25 0 0 1 3.273.735l.67 1.2 2.078-2.08a.75.75 0 0 1 1.06 1.061L18.4 6.66l.886 1.586a.75.75 0 0 0 1.127.217l.364-.295a.75.75 0 1 1 .946 1.164l-.365.296a2.25 2.25 0 0 1-3.382-.651l-.678-1.214L15.28 9.78a.75.75 0 0 1-1.06-1.06l2.318-2.32-.876-1.57Zm-7.314 9.062c-1.452.284-3.093.346-4.676.356-.343 1.25-.238 2.159.067 2.788.34.703.993 1.183 1.872 1.403 1.798.448 4.367-.263 6.075-2.212a.75.75 0 0 1 1.128.989c-2.042 2.33-5.17 3.276-7.566 2.678-1.217-.304-2.286-1.022-2.86-2.204-.569-1.175-.585-2.679.023-4.436.824-2.376 2.072-3.852 3.318-4.766a7.911 7.911 0 0 1 3.12-1.373c1.556-.318 2.907.125 3.651 1.102.754.989.74 2.346-.095 3.487-.924 1.262-2.448 1.874-4.057 2.188Zm.802-5.307a6.412 6.412 0 0 0-2.534 1.113c-.823.604-1.697 1.546-2.386 3.044 1.362-.022 2.678-.097 3.831-.322 1.478-.288 2.544-.796 3.134-1.602.489-.667.418-1.29.112-1.692-.316-.415-1.026-.773-2.157-.541Z" fill="#212121"/></svg>