<svg width="24" height="24" fill="none" viewBox="0 0 24 24" xmlns="http://www.w3.org/2000/svg"><path d="m3.651 6.617 7.502 4.753c.214.136.33.353.346.577V7.25a.75.75 0 0 1 .75-.75h3a.75.75 0 0 1 .75.75v9.5a.75.75 0 0 1-.75.75h-3a.75.75 0 0 1-.75-.75v-4.69a.742.742 0 0 1-.347.577l-7.5 4.747A.75.75 0 0 1 2.5 16.75v-9.5a.75.75 0 0 1 1.151-.633ZM21.248 6.5a.75.75 0 0 1 .75.75v9.499a.75.75 0 0 1-.75.75h-3a.75.75 0 0 1-.75-.75v-9.5a.75.75 0 0 1 .75-.75h3ZM14.498 8h-1.5v8h1.5V8Zm6 0h-1.5V16h1.5V8ZM4 8.613v6.775l5.35-3.385L4 8.613Z" fill="#212121"/></svg>