<svg width="24" height="24" fill="none" viewBox="0 0 24 24" xmlns="http://www.w3.org/2000/svg"><path d="M20.245 4.003c.967 0 1.75.784 1.75 1.75v12.495a1.75 1.75 0 0 1-1.75 1.75h-7.247c-.087 0-.172-.006-.256-.018V4.022c.083-.012.169-.019.256-.019h7.247Zm-9.247-.002c.083 0 .165.006.245.017V19.98a1.77 1.77 0 0 1-.245.017H3.75A1.75 1.75 0 0 1 2 18.246V5.751c0-.967.784-1.75 1.75-1.75h7.248ZM19.75 6.5h-4.502a.75.75 0 0 0-.101 1.493l.101.007h4.502a.75.75 0 0 0 .102-1.493L19.75 6.5Z" fill="#212121"/></svg>