<svg width="24" height="24" fill="none" viewBox="0 0 24 24" xmlns="http://www.w3.org/2000/svg"><path d="M18.748 9.495a3.251 3.251 0 0 1 .184 6.494l-.2.005-.116.007h-.787c.11.31.17.645.17.993 0 1.665-1.262 3.006-2.926 3.006-1.3 0-2.235-.628-2.688-1.626a1 1 0 0 1 1.767-.93l.098.188c.14.242.373.368.823.368.53 0 .925-.42.925-1.006 0-.51-.393-.936-.904-.993H3a1 1 0 0 1-.117-1.993L3 14.001h11.859l.117-.006c.063 0 .126.002.189.005l3.462.002.06-.006.189-.008a1.25 1.25 0 1 0-1.254-1.792l-.097.226a1 1 0 0 1-1.83-.796 3.253 3.253 0 0 1 3.053-2.131ZM9.75 17.5a.75.75 0 1 1 0 1.5.75.75 0 0 1 0-1.5Zm2-14a4.25 4.25 0 0 1 .023 8.5H3a1 1 0 0 1-.117-1.993L3 10h8.75l.154-.005A2.25 2.25 0 1 0 9.499 7.75a1 1 0 0 1-2 0 4.25 4.25 0 0 1 4.25-4.25Zm7.5 3a.75.75 0 1 1 0 1.5.75.75 0 0 1 0-1.5ZM5.75 5a.75.75 0 1 1 0 1.5.75.75 0 0 1 0-1.5Z" fill="#212121"/></svg>