<svg width="24" height="24" fill="none" viewBox="0 0 24 24" xmlns="http://www.w3.org/2000/svg"><path d="M17.999 3a.75.75 0 0 1 .605.306l.055.087 3.263 6.028.038.093.012.04.02.102.006.094a.75.75 0 0 1-.027.2l-.047.125-.038.069a.793.793 0 0 1-.04.058.747.747 0 0 1-.035.044l.019-.025-.765.868A3.745 3.745 0 0 0 18 9.5c-.985 0-1.88.38-2.55 1H8.998l3 7.687.033-.082c-.02.128-.031.26-.031.395v.5c0 .651.148 1.286.425 1.872a.725.725 0 0 1-.126.068l-.098.033-.078.017L12 21l-.1-.006-.118-.026a.719.719 0 0 1-.174-.076l-.009-.007a.674.674 0 0 1-.13-.104l-9.29-10.546-.026-.032-.04-.059a.745.745 0 0 1-.106-.301L2 9.75l.003-.066.013-.089a.727.727 0 0 1 .024-.086l.022-.059.028-.057 3.25-6a.75.75 0 0 1 .557-.386L5.999 3h12Zm-10.61 7.5h-2.98l5.351 6.074L7.389 10.5Zm1.582-6H6.445L4.007 9h3.524l1.44-4.5Zm4.48 0h-2.905L9.105 9h5.785l-1.44-4.5Zm4.1 0h-2.525l1.44 4.5h3.522l-2.436-4.5ZM20 11.363a2.737 2.737 0 0 1 .75 1.887 2.75 2.75 0 1 1-.75-1.887ZM14.412 12h.051a3.744 3.744 0 0 0-.213 1.25c0 .705.195 1.365.533 1.928l-.32.822a2.498 2.498 0 0 0-2.048 1.12L14.412 12ZM13 18.5a1.5 1.5 0 0 1 1.5-1.5h7a1.5 1.5 0 0 1 1.5 1.5v.5c0 1.971-1.86 4-5 4-2.58 0-4.294-1.368-4.825-2.95A3.302 3.302 0 0 1 13 19v-.5Z" fill="#212121"/></svg>