<svg width="24" height="24" fill="none" viewBox="0 0 24 24" xmlns="http://www.w3.org/2000/svg"><path d="M16 6.5H5.25a1.75 1.75 0 0 0-1.744 1.606l-.004.1L11 12.153l6.03-3.174a3.489 3.489 0 0 0 2.97.985v6.786a3.25 3.25 0 0 1-3.066 3.245L16.75 20H5.25a3.25 3.25 0 0 1-3.245-3.066L2 16.75v-8.5a3.25 3.25 0 0 1 3.066-3.245L5.25 5h11.087A3.487 3.487 0 0 0 16 6.5Zm2.5 3.399-7.15 3.765a.75.75 0 0 1-.603.042l-.096-.042L3.5 9.9v6.85a1.75 1.75 0 0 0 1.606 1.744l.144.006h11.5a1.75 1.75 0 0 0 1.744-1.607l.006-.143V9.899ZM19.5 4a2.5 2.5 0 1 1 0 5 2.5 2.5 0 0 1 0-5Z" fill="#212121"/></svg>