<svg width="24" height="24" fill="none" viewBox="0 0 24 24" xmlns="http://www.w3.org/2000/svg"><path d="M9.118 2.105a.75.75 0 0 1 1.027.263L14.075 9h7.16c.423 0 .765.342.765.765V12a9.993 9.993 0 0 1-4.73 8.5h2.98a.75.75 0 0 1 0 1.5H3.75a.75.75 0 0 1 0-1.5h2.98A9.993 9.993 0 0 1 2 12V9.765C2 9.342 2.342 9 2.765 9h5.567L4.855 3.132a.75.75 0 0 1 1.29-.764L10.075 9h2.257L8.855 3.132a.75.75 0 0 1 .263-1.027ZM3.5 10.5V12c0 .338.02.672.058 1h16.884c.038-.328.058-.662.058-1v-1.5h-17Zm.374 4a8.504 8.504 0 0 0 16.252 0H3.874Z" fill="#212121"/></svg>