<svg width="24" height="24" fill="none" viewBox="0 0 24 24" xmlns="http://www.w3.org/2000/svg"><path d="M12.023 2.999a6.47 6.47 0 0 0-.71 1.5L5.25 4.5A1.75 1.75 0 0 0 3.5 6.25v8.5c0 .966.784 1.75 1.75 1.75h2.249v3.75l5.015-3.75h6.236a1.75 1.75 0 0 0 1.75-1.75l.001-2.483a6.517 6.517 0 0 0 1.5-1.077L22 14.75A3.25 3.25 0 0 1 18.75 18h-5.738L8 21.75a1.25 1.25 0 0 1-1.999-1V18h-.75A3.25 3.25 0 0 1 2 14.75v-8.5A3.25 3.25 0 0 1 5.25 3l6.773-.001ZM17.5 1a5.5 5.5 0 1 1 0 11 5.5 5.5 0 0 1 0-11Zm2.646 3.146L16.055 8.24 14.9 6.7a.5.5 0 0 0-.8.6l1.5 2a.5.5 0 0 0 .754.054l4.5-4.5a.5.5 0 0 0-.707-.708Z" fill="#212121"/></svg>