<svg width="24" height="24" fill="none" viewBox="0 0 24 24" xmlns="http://www.w3.org/2000/svg"><path d="M11.313 15.5a6.471 6.471 0 0 1 .709-1.5h-7.77a2.249 2.249 0 0 0-2.248 2.25v.577c0 .892.318 1.756.898 2.435 1.566 1.834 3.952 2.74 7.098 2.74.931 0 1.796-.08 2.593-.24a6.517 6.517 0 0 1-.914-1.366c-.524.07-1.083.105-1.679.105-2.738 0-4.704-.745-5.957-2.213a2.25 2.25 0 0 1-.54-1.461v-.578c0-.413.336-.749.75-.749h7.06ZM10 2.005a5 5 0 1 1 0 10 5 5 0 0 1 0-10Zm0 1.5a3.5 3.5 0 1 0 0 7 3.5 3.5 0 0 0 0-7Z" fill="#212121"/><path d="M17.5 12a5.5 5.5 0 1 1 0 11 5.5 5.5 0 0 1 0-11Zm2 5.5h-2V15a.5.5 0 1 0-1 0v3a.5.5 0 0 0 .5.5h2.5a.5.5 0 0 0 0-1Z" fill="#212121"/></svg>