<svg width="24" height="24" fill="none" viewBox="0 0 24 24" xmlns="http://www.w3.org/2000/svg"><path d="M17.767 7.803a.75.75 0 0 1-1.06 1.06l-1.57-1.57a.75.75 0 0 1 1.06-1.06l1.57 1.57Zm-8.372 9.433a.75.75 0 0 0 0-1.061l-1.57-1.57a.75.75 0 1 0-1.06 1.06l1.57 1.57a.75.75 0 0 0 1.06 0ZM20.938 3.084a1.941 1.941 0 0 0-2.745 0l-.671.671-.207-.207a2.413 2.413 0 0 0-3.662.291 2.936 2.936 0 0 0-2.613 4.963l.718.718-2.24 2.239-.717-.718a2.936 2.936 0 0 0-4.963 2.613 2.413 2.413 0 0 0-.291 3.661l.207.208-.692.692a1.941 1.941 0 1 0 2.746 2.745l.692-.692.207.207a2.413 2.413 0 0 0 3.661-.29 2.936 2.936 0 0 0 2.613-4.963l-.717-.718 2.24-2.24.716.718a2.936 2.936 0 0 0 4.963-2.613 2.413 2.413 0 0 0 .291-3.661l-.207-.207.671-.671a1.941 1.941 0 0 0 0-2.746ZM19.207 5.44l-.624-.624.67-.67a.441.441 0 0 1 .625.623l-.671.671Zm-5.764 5.764-2.24 2.24-.624-.625 2.24-2.239.623.624Zm-8.004 8.003-.692.693a.441.441 0 1 1-.624-.624l.692-.692.624.623ZM14.963 4.61a.913.913 0 0 1 1.291 0l3.16 3.16a.913.913 0 0 1-.362 1.513.75.75 0 0 0-.45 1.025 1.437 1.437 0 0 1-2.321 1.614l-4.18-4.18a1.436 1.436 0 0 1 1.614-2.321.75.75 0 0 0 1.025-.45.906.906 0 0 1 .223-.361ZM5.71 12.102c.56-.56 1.47-.56 2.03 0l4.18 4.18a1.436 1.436 0 0 1-1.613 2.322.75.75 0 0 0-1.026.45.913.913 0 0 1-1.514.361l-3.16-3.16a.913.913 0 0 1 .362-1.514.75.75 0 0 0 .45-1.025 1.437 1.437 0 0 1 .29-1.614Z" fill="#212121"/></svg>