<svg width="24" height="24" fill="none" viewBox="0 0 24 24" xmlns="http://www.w3.org/2000/svg"><path d="M2 6.25A2.25 2.25 0 0 1 4.25 4h3.956a2.25 2.25 0 0 1 1.438.52l2.381 1.98h5.725A2.25 2.25 0 0 1 20 8.75v.752H6.422a2.25 2.25 0 0 0-2.183 1.705l-1.923 7.7c.043-.171 0 .005 0 0a2.24 2.24 0 0 1-.32-1.158L2 6.25Z" fill="#212121"/><path d="M3.745 19.379A.5.5 0 0 0 4.23 20h14.24a1.75 1.75 0 0 0 1.698-1.326l1.763-7.05a.5.5 0 0 0-.485-.622H6.422a.75.75 0 0 0-.728.568L3.745 19.38Z" fill="#212121"/></svg>