<svg width="24" height="24" fill="none" viewBox="0 0 24 24" xmlns="http://www.w3.org/2000/svg"><path d="M19.75 20.5h-7.775l-1.5-1.5h9.275a.75.75 0 0 0 .75-.75v-9.5a.75.75 0 0 0-.75-.75h-12a.75.75 0 0 0-.75.75v2.457A5.507 5.507 0 0 0 5.5 11V8.75A2.25 2.25 0 0 1 7.75 6.5h9.75V5.25a.75.75 0 0 0-.75-.75h-12c-.69 0-1.25.56-1.25 1.25v5.625a5.496 5.496 0 0 0-1.5.882V5.75A2.75 2.75 0 0 1 4.75 3h12A2.25 2.25 0 0 1 19 5.25V6.5h.75A2.25 2.25 0 0 1 22 8.75v9.5a2.25 2.25 0 0 1-2.25 2.25Zm-11.643-.332a4.5 4.5 0 1 1 1.06-1.06l2.613 2.612a.75.75 0 1 1-1.06 1.06l-2.613-2.612ZM2.5 16.5a3 3 0 1 0 6 0 3 3 0 0 0-6 0Z" fill="#212121"/></svg>