<svg width="24" height="24" fill="none" viewBox="0 0 24 24" xmlns="http://www.w3.org/2000/svg"><path d="M5.75 3A2.75 2.75 0 0 0 3 5.75v4.682A3.734 3.734 0 0 1 4.75 10h5.5A3.75 3.75 0 0 1 14 13.75v5.5c0 .632-.156 1.228-.432 1.75h4.682A2.75 2.75 0 0 0 21 18.25V8h-7.75A2.25 2.25 0 0 1 11 5.75V3H5.75Z" fill="#212121"/><path d="M12.5 3v2.75c0 .414.336.75.75.75H21v-.75A2.75 2.75 0 0 0 18.25 3H12.5ZM10.5 14.5a1 1 0 1 1-2 0 1 1 0 0 1 2 0Z" fill="#212121"/><path d="M5.25 11A3.25 3.25 0 0 0 2 14.25v4.5A3.25 3.25 0 0 0 5.25 22h4.5A3.25 3.25 0 0 0 13 18.75v-4.5A3.25 3.25 0 0 0 9.75 11h-4.5ZM3.5 14.25c0-.966.784-1.75 1.75-1.75h4.5c.966 0 1.75.784 1.75 1.75v4.5c0 .206-.036.404-.101.588L9.09 17.03a2.25 2.25 0 0 0-3.182 0l-2.308 2.308a1.747 1.747 0 0 1-.101-.588v-4.5Zm1.162 6.149L6.97 18.09a.75.75 0 0 1 1.06 0l2.308 2.308a1.746 1.746 0 0 1-.588.101h-4.5c-.206 0-.404-.036-.588-.101Z" fill="#212121"/></svg>