<svg width="24" height="24" fill="none" viewBox="0 0 24 24" xmlns="http://www.w3.org/2000/svg"><path d="M10.498 12.504a1 1 0 0 1 .993.884l.007.116v7.504a1 1 0 0 1-1.993.117l-.007-.117v-5.093l-5.79 5.792a1 1 0 0 1-1.32.083l-.095-.083a1 1 0 0 1-.083-1.32l.083-.095 5.788-5.788H2.997a1 1 0 0 1-.117-1.993l.117-.007h7.501ZM13.5 2a1 1 0 0 1 .993.883L14.5 3v5.087l5.794-5.793a1 1 0 0 1 1.32-.084l.094.083a1 1 0 0 1 .083 1.32l-.083.095-5.796 5.795H21a1 1 0 0 1 .116 1.994l-.116.007h-7.502a1 1 0 0 1-.993-.883l-.007-.117V2.999a1 1 0 0 1 1-1Z" fill="#212121"/></svg>