<svg width="24" height="24" fill="none" viewBox="0 0 24 24" xmlns="http://www.w3.org/2000/svg"><path d="M20.75 17.5a1.25 1.25 0 1 0 0 2.499 1.25 1.25 0 0 0 0-2.499Zm-3.5.5H2.75a.75.75 0 0 0-.102 1.494l.102.006h14.5a.75.75 0 0 0 .102-1.493L17.25 18Zm3.5-7a1.25 1.25 0 1 0 0 2.499 1.25 1.25 0 0 0 0-2.499Zm-3.5.5H2.75a.75.75 0 0 0-.102 1.494L2.75 13h14.5a.75.75 0 0 0 .102-1.493l-.102-.007Zm3.5-7a1.25 1.25 0 1 0 0 2.499 1.25 1.25 0 0 0 0-2.499Zm-3.5.5H2.75a.75.75 0 0 0-.102 1.494l.102.006h14.5a.75.75 0 0 0 .102-1.493L17.25 5Z" fill="#212121"/></svg>