<svg width="24" height="24" fill="none" viewBox="0 0 24 24" xmlns="http://www.w3.org/2000/svg"><path d="M7.749 3.75a1 1 0 1 0-2 0v7.5a1 1 0 1 0 2 0v-4.5a1 1 0 1 0 0-2v-1Zm15.25.25a1 1 0 1 0-2 0v7a1 1 0 1 0 2 0V6.75a1 1 0 1 0 0-2V4Zm-9-1a1 1 0 0 1 1 1v.75h.251a1 1 0 0 1 0 2H15V11a1 1 0 1 1-2 0V8.521a1 1 0 0 1-.804.96l-2.5.5a1 1 0 0 1-1.145-1.297l1.5-4.5a1 1 0 1 1 1.898.632l-.955 2.866.81-.162A1 1 0 0 1 13 8.48v-4.48a1 1 0 0 1 1-1ZM0 4.75a1 1 0 0 1 1-1h3a1 1 0 0 1 1 1c0 1.752-.868 4.452-3.594 5.664a1 1 0 0 1-.812-1.828C1.93 7.992 2.618 6.824 2.876 5.75H1a1 1 0 0 1-1-1ZM16.5 5a1 1 0 0 1 1-1H19a1 1 0 0 1 0 2h-.5v2.22l.757-.19a1 1 0 1 1 .485 1.94l-2 .5A1 1 0 0 1 16.5 9.5V5Zm1.212 10.206a.608.608 0 0 1 .175-.278c.08-.07.248-.178.613-.178.626 0 .75.391.75.477 0 .219-.048.398-.136.508-.052.066-.238.265-.906.265a1 1 0 1 0 0 2c.262 0 .596.036.829.145a.413.413 0 0 1 .166.12c.013.018.047.07.047.212 0 .429-.13.569-.192.621-.092.078-.272.152-.558.152-.337 0-.488-.059-.559-.103-.051-.033-.15-.112-.241-.391a1 1 0 0 0-1.9.625c.2.607.54 1.119 1.071 1.455.513.325 1.09.414 1.629.414.589 0 1.284-.147 1.848-.624.595-.501.902-1.248.902-2.149 0-.522-.143-.987-.418-1.372a2.181 2.181 0 0 0-.125-.16c.464-.605.543-1.294.543-1.718 0-1.214-1.043-2.477-2.75-2.477-.823 0-1.468.266-1.936.678a2.608 2.608 0 0 0-.776 1.23 1 1 0 0 0 1.924.548Zm-6.226-.456c-.387 0-.736.365-.736.773a1 1 0 1 1-2 0c0-1.365 1.102-2.773 2.736-2.773.93 0 1.843.435 2.36 1.23.548.842.546 1.918-.052 2.936-.306.522-.722.908-1.105 1.21-.193.152-.39.293-.568.419l-.078.055c-.153.108-.292.206-.426.307a4.388 4.388 0 0 0-.41.343H13.2a1 1 0 1 1 0 2H9.75a1 1 0 0 1-1-1c0-1.517.902-2.367 1.664-2.941.161-.121.328-.239.48-.346l.073-.051c.177-.126.335-.24.482-.355.295-.233.494-.438.621-.654.27-.46.177-.714.1-.832-.108-.165-.352-.321-.684-.321Zm-6.681 2.196c.073-.05.146-.1.218-.154v3.458a1 1 0 1 0 2 0v-6.5a1 1 0 0 0-1.977-.214c-.11.502-.627 1.263-1.35 1.746a1 1 0 1 0 1.109 1.664Z" fill="#212121"/></svg>