<svg width="24" height="24" fill="none" viewBox="0 0 24 24" xmlns="http://www.w3.org/2000/svg"><path d="M13.209 3.103c-.495-1.004-1.926-1.004-2.421 0L8.43 7.88l-5.273.766c-1.107.161-1.55 1.522-.748 2.303l3.815 3.72-.9 5.25c-.15.87.54 1.578 1.325 1.581.21.002.426-.047.635-.157L9 20.44v-.001l2.998-1.577 4.716 2.48c.99.52 2.148-.32 1.96-1.424l-.902-5.25 3.816-3.72c.8-.78.359-2.142-.748-2.303l-5.273-.766-2.358-4.777ZM9 18.745V9.283a1.35 1.35 0 0 0 .74-.668l2.258-4.576 2.259 4.576a1.35 1.35 0 0 0 1.016.738l5.05.734-3.654 3.562a1.35 1.35 0 0 0-.388 1.195l.862 5.03-4.516-2.375a1.35 1.35 0 0 0-1.257 0L9 18.745Z" fill="#212121"/></svg>