<svg width="24" height="24" fill="none" viewBox="0 0 24 24" xmlns="http://www.w3.org/2000/svg"><path d="M11.75 2a.75.75 0 0 1 .743.649l.007.102-.001 3.345 2.172-1.907a.75.75 0 0 1 .99 1.127L12.5 8.093 12.498 11h2.909l2.78-3.16a.75.75 0 0 1 .97-.135l.088.067a.75.75 0 0 1 .135.97l-.067.088L17.405 11h3.345a.75.75 0 0 1 .743.649l.007.101a.75.75 0 0 1-.648.743l-.102.007h-3.348l1.909 2.173a.75.75 0 0 1 .01.98l-.078.078a.75.75 0 0 1-.98.01l-.079-.078-2.779-3.163h-2.908l.001 2.907 3.164 2.78a.75.75 0 0 1 .135.97l-.067.089a.75.75 0 0 1-.97.135l-.088-.067-2.174-1.91-.001 3.348a.75.75 0 0 1-.649.743l-.101.006a.75.75 0 0 1-.743-.648l-.007-.102-.001-3.343-2.167 1.906a.75.75 0 0 1-.99-1.127l3.158-2.777v-2.91H8.312l-2.997 3.413a.75.75 0 0 1-1.127-.99l2.128-2.423-3.566.002a.75.75 0 0 1-.743-.649L2 11.751a.75.75 0 0 1 .648-.744l.102-.006h3.124L4.188 9.078a.75.75 0 1 1 1.127-.99L7.87 11h3.128V8.09l-3.16-2.778a.75.75 0 0 1-.135-.97l.067-.088a.75.75 0 0 1 .97-.135l.089.067 2.17 1.907L11 2.75a.75.75 0 0 1 .55-.723l.098-.02L11.75 2Z" fill="#212121"/></svg>