<svg width="24" height="24" fill="none" viewBox="0 0 24 24" xmlns="http://www.w3.org/2000/svg"><path d="M5.25 2h5a.75.75 0 0 1 0 1.5h-5A1.75 1.75 0 0 0 3.5 5.25v2.963A3.754 3.754 0 0 0 2 9.2V5.25A3.25 3.25 0 0 1 5.25 2ZM15.787 20.5a3.754 3.754 0 0 1-.988 1.5h3.951A3.25 3.25 0 0 0 22 18.75v-5a.75.75 0 0 0-1.5 0v5a1.75 1.75 0 0 1-1.75 1.75h-2.963ZM21.25 11a.75.75 0 0 0 .75-.75v-5A3.25 3.25 0 0 0 18.75 2h-5a.75.75 0 0 0 0 1.5h5c.966 0 1.75.784 1.75 1.75v5c0 .414.336.75.75.75ZM7 9h3v3.5H7V9ZM7 14h3v3.5H7V14ZM11.5 14v3.5H15V14h-3.5ZM7 19h3v3H7v-3ZM11.5 19v3h.75A2.75 2.75 0 0 0 15 19.25V19h-3.5ZM11.5 9v3.5H15v-.75A2.75 2.75 0 0 0 12.25 9h-.75ZM5.5 9h-.75A2.75 2.75 0 0 0 2 11.75v.75h3.5V9ZM5.5 14H2v3.5h3.5V14ZM5.5 19H2v.25A2.75 2.75 0 0 0 4.75 22h.75v-3Z" fill="#212121"/></svg>