<svg width="24" height="24" fill="none" viewBox="0 0 24 24" xmlns="http://www.w3.org/2000/svg"><path d="M20.5 7.263a5.27 5.27 0 0 1-.607.475.75.75 0 0 1-.832-1.248c.764-.51 1.33-1.321 1.456-1.9A.75.75 0 0 1 22 4.75v6.5a.75.75 0 0 1-1.5 0V7.263ZM2 9.25a.75.75 0 0 1 .75-.75h3.5a.75.75 0 0 1 .75.75c0 .968-.166 2.241-.76 3.358-.61 1.149-1.673 2.117-3.374 2.383a.75.75 0 1 1-.232-1.482c1.175-.184 1.862-.816 2.282-1.606.312-.585.476-1.262.544-1.903H2.75A.75.75 0 0 1 2 9.25Zm6-3v12a.75.75 0 0 0 1.5 0v-12a.75.75 0 0 0-1.5 0Zm8 12v-12a.75.75 0 0 1 1.5 0v12a.75.75 0 0 1-1.5 0ZM12.742 7.106a.75.75 0 0 0-1.485-.212l-1 7a.75.75 0 0 0 .85.848l3.5-.5a.75.75 0 0 0-.213-1.485l-2.51.36.858-6.01Z" fill="#212121"/></svg>