<svg width="24" height="24" fill="none" viewBox="0 0 24 24" xmlns="http://www.w3.org/2000/svg"><path d="M5 4.25A2.25 2.25 0 0 1 7.25 2h8.5A2.25 2.25 0 0 1 18 4.25V12h3.5v3.25a3.25 3.25 0 0 1-3.25 3.25h-5.326a6.554 6.554 0 0 0 .057-1.5H16.5V4.25a.75.75 0 0 0-.75-.75h-8.5a.75.75 0 0 0-.75.75V11a6.52 6.52 0 0 0-1.5.174V4.25ZM18 17h.25A1.75 1.75 0 0 0 20 15.25V13.5h-2V17Zm-3.75-2.5h-1.982A6.518 6.518 0 0 0 11.19 13h3.06a.75.75 0 0 1 0 1.5ZM8 6.75A.75.75 0 0 1 8.75 6h5.5a.75.75 0 0 1 0 1.5h-5.5A.75.75 0 0 1 8 6.75Zm0 3.5a.75.75 0 0 1 .75-.75h5.5a.75.75 0 0 1 0 1.5h-5.5a.75.75 0 0 1-.75-.75ZM6.5 12a5.5 5.5 0 1 1 0 11 5.5 5.5 0 0 1 0-11ZM5 14.96v5.08a.5.5 0 0 0 .787.41l3.628-2.54a.5.5 0 0 0 0-.82l-3.628-2.54a.5.5 0 0 0-.787.41Z" fill="#212121"/></svg>