<svg width="24" height="24" fill="none" viewBox="0 0 24 24" xmlns="http://www.w3.org/2000/svg"><path d="m19.729 3.875.05.16.552 1.922a.75.75 0 0 1-.418.893l-.096.035L9.09 9.96h11.159a.75.75 0 0 1 .743.65l.007.1v8.499a2.75 2.75 0 0 1-2.583 2.745l-.167.005H5.75a2.75 2.75 0 0 1-2.745-2.582L3 19.209v-8.392l-.522-1.821a2.75 2.75 0 0 1 1.726-3.35l.16-.052L16.378 2.15a2.75 2.75 0 0 1 3.35 1.726ZM6.273 6.607l-1.496.43a1.25 1.25 0 0 0-.886 1.42l.029.125.344 1.201.295-.085 1.714-3.09Zm4.756-1.363-2.717.779-1.714 3.09 2.718-.778 1.713-3.091Zm4.757-1.365-2.717.78-1.714 3.09 2.717-.778 1.714-3.092Zm1.848-.233-1.521 2.74 2.568-.737-.343-1.2a1.248 1.248 0 0 0-.704-.803Z" fill="#212121"/></svg>