<svg width="24" height="24" fill="none" viewBox="0 0 24 24" xmlns="http://www.w3.org/2000/svg"><path d="M6 2.75a.75.75 0 0 0-1.434-.307l-.002.003a1.45 1.45 0 0 1-.067.132 4.126 4.126 0 0 1-.238.384c-.217.313-.524.663-.906.902a.75.75 0 1 0 .794 1.272c.125-.078.243-.161.353-.248V7.25a.75.75 0 0 0 1.5 0v-4.5ZM19.5 18H11l-.117.007A1 1 0 0 0 11 20h8.5l.116-.007A1 1 0 0 0 19.5 18ZM19.5 11.5H11l-.117.007A1 1 0 0 0 11 13.5h8.5l.116-.007A1 1 0 0 0 19.5 11.5ZM19.5 5H11l-.117.007A1 1 0 0 0 11 7h8.5l.116-.007A1 1 0 0 0 19.5 5ZM5.15 10.52c-.3-.053-.676.066-.87.26a.75.75 0 1 1-1.06-1.06c.556-.556 1.43-.812 2.192-.677.397.07.805.254 1.115.605.316.358.473.825.473 1.352 0 .62-.271 1.08-.606 1.42-.278.283-.63.511-.906.689l-.08.051a5.88 5.88 0 0 0-.481.34H6.25a.75.75 0 0 1 0 1.5h-2.5a.75.75 0 0 1-.75-.75c0-1.314.984-1.953 1.575-2.337l.06-.04c.318-.205.533-.345.69-.504.134-.136.175-.238.175-.369 0-.223-.061-.318-.098-.36a.42.42 0 0 0-.251-.12ZM2.97 21.28s.093.084.004.005l.006.005.013.013a1.426 1.426 0 0 0 .15.125c.095.07.227.158.397.243.341.17.83.329 1.46.329.64 0 1.196-.181 1.601-.54.408-.36.61-.857.595-1.359A1.775 1.775 0 0 0 6.77 19c.259-.305.412-.685.426-1.101a1.73 1.73 0 0 0-.595-1.36C6.196 16.181 5.64 16 5 16c-.63 0-1.119.158-1.46.33a2.592 2.592 0 0 0-.51.334 1.426 1.426 0 0 0-.037.033l-.013.013-.006.005-.002.003H2.97l-.001.002a.75.75 0 0 0 1.048 1.072 1.1 1.1 0 0 1 .192-.121c.159-.08.42-.171.79-.171.36 0 .536.1.608.164.07.061.09.127.088.187a.325.325 0 0 1-.123.23c-.089.077-.263.169-.573.169a.75.75 0 0 0 0 1.5c.31 0 .484.092.573.168.091.08.121.166.123.231a.232.232 0 0 1-.088.187c-.072.064-.247.164-.608.164a1.75 1.75 0 0 1-.79-.17 1.1 1.1 0 0 1-.192-.122.75.75 0 0 0-1.048 1.072Zm.002-4.563-.001.002c.007-.006.2-.168 0-.002Z" fill="#212121"/></svg>