<svg width="24" height="24" fill="none" viewBox="0 0 24 24" xmlns="http://www.w3.org/2000/svg"><path d="M14.75 15c.966 0 1.75.784 1.75 1.75l-.001.962c.117 2.19-1.511 3.297-4.432 3.297-2.91 0-4.567-1.09-4.567-3.259v-1c0-.966.784-1.75 1.75-1.75h5.5Zm-11-5h4.376a4.007 4.007 0 0 0 1.067 3.85l.162.151L9.25 14a2.75 2.75 0 0 0-2.649 2.008l-.034.001C3.657 16.009 2 14.919 2 12.75v-1c0-.966.784-1.75 1.75-1.75Zm16.5 0c.966 0 1.75.784 1.75 1.75l-.001.962c.117 2.19-1.511 3.297-4.432 3.297l-.169-.002a2.756 2.756 0 0 0-2.451-2L14.75 14l-.105.001a3.99 3.99 0 0 0 1.229-4L20.25 10ZM12 8a3 3 0 1 1 0 6 3 3 0 0 1 0-6ZM6.5 3a3 3 0 1 1 0 6 3 3 0 0 1 0-6Zm11 0a3 3 0 1 1 0 6 3 3 0 0 1 0-6Z" fill="#212121"/></svg>