<svg width="24" height="24" fill="none" viewBox="0 0 24 24" xmlns="http://www.w3.org/2000/svg"><path d="M8 16a1 1 0 1 0 0-2 1 1 0 0 0 0 2ZM17 15a1 1 0 1 1-2 0 1 1 0 0 1 2 0ZM10.75 5a.75.75 0 0 0 0 1.5h2.5a.75.75 0 0 0 0-1.5h-2.5Z" fill="#212121"/><path d="M7.75 2A3.75 3.75 0 0 0 4 5.75V9.5H2.75a.75.75 0 1 0 0 1.5H4v8.75c0 .966.783 1.75 1.75 1.75h1.5A1.75 1.75 0 0 0 9 19.75V18.5h6v1.25c0 .966.784 1.75 1.75 1.75h1.5A1.75 1.75 0 0 0 20 19.75V11h1.227a.75.75 0 0 0 0-1.5H20V5.75A3.75 3.75 0 0 0 16.25 2h-8.5ZM18.5 18.5v1.25a.25.25 0 0 1-.25.25h-1.5a.25.25 0 0 1-.25-.25V18.5h2Zm0-1.5h-13v-4h13v4Zm-13 2.75V18.5h2v1.25a.25.25 0 0 1-.25.25h-1.5a.25.25 0 0 1-.25-.25Zm0-14A2.25 2.25 0 0 1 7.75 3.5h8.5a2.25 2.25 0 0 1 2.25 2.25v5.75h-13V5.75Z" fill="#212121"/></svg>