<svg width="24" height="24" fill="none" viewBox="0 0 24 24" xmlns="http://www.w3.org/2000/svg"><path d="M17.754 14c1.208 0 2.194.953 2.247 2.148L20 16.25h-8v-.751H6.251a.749.749 0 0 0-.748.75v.578c0 .535.19 1.053.539 1.46 1.253 1.468 3.219 2.214 5.957 2.214v-.751l6.642.001c-1.56 1.506-3.79 2.25-6.642 2.25-3.146 0-5.532-.905-7.098-2.74a3.75 3.75 0 0 1-.898-2.434v-.578a2.249 2.249 0 0 1 2.248-2.25h11.502Zm1.716 4.751L12 18.75v-1.5h7.979a3.751 3.751 0 0 1-.509 1.501ZM12 2c1.636 0 3.088.785 4 2h-4v-.5a3.5 3.5 0 1 0 0 7V10l4 .001A5 5 0 1 1 12 2Zm4.975 5.5a4.965 4.965 0 0 1-.391 1.5H12V7.5h4.975Zm-.39-2.5c.203.468.338.972.39 1.5H12V5h4.584Z" fill="#212121"/></svg>