<svg width="24" height="24" fill="none" viewBox="0 0 24 24" xmlns="http://www.w3.org/2000/svg"><path d="M10.55 2.532a2.25 2.25 0 0 1 2.9 0l6.75 5.692c.507.428.8 1.057.8 1.72v2.82a2.99 2.99 0 0 0-1.5-.723V9.944a.75.75 0 0 0-.267-.573l-6.75-5.692a.75.75 0 0 0-.966 0L4.767 9.37a.75.75 0 0 0-.267.573v9.803c0 .138.112.25.25.25h3.5a.25.25 0 0 0 .25-.25v-5.5c0-.966.784-1.75 1.75-1.75h3.5c.966 0 1.75.784 1.75 1.75v2.881A2.251 2.251 0 0 0 14 19.25v-5.003a.25.25 0 0 0-.25-.25h-3.5a.25.25 0 0 0-.25.25v5.5a1.75 1.75 0 0 1-1.75 1.75h-3.5A1.75 1.75 0 0 1 3 19.747V9.944c0-.663.293-1.292.8-1.72l6.75-5.692ZM19 13a2 2 0 1 0 0 4 2 2 0 0 0 0-4Zm-4 6.25c0-.69.56-1.25 1.25-1.25h5.5c.69 0 1.25.56 1.25 1.25v.088c.001.071.002.142-.001.213a2.734 2.734 0 0 1-.066.453 2.99 2.99 0 0 1-.46 1.033c-.547.78-1.587 1.463-3.473 1.463s-2.926-.683-3.472-1.463a2.99 2.99 0 0 1-.519-1.38 2.033 2.033 0 0 1-.008-.106L15 19.253v-.003Z" fill="#212121"/></svg>