<svg width="24" height="24" fill="none" viewBox="0 0 24 24" xmlns="http://www.w3.org/2000/svg"><path d="M17.25 2A2.75 2.75 0 0 1 20 4.75v8.785a3.69 3.69 0 0 0-1.5.102V4.75c0-.69-.56-1.25-1.25-1.25H4.75c-.69 0-1.25.56-1.25 1.25v12.5c0 .69.56 1.25 1.25 1.25h12.5l.09-.003c-.36.389-.698.88-.9 1.503H4.75A2.75 2.75 0 0 1 2 17.25V4.75A2.75 2.75 0 0 1 4.75 2h12.5ZM9 13.44l6.47-6.47a.75.75 0 0 1 1.133.976l-.073.084-7 7a.75.75 0 0 1-.976.073l-.084-.073-3-3a.75.75 0 0 1 .976-1.133l.084.073L9 13.44Zm9.558 2.97c.277-.309.761-.466 1.135-.392a.611.611 0 0 1 .377.215c.085.108.18.308.18.677 0 .55-.352.831-1.19 1.437-.74.535-1.81 1.32-1.81 2.903 0 .414.336.75.75.75h3a.75.75 0 0 0 0-1.5h-2.057c.195-.331.535-.604.997-.938l.13-.094c.673-.479 1.68-1.198 1.68-2.558 0-.634-.168-1.184-.505-1.609a2.109 2.109 0 0 0-1.263-.755c-.901-.177-1.917.167-2.54.86a.75.75 0 0 0 1.116 1.003Z" fill="#212121"/></svg>