<svg width="24" height="24" fill="none" viewBox="0 0 24 24" xmlns="http://www.w3.org/2000/svg"><path d="M8.645 4.36c1.564 2.852 2.359 5.145 2.359 6.72 0 1.575-.744 2.896-1.466 3.52-.058.05-.123.096-.196.137l-.114.057a.454.454 0 0 1-.634-.495l.025-.088c.612-1.515.909-3.004.885-4.464a.75.75 0 0 0-1.499-.023l.004.023a8.8 8.8 0 0 1-.056 1.12l-.066.478-.042.237-.068.33-.102.412-.043.156c-.17.602-.399 1.213-.684 1.833-.763 1.658-2.079 2.875-3.912 3.633a.75.75 0 1 1-.574-1.386c.965-.399 1.737-.938 2.324-1.621-1.663-.525-2.63-1.671-2.763-3.27-.15-1.81.532-3.035 2.26-4.412l.49-.378.356-.269.37-.289c.832-.673 1.457-1.335 1.876-1.98.3-.464 1.001-.47 1.27.02ZM17 6a3 3 0 0 1 2.995 2.823L20 9v1l1 .017a1 1 0 0 1 .993.878l.008.122v2a1 1 0 0 1-.866.991l-.134.01L20 13.998v1a3 3 0 0 1-2.824 2.995L17 18H8.243a1 1 0 0 1-.117-1.994L8.243 16h.63l.075-.005.105-.019C9.796 15.813 12 14.772 12 11.017c0-1.216-.302-2.568-.905-4.054a.7.7 0 0 1 .553-.957L11.743 6H17Z" fill="#212121"/></svg>