<svg width="24" height="24" fill="none" viewBox="0 0 24 24" xmlns="http://www.w3.org/2000/svg"><path d="m20.068 18.11.017.052c.098.293.143.593.143.892 0 .68-.253 1.32-.767 1.806a2.429 2.429 0 0 1-1.723.706c-.51 0-.989-.152-1.404-.428l-.06-.04-.057-.047a2.97 2.97 0 0 1-.806-1.055l-.012-.025-.988-2.343H9.613l-.944 2.289c-.17.472-.471.897-.92 1.204-.419.297-.904.445-1.407.445-.562 0-1.234-.152-1.764-.681-.503-.503-.682-1.138-.682-1.721 0-.204.04-.445.065-.599l.028-.168L9.669 4.63l.007-.014a2.68 2.68 0 0 1 .95-1.168 2.385 2.385 0 0 1 1.572-.412 2.54 2.54 0 0 1 1.335.427c.46.307.77.738.943 1.218l5.592 13.43ZM13.074 5.216a.945.945 0 0 0-.373-.506 1.036 1.036 0 0 0-.595-.176.896.896 0 0 0-.638.154 1.182 1.182 0 0 0-.418.528L5.44 18.812c-.029.176-.044.293-.044.352 0 .278.081.498.242.66.162.161.396.242.704.242a.911.911 0 0 0 .55-.176.945.945 0 0 0 .374-.506l1.342-3.256h6.798l1.364 3.234c.103.22.235.396.396.528.177.117.367.176.572.176a.931.931 0 0 0 .683-.286.948.948 0 0 0 .308-.726c0-.147-.023-.286-.066-.418l-5.588-13.42Zm1.496 8.91-2.574-6.16-2.552 6.16h5.126Zm-2.88-1.5h.628l-.316-.755-.313.755Z" fill="#212121"/></svg>