<svg width="24" height="24" fill="none" viewBox="0 0 24 24" xmlns="http://www.w3.org/2000/svg"><path d="M12 2.001c5.524 0 10 4.477 10 10s-4.476 10-10 10c-5.522 0-10-4.477-10-10s4.478-10 10-10Zm0 1.5a8.5 8.5 0 1 0 0 17 8.5 8.5 0 0 0 0-17Zm-.352 4.053.072-.084a.75.75 0 0 1 .977-.073l.084.073 4 4a.75.75 0 0 1 .073.977l-.072.085-4.002 4a.75.75 0 0 1-1.133-.977l.073-.084 2.722-2.721H7.75a.75.75 0 0 1-.743-.648L7 12a.75.75 0 0 1 .648-.743l.102-.007h6.69l-2.72-2.72a.75.75 0 0 1-.072-.976l.072-.084-.072.084Z" fill="#212121"/></svg>