<svg width="24" height="24" fill="none" viewBox="0 0 24 24" xmlns="http://www.w3.org/2000/svg"><path d="M8 2.75a.75.75 0 0 0-1.5 0V4H2.75a.75.75 0 0 0-.75.75v1.5a.75.75 0 0 0 1.5 0V5.5h7v.75a.75.75 0 0 0 1.5 0v-1.5a.75.75 0 0 0-.75-.75H8V2.75Zm-4 5A.75.75 0 0 1 4.75 7h4.5a.75.75 0 0 1 .586 1.219L8.01 10.5h3.24a.75.75 0 0 1 0 1.5H8v1.907c0 1.7-1.912 2.695-3.304 1.72l-.376-.263a.75.75 0 1 1 .86-1.228l.376.263a.6.6 0 0 0 .944-.492V12H2.75a.75.75 0 0 1 0-1.5H6.5v-.25a.75.75 0 0 1 .164-.469L7.69 8.5H4.75A.75.75 0 0 1 4 7.75Zm5.28 11.47 1.92 1.919 4.474-5.37a.75.75 0 0 1 1.152.961l-5 6a.75.75 0 0 1-1.106.05l-2.5-2.5a.75.75 0 1 1 1.06-1.06Zm7.526-14.746-3.753 9.495-.031.098a.75.75 0 0 0 .453.876l.097.03a.75.75 0 0 0 .876-.452L15.443 12h4.113l.996 2.526.044.092a.75.75 0 0 0 1.352-.643l-3.747-9.5-.05-.105c-.302-.526-1.11-.491-1.345.104Zm-.77 6.026 1.467-3.708 1.461 3.708h-2.928Z" fill="#212121"/></svg>