<svg width="24" height="24" fill="none" viewBox="0 0 24 24" xmlns="http://www.w3.org/2000/svg"><path d="M14.14 2.978a2.25 2.25 0 0 0-3.412-.267L7.264 6.176a2.25 2.25 0 0 0 .342 3.463l2.01 1.339-6.873 6.743a2.51 2.51 0 1 0 3.532 3.565l6.872-6.872 1.216 1.911a2.25 2.25 0 0 0 3.49.383l3.436-3.436a2.25 2.25 0 0 0-.268-3.411l-3.888-2.828a.75.75 0 0 1-.166-.166L14.14 2.978Zm-2.35.793a.75.75 0 0 1 1.136.09l.46.632L9.068 8.81l-.63-.42a.75.75 0 0 1-.114-1.154l3.465-3.465ZM10.34 9.66l3.939-3.938 1.475 2.028c.139.19.306.358.496.497L18.21 9.67l-3.852 3.851-1.054-1.657a2.25 2.25 0 0 0-.65-.664L10.34 9.66Zm4.842 5.159 4.255-4.255.702.51a.75.75 0 0 1 .09 1.138l-3.437 3.436a.75.75 0 0 1-1.163-.127l-.447-.702Zm-2.86-1.7-7.108 7.108a1.01 1.01 0 1 1-1.42-1.435l7.096-6.963.93.62c.088.058.161.134.217.222l.285.447ZM14.75 19a.75.75 0 1 0 0 1.5h-2a.75.75 0 1 0 0 1.5h8.5a.75.75 0 0 0 0-1.5h-2a.75.75 0 0 0 0-1.5h-4.5Z" fill="#212121"/></svg>