<svg xmlns="http://www.w3.org/2000/svg" width="24" height="24" fill="none" viewBox="0 0 24 24"><path fill="url(#ic_fluent_data_line_24_color__a)" d="M18.89 6.86c.35.21.47.67.25 1.03l-3 5a.75.75 0 0 1-1.28-.78l3-5a.75.75 0 0 1 1.03-.25"/><path fill="url(#ic_fluent_data_line_24_color__b)" d="M18.89 6.86c.35.21.47.67.25 1.03l-3 5a.75.75 0 0 1-1.28-.78l3-5a.75.75 0 0 1 1.03-.25"/><path fill="url(#ic_fluent_data_line_24_color__c)" d="M18.89 6.86c.35.21.47.67.25 1.03l-3 5a.75.75 0 0 1-1.28-.78l3-5a.75.75 0 0 1 1.03-.25"/><path fill="url(#ic_fluent_data_line_24_color__d)" d="M18.89 6.86c.35.21.47.67.25 1.03l-3 5a.75.75 0 0 1-1.28-.78l3-5a.75.75 0 0 1 1.03-.25"/><path fill="url(#ic_fluent_data_line_24_color__e)" d="M13.67 14.16c.19.38.04.83-.33 1.01l-7 3.5a.75.75 0 1 1-.68-1.34l7-3.5a.75.75 0 0 1 1.01.33"/><path fill="url(#ic_fluent_data_line_24_color__f)" d="M13.67 14.16c.19.38.04.83-.33 1.01l-7 3.5a.75.75 0 1 1-.68-1.34l7-3.5a.75.75 0 0 1 1.01.33"/><path fill="url(#ic_fluent_data_line_24_color__g)" d="M13.67 14.16c.19.38.04.83-.33 1.01l-7 3.5a.75.75 0 1 1-.68-1.34l7-3.5a.75.75 0 0 1 1.01.33"/><path fill="url(#ic_fluent_data_line_24_color__h)" d="M13.67 14.16c.19.38.04.83-.33 1.01l-7 3.5a.75.75 0 1 1-.68-1.34l7-3.5a.75.75 0 0 1 1.01.33"/><circle cx="5" cy="18" r="3" fill="url(#ic_fluent_data_line_24_color__i)"/><circle cx="14" cy="14" r="3" fill="url(#ic_fluent_data_line_24_color__j)"/><circle cx="19" cy="6" r="3" fill="url(#ic_fluent_data_line_24_color__k)"/><defs><radialGradient id="ic_fluent_data_line_24_color__b" cx="0" cy="0" r="1" gradientTransform="rotate(16.14 -64.2 22.82)scale(5.23186 6.25119)" gradientUnits="userSpaceOnUse"><stop offset=".55" stop-color="#70777d"/><stop offset="1" stop-color="#70777d" stop-opacity="0"/></radialGradient><radialGradient id="ic_fluent_data_line_24_color__c" cx="0" cy="0" r="1" gradientTransform="rotate(83.42 6.63 13.83)scale(4.63728 5.41306)" gradientUnits="userSpaceOnUse"><stop offset=".55" stop-color="#70777d"/><stop offset="1" stop-color="#70777d" stop-opacity="0"/></radialGradient><radialGradient id="ic_fluent_data_line_24_color__d" cx="0" cy="0" r="1" gradientTransform="matrix(4.67419 0 0 4.67272 13.9 13.9)" gradientUnits="userSpaceOnUse"><stop offset=".55" stop-color="#70777d"/><stop offset="1" stop-color="#70777d" stop-opacity="0"/></radialGradient><radialGradient id="ic_fluent_data_line_24_color__f" cx="0" cy="0" r="1" gradientTransform="rotate(16.14 -64.2 22.82)scale(5.23186 6.25119)" gradientUnits="userSpaceOnUse"><stop offset=".55" stop-color="#70777d"/><stop offset="1" stop-color="#70777d" stop-opacity="0"/></radialGradient><radialGradient id="ic_fluent_data_line_24_color__g" cx="0" cy="0" r="1" gradientTransform="rotate(83.42 6.63 13.83)scale(4.63728 5.41306)" gradientUnits="userSpaceOnUse"><stop offset=".55" stop-color="#70777d"/><stop offset="1" stop-color="#70777d" stop-opacity="0"/></radialGradient><radialGradient id="ic_fluent_data_line_24_color__h" cx="0" cy="0" r="1" gradientTransform="matrix(4.67419 0 0 4.67272 13.9 13.9)" gradientUnits="userSpaceOnUse"><stop offset=".55" stop-color="#70777d"/><stop offset="1" stop-color="#70777d" stop-opacity="0"/></radialGradient><linearGradient id="ic_fluent_data_line_24_color__a" x1="5.25" x2="21.24" y1="6.75" y2="22.18" gradientUnits="userSpaceOnUse"><stop stop-color="#b9c0c7"/><stop offset="1" stop-color="#70777d"/></linearGradient><linearGradient id="ic_fluent_data_line_24_color__e" x1="5.25" x2="21.24" y1="6.75" y2="22.18" gradientUnits="userSpaceOnUse"><stop stop-color="#b9c0c7"/><stop offset="1" stop-color="#70777d"/></linearGradient><linearGradient id="ic_fluent_data_line_24_color__i" x1="2.75" x2="9.2" y1="15.25" y2="22.88" gradientUnits="userSpaceOnUse"><stop stop-color="#36dff1"/><stop offset="1" stop-color="#0078d4"/></linearGradient><linearGradient id="ic_fluent_data_line_24_color__j" x1="17" x2="7.4" y1="17" y2="7.4" gradientUnits="userSpaceOnUse"><stop stop-color="#6d37cd"/><stop offset=".64" stop-color="#ea71ef"/></linearGradient><linearGradient id="ic_fluent_data_line_24_color__k" x1="21.5" x2="17.2" y1="7.9" y2="3" gradientUnits="userSpaceOnUse"><stop stop-color="#e23cb4"/><stop offset="1" stop-color="#ea71ef"/></linearGradient></defs></svg>