<svg xmlns="http://www.w3.org/2000/svg" width="24" height="24" fill="none" viewBox="0 0 24 24"><path fill="url(#ic_fluent_org_24_color__a)" fill-rule="evenodd" d="M11 11.5v-3h1.5v3h3.25c1.24 0 2.25 1 2.25 2.25V16h-1.5v-2.25a.75.75 0 0 0-.75-.75h-8a.75.75 0 0 0-.75.75V16H5.5v-2.25c0-1.24 1-2.25 2.25-2.25z" clip-rule="evenodd"/><path fill="url(#ic_fluent_org_24_color__b)" fill-rule="evenodd" d="M11 11.5v-3h1.5v3h3.25c1.24 0 2.25 1 2.25 2.25V16h-1.5v-2.25a.75.75 0 0 0-.75-.75h-8a.75.75 0 0 0-.75.75V16H5.5v-2.25c0-1.24 1-2.25 2.25-2.25z" clip-rule="evenodd"/><path fill="url(#ic_fluent_org_24_color__c)" fill-rule="evenodd" d="M11 11.5v-3h1.5v3h3.25c1.24 0 2.25 1 2.25 2.25V16h-1.5v-2.25a.75.75 0 0 0-.75-.75h-8a.75.75 0 0 0-.75.75V16H5.5v-2.25c0-1.24 1-2.25 2.25-2.25z" clip-rule="evenodd"/><path fill="url(#ic_fluent_org_24_color__d)" fill-rule="evenodd" d="M11 11.5v-3h1.5v3h3.25c1.24 0 2.25 1 2.25 2.25V16h-1.5v-2.25a.75.75 0 0 0-.75-.75h-8a.75.75 0 0 0-.75.75V16H5.5v-2.25c0-1.24 1-2.25 2.25-2.25z" clip-rule="evenodd"/><path fill="url(#ic_fluent_org_24_color__e)" d="M10 18.25a3.75 3.75 0 1 1-7.5 0 3.75 3.75 0 0 1 7.5 0"/><path fill="url(#ic_fluent_org_24_color__f)" d="M21 18.25a3.75 3.75 0 1 1-7.5 0 3.75 3.75 0 0 1 7.5 0"/><path fill="url(#ic_fluent_org_24_color__g)" d="M15.5 5.75a3.75 3.75 0 1 1-7.5 0 3.75 3.75 0 0 1 7.5 0"/><defs><radialGradient id="ic_fluent_org_24_color__b" cx="0" cy="0" r="1" gradientTransform="rotate(90 2.75 9)scale(4.5613 7.60216)" gradientUnits="userSpaceOnUse"><stop offset=".55" stop-color="#70777d"/><stop offset="1" stop-color="#70777d" stop-opacity="0"/></radialGradient><radialGradient id="ic_fluent_org_24_color__c" cx="0" cy="0" r="1" gradientTransform="rotate(-90.24 11.9 5.82)scale(4.66951 7.7825)" gradientUnits="userSpaceOnUse"><stop offset=".55" stop-color="#70777d"/><stop offset="1" stop-color="#70777d" stop-opacity="0"/></radialGradient><radialGradient id="ic_fluent_org_24_color__d" cx="0" cy="0" r="1" gradientTransform="rotate(-89.52 17.62 .11)scale(4.61555 7.6925)" gradientUnits="userSpaceOnUse"><stop offset=".55" stop-color="#70777d"/><stop offset="1" stop-color="#70777d" stop-opacity="0"/></radialGradient><radialGradient id="ic_fluent_org_24_color__e" cx="0" cy="0" r="1" gradientTransform="rotate(53.62 -7.1 1.06)scale(20.282 17.3706)" gradientUnits="userSpaceOnUse"><stop offset=".53" stop-color="#1ec8b0"/><stop offset="1" stop-color="#1a7f7c"/></radialGradient><radialGradient id="ic_fluent_org_24_color__f" cx="0" cy="0" r="1" gradientTransform="rotate(53.62 -1.6 11.94)scale(20.282 17.3706)" gradientUnits="userSpaceOnUse"><stop offset=".53" stop-color="#7b7bff"/><stop offset="1" stop-color="#4a43cb"/></radialGradient><radialGradient id="ic_fluent_org_24_color__g" cx="0" cy="0" r="1" gradientTransform="rotate(53.62 8.03 .25)scale(20.282 17.3706)" gradientUnits="userSpaceOnUse"><stop offset=".53" stop-color="#0fafff"/><stop offset="1" stop-color="#0067bf"/></radialGradient><linearGradient id="ic_fluent_org_24_color__a" x1="5.5" x2="7.24" y1="8.5" y2="16.76" gradientUnits="userSpaceOnUse"><stop stop-color="#b9c0c7"/><stop offset="1" stop-color="#70777d"/></linearGradient></defs></svg>