<svg width="24" height="24" viewBox="0 0 24 24" fill="none" xmlns="http://www.w3.org/2000/svg">
<path d="M4.75 21q-1.15 0-1.95-.8t-.8-1.95v-4.625l2.7-6.975q.3-.775 1-1.212t1.525-.438q1.05 0 1.788 .738T9.75 7.525v1.525l-2.475 2.475 1.075 1.075 2.9-2.9v-7.7h1.5v7.7l2.9 2.9 1.075-1.075-2.475-2.475v-1.525q0-1.05 .738-1.787T16.775 5q.825 0 1.525 .438t1 1.212l2.7 6.975v4.625q0 1.15-.8 1.95t-1.95 .8H15.75q-1.15 0-1.95-.8t-.8-1.95v-1.75l.525-3.9-1.525-1.55-1.55 1.55 .55 3.9v1.75q0 1.15-.8 1.95t-1.95 .8H4.75Z" fill="#212121"/>
</svg>
