<svg width="20" height="21" viewBox="0 0 20 21" fill="none" xmlns="http://www.w3.org/2000/svg">
<path d="M12.9416 3.68979C13.3197 3.2541 13.6079 2.74802 13.7898 2.20062C13.9717 1.65323 14.0437 1.07529 14.0016 0.5C12.841 0.593681 11.7637 1.13951 11.0018 2.0199C10.6369 2.44185 10.3604 2.93272 10.1886 3.46345C10.0169 3.99418 9.95336 4.55397 10.0018 5.10969C10.568 5.11441 11.1276 4.9888 11.6373 4.74258C12.1471 4.49636 12.5934 4.13613 12.9416 3.68979ZM15.4615 11.1293C15.4682 10.3631 15.67 9.61121 16.0479 8.94464C16.4258 8.27807 16.9673 7.71878 17.6213 7.31955C17.2086 6.72482 16.6629 6.23445 16.0277 5.88732C15.3924 5.54018 14.685 5.34583 13.9616 5.31968C12.4017 5.15969 10.9618 6.22962 10.1318 6.22962C9.30189 6.22962 8.13197 5.33968 6.83205 5.35968C5.98224 5.38767 5.15418 5.63544 4.42866 6.07882C3.70313 6.52219 3.10491 7.14604 2.69233 7.88951C0.932445 10.9493 2.24236 15.499 4.00224 17.9688C4.80219 19.1788 5.80212 20.5487 7.12203 20.4987C8.44195 20.4487 8.87192 19.6787 10.4018 19.6787C11.9317 19.6787 12.4017 20.4987 13.7016 20.4687C15.0015 20.4387 15.9214 19.2288 16.7614 18.0188C17.3564 17.1404 17.8212 16.1805 18.1413 15.169C17.3488 14.8311 16.6727 14.2684 16.1965 13.5504C15.7202 12.8325 15.4647 11.9908 15.4615 11.1293Z" fill="black"/>
</svg>
