<svg width="20" height="20" viewBox="0 0 20 20" fill="none" xmlns="http://www.w3.org/2000/svg">
<path d="M9.96133 0.5C4.46055 0.5 0 4.95976 0 10.4613C0 14.8626 2.85422 18.5965 6.81219 19.9137C7.31 20.0059 7.49281 19.6976 7.49281 19.4345C7.49281 19.197 7.48352 18.4122 7.4793 17.5798C4.70797 18.1824 4.1232 16.4045 4.1232 16.4045C3.67008 15.2531 3.01719 14.947 3.01719 14.947C2.11344 14.3287 3.08531 14.3414 3.08531 14.3414C4.08563 14.4117 4.61234 15.368 4.61234 15.368C5.50078 16.8909 6.94266 16.4505 7.51109 16.1961C7.60047 15.5522 7.85867 15.1128 8.14352 14.8641C5.93102 14.6121 3.60508 13.758 3.60508 9.94109C3.60508 8.85359 3.99422 7.96492 4.63148 7.26734C4.52805 7.01641 4.18711 6.00328 4.72797 4.63117C4.72797 4.63117 5.56445 4.36344 7.46805 5.65227C8.26258 5.43148 9.11477 5.32086 9.96133 5.31711C10.8079 5.32086 11.6607 5.43148 12.4568 5.65227C14.3581 4.36344 15.1934 4.63117 15.1934 4.63117C15.7356 6.00328 15.3945 7.01641 15.2911 7.26734C15.9298 7.96492 16.3162 8.85351 16.3162 9.94109C16.3162 13.767 13.9859 14.6095 11.7678 14.8561C12.1251 15.1652 12.4434 15.7715 12.4434 16.7008C12.4434 18.0336 12.4319 19.1063 12.4319 19.4345C12.4319 19.6995 12.6112 20.0102 13.1162 19.9123C17.072 18.5937 19.9226 14.8611 19.9226 10.4613C19.9226 4.95976 15.4627 0.5 9.96133 0.5Z" fill="#161614"/>
<path d="M3.73085 14.6902C3.70898 14.7396 3.63101 14.7545 3.56015 14.7205C3.48788 14.688 3.44726 14.6205 3.47069 14.5709C3.49218 14.5199 3.57015 14.5057 3.64226 14.5399C3.71468 14.5723 3.75593 14.6405 3.73085 14.6902ZM4.22085 15.1273C4.17335 15.1714 4.08046 15.1509 4.01741 15.0813C3.95226 15.0119 3.94007 14.9191 3.98827 14.8743C4.03726 14.8303 4.12734 14.8509 4.19265 14.9204C4.2578 14.9906 4.27046 15.0829 4.22077 15.1274L4.22085 15.1273ZM4.55702 15.6867C4.49593 15.7291 4.39609 15.6894 4.33445 15.6008C4.27343 15.5123 4.27343 15.406 4.33577 15.3634C4.39765 15.3209 4.49593 15.3591 4.55843 15.447C4.61937 15.5371 4.61937 15.6434 4.55695 15.6868L4.55702 15.6867ZM5.12546 16.3346C5.07085 16.3948 4.9546 16.3787 4.86945 16.2965C4.78241 16.2162 4.75812 16.1022 4.81288 16.042C4.86812 15.9816 4.98507 15.9986 5.07085 16.0801C5.15734 16.1602 5.18374 16.2751 5.12554 16.3346H5.12546ZM5.86015 16.5534C5.83616 16.6313 5.72413 16.6668 5.61132 16.6337C5.49866 16.5995 5.42491 16.5081 5.44765 16.4293C5.47109 16.3508 5.58359 16.3138 5.69726 16.3493C5.80976 16.3833 5.88366 16.474 5.86023 16.5534H5.86015ZM6.6964 16.6461C6.69921 16.7283 6.60351 16.7964 6.48507 16.7979C6.36593 16.8005 6.2696 16.734 6.26835 16.6532C6.26835 16.5702 6.36187 16.5027 6.48093 16.5008C6.59937 16.4984 6.6964 16.5645 6.6964 16.6461ZM7.5178 16.6146C7.53202 16.6948 7.44968 16.7771 7.3321 16.799C7.21648 16.8201 7.10945 16.7706 7.09468 16.6912C7.0803 16.609 7.16421 16.5267 7.2796 16.5054C7.39741 16.4849 7.5028 16.5331 7.5178 16.6146Z" fill="#161614"/>
</svg>