<svg width="20" height="21" viewBox="0 0 20 21" fill="none" xmlns="http://www.w3.org/2000/svg">
<g clip-path="url(#clip0_41_8)">
<path d="M19.7617 10.6871C19.7617 9.86767 19.6952 9.26973 19.5513 8.64966H10.1947V12.348H15.6868C15.5761 13.2671 14.9782 14.6512 13.6494 15.5813L13.6308 15.7051L16.5892 17.9969L16.7941 18.0174C18.6765 16.2789 19.7617 13.721 19.7617 10.6871" fill="#4285F4"/>
<path d="M10.1947 20.4313C12.8853 20.4313 15.1442 19.5454 16.7941 18.0174L13.6494 15.5813C12.8079 16.1682 11.6784 16.5779 10.1947 16.5779C7.55931 16.5779 5.32259 14.8395 4.52526 12.4366L4.40839 12.4466L1.33221 14.8273L1.29198 14.9391C2.93076 18.1945 6.29694 20.4313 10.1947 20.4313Z" fill="#34A853"/>
<path d="M4.52526 12.4366C4.31488 11.8165 4.19313 11.1521 4.19313 10.4656C4.19313 9.77902 4.31488 9.11467 4.5142 8.4946L4.50862 8.36253L1.39389 5.9436L1.29198 5.99208C0.616561 7.34299 0.229004 8.86002 0.229004 10.4656C0.229004 12.0712 0.616561 13.5881 1.29198 14.939L4.52526 12.4366" fill="#FBBC05"/>
<path d="M10.1947 4.35336C12.0659 4.35336 13.3282 5.16168 14.048 5.83718L16.8605 3.09107C15.1332 1.4855 12.8853 0.5 10.1947 0.5C6.29694 0.5 2.93076 2.73672 1.29198 5.99214L4.51419 8.49466C5.32259 6.09183 7.55931 4.35336 10.1947 4.35336" fill="#EB4335"/>
</g>
<defs>
<clipPath id="clip0_41_8">
<rect width="19.544" height="20" fill="white" transform="translate(0.227997 0.5)"/>
</clipPath>
</defs>
</svg>