
<svg width="352" height="316" viewBox="0 0 352 316" xmlns="http://www.w3.org/2000/svg"><title>shape-bg</title><g transform="translate(-11 -8)" fill="#F4F9FF" fill-rule="evenodd"><rect transform="rotate(-26 187.024 170.507)" x="-4.476" y="136.507" width="383" height="68" rx="34"/><path d="M75.16 290.014c-5.953-12.205-.886-26.923 11.325-32.88L298.068 153.94l10.779 22.099c5.953 12.205.886 26.924-11.325 32.88l-189.48 92.415c-12.207 5.954-26.928.89-32.882-11.319z"/><path d="M140 285.415L284.373 215l11.412 23.4c6.303 12.922.943 28.505-11.984 34.81l-97.58 47.592c-12.92 6.302-28.504.938-34.808-11.988L140 285.415z"/><path d="M130.861 289.95s8.996-5.283 14 5c4.844 10.247-1-22-1-22l-18 9 5 8zM289.314 225.244s-5.746-8.707 4.26-14.242c9.98-5.374-21.917 2.15-21.917 2.15l9.93 17.504 7.727-5.412zM302.814 164.344s-5.746-8.707 4.26-14.242c9.98-5.374-21.917 2.15-21.917 2.15l9.93 17.504 7.727-5.412z"/><rect transform="rotate(-26 333.57 160.854)" x="311.785" y="144.064" width="43.568" height="33.581" rx="16.79"/><rect transform="rotate(-26 95.994 95.9)" x="69.054" y="79.11" width="53.88" height="33.581" rx="16.79"/><path d="M59.779 167.517c-5.953-12.206-.886-26.925 11.313-32.875L275.85 34.775c12.201-5.95 26.917-.883 32.87 11.324 5.954 12.205.886 26.925-11.313 32.875L70.557 189.616l-10.778-22.1z"/><path d="M126.779 80.827c-5.953-12.205-.882-26.926 11.32-32.878l75.341-36.746c12.205-5.953 26.924-.887 32.878 11.32 5.953 12.206.882 26.927-11.32 32.879l-97.44 47.524-10.78-22.099zM65.854 179.992s5.485 9.189-4.88 14.178c-10.363 4.99 22.195-.445 22.195-.445L74.012 175l-8.158 4.992z"/><path d="M132.7 93s5.282 8.996-5 14c-10.247 4.844 22-1 22-1l-9-18-8 5zM309.313 66.209c-1.252 2.75.447 5.762 4.206 4.701 3.758-1.061 1.426 10.716 1.426 10.716l-18.066 2.203-6.467-5.969 16.853-15.46s3.299 1.058 2.048 3.809z"/><path d="M309.313 66.209c-1.252 2.75.447 5.762 4.206 4.701 3.758-1.061 1.426 10.716 1.426 10.716l-18.066 2.203-6.467-5.969 16.853-15.46s3.299 1.058 2.048 3.809zM74.749 269.22c.6-2.961-1.732-5.514-5.156-3.635-3.424 1.88-3.8-10.12-3.8-10.12l17.106-6.21 7.645 4.36L77.6 272.47s-3.452-.289-2.851-3.25zM247.2 42.008c-1.25 2.75.448 5.763 4.206 4.702 3.76-1.061 1.427 10.716 1.427 10.716l-18.066 2.202-6.467-5.968 16.853-15.46s3.299 1.058 2.047 3.808z"/></g></svg>